<svg width="80" height="80" viewBox="0 0 80 80" fill="none" xmlns="http://www.w3.org/2000/svg">
<g clip-path="url(#clip0_43_133)">
<path d="M35.9661 66.2095C35.9661 58.4672 40.3791 49.3367 47.6054 49.3367C53.7284 49.3367 60.4031 43.7303 55.6591 39.4587C67.6294 39.4587 75.4625 36.1482 73.587 31.0757C83.4059 31.0757 81.2546 15.2175 71.9321 14.8437C73.4215 10.0382 66.471 5.12585 61.8925 6.88788C59.9067 1.12125 49.2051 -0.854358 43.5785 2.77649C38.7794 -1.38831 25.099 -1.22812 21.7893 6.24714C12.9081 3.6842 7.61245 12.1206 7.94342 14.6835C3.6959 15.1641 1.71004 22.319 4.02688 24.7217C-0.441301 27.4449 -2.64781 40.1528 5.35078 45.2787C3.2546 49.9775 9.48798 56.278 15.0594 52.754C15.7214 65.5153 27.9123 62.9524 30.7256 58.307C32.1047 59.4283 32.6011 64.394 32.6011 66.1561C32.6011 75.4468 32.546 80.0387 34.3112 80.0387C36.0212 80.0921 35.9661 75.4467 35.9661 66.2095Z" fill="url(#paint0_linear_43_133)"/>
</g>
<defs>
<linearGradient id="paint0_linear_43_133" x1="0.00797652" y1="40.0391" x2="80.008" y2="40.0391" gradientUnits="userSpaceOnUse">
<stop offset="0.1115" stop-color="#3298CB"/>
<stop offset="0.9686" stop-color="#38BFC3"/>
</linearGradient>
<clipPath id="clip0_43_133">
<rect width="80" height="80" fill="white"/>
</clipPath>
</defs>
</svg>
