<svg width="80" height="80" viewBox="0 0 80 80" fill="none" xmlns="http://www.w3.org/2000/svg">
<path d="M39.966 6C21.198 6 6 21.232 6 40C6 58.768 21.198 74 39.966 74C58.768 74 74 58.768 74 40C74 21.232 58.768 6 39.966 6ZM63.528 26.4H53.498C52.41 22.15 50.846 18.07 48.806 14.296C55.062 16.438 60.264 20.79 63.528 26.4ZM40 12.936C42.822 17.016 45.032 21.538 46.494 26.4H33.506C34.968 21.538 37.178 17.016 40 12.936ZM13.684 46.8C13.14 44.624 12.8 42.346 12.8 40C12.8 37.654 13.14 35.376 13.684 33.2H25.176C24.904 35.444 24.7 37.688 24.7 40C24.7 42.312 24.904 44.556 25.176 46.8H13.684ZM16.472 53.6H26.502C27.59 57.85 29.154 61.93 31.194 65.704C24.938 63.562 19.736 59.244 16.472 53.6ZM26.502 26.4H16.472C19.736 20.756 24.938 16.438 31.194 14.296C29.154 18.07 27.59 22.15 26.502 26.4ZM40 67.064C37.178 62.984 34.968 58.462 33.506 53.6H46.494C45.032 58.462 42.822 62.984 40 67.064ZM47.956 46.8H32.044C31.738 44.556 31.5 42.312 31.5 40C31.5 37.688 31.738 35.41 32.044 33.2H47.956C48.262 35.41 48.5 37.688 48.5 40C48.5 42.312 48.262 44.556 47.956 46.8ZM48.806 65.704C50.846 61.93 52.41 57.85 53.498 53.6H63.528C60.264 59.21 55.062 63.562 48.806 65.704ZM54.824 46.8C55.096 44.556 55.3 42.312 55.3 40C55.3 37.688 55.096 35.444 54.824 33.2H66.316C66.86 35.376 67.2 37.654 67.2 40C67.2 42.346 66.86 44.624 66.316 46.8H54.824Z" fill="url(#paint0_linear_171_36)"/>
<defs>
<linearGradient id="paint0_linear_171_36" x1="6" y1="74" x2="74" y2="6" gradientUnits="userSpaceOnUse">
<stop stop-color="#3298CB"/>
<stop offset="1" stop-color="#38BFC3"/>
</linearGradient>
</defs>
</svg>
