<svg width="320" height="160" viewBox="0 0 320 160" fill="none" xmlns="http://www.w3.org/2000/svg">
<g opacity="0.15" clip-path="url(#clip0_18_2)">
<path d="M269.702 47.149C274.895 46.4778 281.605 46.7885 287.146 49.2135C290.153 50.5298 292.8 52.4624 294.685 55.1842C296.566 57.9021 297.709 61.4394 297.66 66.0074C297.443 70.4998 295.508 73.9378 293.268 76.3776C291.559 78.2384 289.684 79.5039 288.288 80.2037C288.467 79.6756 288.585 79.0949 288.591 78.4801C288.601 77.3581 288.244 76.1544 287.292 74.9938L287.094 74.7623L287.087 74.7545L286.897 74.5631C284.902 72.6563 281.755 72.9921 278.967 74.5973C276.237 76.1692 273.662 79.0385 272.396 82.694C270.582 81.1783 268.852 80.6068 267.226 80.7867C265.442 80.984 263.906 82.0701 262.623 83.5084C260.264 86.1528 258.588 90.1807 257.633 93.0104C254.715 90.6712 252.273 89.1128 250.225 88.1549C248.048 87.1369 246.287 86.7843 244.862 86.9235C242.295 87.1745 241.011 88.9815 240.384 90.8073C239.383 90.0313 237.999 89.3632 236.52 88.986C234.708 88.5241 232.67 88.477 230.949 89.2828C229.218 90.0937 228.06 91.6872 227.812 93.4821C227.596 95.0416 228.071 96.7184 229.389 98.1403C227.832 98.3955 225.253 98.3619 222.379 97.6364C219.017 96.7875 215.321 95.0102 212.46 91.7369L212.186 91.4156C209.373 87.7948 208.062 84.3292 207.841 81.0885C207.619 77.8433 208.487 74.7819 210.1 71.9694C213.082 66.7665 218.596 62.4485 224.322 59.5045C223.294 61.4254 222.249 63.8442 221.858 66.1315C221.61 67.5834 221.618 69.0304 222.104 70.274C222.567 71.4609 223.451 72.4216 224.86 73.0123L225.149 73.1256C226.754 73.7123 228.499 73.4878 230.194 72.8141C231.891 72.1401 233.584 70.9997 235.131 69.6813C237.915 67.3084 240.304 64.2849 241.448 62.1569C243.617 64.2441 246.567 64.56 249.158 63.6735C251.708 62.8009 253.964 60.7489 254.869 57.9957C258.288 60.8225 264.239 62.8976 270.412 60.4225L271.047 60.152L271.049 60.151C272.836 59.3348 274.063 58.3267 274.747 57.1676C275.439 55.9954 275.548 54.7173 275.188 53.4401C274.562 51.2255 272.533 49.0142 269.702 47.149Z" stroke="#73AFD7" stroke-miterlimit="10"/>
<path d="M71.6299 41.207C68.117 43.5164 65.341 46.6205 63.3027 49.6143C60.7941 53.299 59.3643 56.878 59.0684 58.6953L59.0361 58.8896L59.1455 59.0527C59.3019 59.2873 59.5676 59.5619 59.8857 59.8486C60.2122 60.1428 60.6228 60.4754 61.0928 60.8301C62.0332 61.5399 63.2304 62.3486 64.5137 63.1191C65.7966 63.8894 67.1742 64.6273 68.4746 65.1914C69.765 65.7512 71.0194 66.158 72.0439 66.2344L72.9346 66.3008L72.5264 65.5068C72.2466 64.9637 72.1197 64.112 72.2266 63.1299C72.3323 62.1579 72.6616 61.1115 73.2305 60.2012C73.7979 59.2933 74.5968 58.5311 75.6426 58.0977C76.6849 57.6657 78.0132 57.5426 79.6729 57.9785V57.9795C81.3977 58.4369 82.5228 59.2076 83.2256 60.0977C83.9293 60.9889 84.2391 62.0366 84.2715 63.0957C84.3039 64.1586 84.0557 65.2226 83.6543 66.1162C83.249 67.0185 82.7092 67.7002 82.2021 68.041L81.4668 68.5352L82.2705 68.9092C83.2069 69.3447 84.5007 69.6037 85.8994 69.7461C87.3085 69.8896 88.8668 69.9181 90.3574 69.8701C91.8485 69.8221 93.2826 69.6976 94.4443 69.5303C95.0248 69.4467 95.5431 69.3518 95.9697 69.249C96.3848 69.149 96.7512 69.0326 97.0029 68.8936L97.167 68.8027L97.2314 68.6279C97.867 66.8906 98.3227 63.0566 97.8838 58.6064C97.5264 54.9834 96.5707 50.9023 94.5967 47.1562C97.2445 49.8987 98.9696 53.9348 99.8877 58.1035C101.018 63.2356 100.891 68.4101 99.875 71.3418C96.5631 73.0407 91.8002 73.9635 89.2041 74.1572L85.8906 74.4043L89.1299 75.1436C91.4178 75.6654 94.6598 76.3279 97.5684 76.79C99.0218 77.021 100.4 77.203 101.538 77.292C102.107 77.3365 102.623 77.3578 103.062 77.3496C103.493 77.3415 103.884 77.3044 104.185 77.2148L104.421 77.1445L104.509 76.9131C105.797 73.524 107.619 66.2411 106.062 58.1836C107.182 61.4996 107.63 65.4641 107.687 69.2334C107.729 72.0442 107.553 74.7145 107.294 76.8701C107.063 78.7929 106.766 80.2709 106.511 81.0752C103.997 81.3581 100.174 81.0109 96.7217 80.5205C93.1384 80.0115 90.0456 79.3653 89.3789 79.1748L85.459 78.0557L88.9922 80.0889C92.8367 82.3024 96.5279 85.9434 98.7285 90.2334C98.2575 95.216 95.2559 106.04 80.6914 115.593C89.1111 107.292 94.2741 97.7397 95.4541 90.9814L95.4785 90.8398L95.4248 90.707C94.7095 88.9513 93.011 87.3728 91.3447 86.166C89.6634 84.9483 87.9294 84.0495 87.0342 83.6748L84.8467 82.7588L86.4785 84.4795C87.5346 85.5932 88.4802 87.0791 89.2041 88.458C89.891 89.7664 90.356 90.9384 90.5283 91.5566C89.8809 95.2059 87.7233 102.736 78.0264 108.453C80.2044 106.279 82.1332 103.679 83.667 101.188C84.8236 99.3086 85.7653 97.4793 86.4297 95.9219C87.0861 94.3832 87.496 93.0564 87.541 92.2021L87.5479 92.0684L87.4873 91.9492C86.7427 90.4807 85.5826 88.8816 84.374 87.6064C83.7689 86.9681 83.1427 86.4012 82.54 85.9697C81.9463 85.5446 81.3355 85.222 80.7666 85.123L80.1562 85.0166L80.1816 85.6357C80.3781 90.4487 79.2376 95.5979 76.8789 99.874C74.5758 104.049 71.129 107.363 66.6621 108.758C60.9631 101.441 60.9392 90.106 65.7783 81.96L66.1035 81.4131L65.4951 81.2266C64.9423 81.0571 64.2561 81.0554 63.5361 81.1484C62.8069 81.2427 61.9985 81.4398 61.1777 81.707C59.5383 82.2408 57.8023 83.0678 56.4814 83.9619L56.3701 84.0371L56.3115 84.1572C55.9397 84.9234 55.6615 86.2837 55.499 87.9492C55.3345 89.6356 55.2838 91.6967 55.3975 93.9062C55.5474 96.8211 55.9884 100.021 56.8486 102.974C51.1191 93.2461 52.8236 85.5921 54.001 82.0801C54.4576 81.6092 55.4306 80.808 56.6572 79.998C57.9471 79.1464 59.4743 78.3123 60.9141 77.8516L63.0459 77.1699L60.8262 76.8799C59.8614 76.754 57.9094 76.6948 55.8564 76.9443C53.8211 77.1918 51.5792 77.7546 50.124 78.9492L50.0137 79.04L49.9678 79.1748C47.7489 85.6887 47.7449 96.5963 51.1504 107.98C42.9274 92.4953 45.4889 81.556 47.4443 76.9473C51.4169 74.2615 56.4211 72.8748 60.8057 72.8359L65.0674 72.7979L60.9131 71.8486C60.2498 71.697 57.2271 70.7477 53.8369 69.4346C50.5703 68.1693 47.0462 66.5953 44.9863 65.1143C45.1498 64.2853 45.599 62.8468 46.3154 61.0518C47.1178 59.0415 48.2382 56.6229 49.6162 54.1865C51.4735 50.903 53.7715 47.6386 56.3545 45.2783C51.1135 51.585 49.2218 58.8693 48.7461 62.4707L48.7139 62.7148L48.8877 62.8896C49.1093 63.1113 49.4336 63.3324 49.8076 63.5488C50.1885 63.7692 50.6502 64.0012 51.1689 64.2393C52.207 64.7157 53.4981 65.2282 54.8789 65.7354C57.6417 66.7501 60.7932 67.7536 63.0615 68.416L66.2393 69.3438L63.4766 67.5186C61.3064 66.0846 57.577 62.9317 55.4854 59.8193C55.9942 56.7481 58.3539 52.1525 61.793 48.209C64.5815 45.0115 68.0108 42.3226 71.6299 41.207Z" stroke="#73AFD7" stroke-miterlimit="10"/>
<path d="M25.5293 107.564C26.5458 107.772 27.9329 108.3 29.5693 109.041C31.3515 109.848 33.3809 110.88 35.4727 111.951C39.5167 114.022 43.8252 116.253 46.8916 117.18C47.0543 117.75 47.0237 118.519 46.8721 119.214C46.7884 119.598 46.6747 119.925 46.5635 120.146C46.548 120.176 46.5314 120.203 46.5176 120.227C46.4205 120.182 46.3019 120.128 46.166 120.066C45.77 119.885 45.2257 119.638 44.6338 119.374C43.4583 118.851 42.0672 118.251 41.2822 117.983L40.1914 117.61L40.6641 118.661C41.1287 119.694 41.0851 121.58 40.3418 123.291C39.6089 124.978 38.2554 126.361 36.2314 126.558L34.6738 126.71L36.0312 127.489L36.0322 127.49C36.0328 127.491 36.0341 127.491 36.0352 127.491C36.0373 127.493 36.04 127.495 36.0439 127.497C36.0521 127.502 36.0645 127.508 36.0801 127.517C36.1111 127.534 36.1564 127.56 36.2148 127.593C36.3319 127.658 36.5018 127.752 36.7119 127.864C37.1318 128.09 37.7164 128.393 38.375 128.707C39.5862 129.285 41.1067 129.926 42.3164 130.149C42.6012 130.758 42.5187 131.46 42.2139 132.066C42.0469 132.397 41.8234 132.678 41.5898 132.872C41.4023 133.028 41.2292 133.109 41.0898 133.14C36.9388 130.978 22.814 125.005 19.7988 123.79C19.7762 123.084 19.895 122.322 20.1094 121.679C20.2315 121.312 20.3803 121 20.5391 120.765C20.6147 120.653 20.6879 120.567 20.7549 120.502C22.198 121.482 23.8425 122.2 24.873 122.487L25.084 122.542L25.9727 122.755L25.6729 121.892C25.2381 120.642 25.3008 118.961 25.8516 117.413C26.4017 115.867 27.4079 114.537 28.7695 113.91L29.6289 113.514L28.8174 113.028C27.9073 112.481 26.778 111.856 25.8252 111.361C25.3491 111.115 24.9122 110.899 24.5664 110.74C24.4587 110.691 24.3566 110.649 24.2646 110.611C24.4437 109.907 24.7461 109.162 25.0332 108.547C25.2035 108.182 25.3646 107.87 25.4824 107.651C25.4989 107.62 25.5146 107.591 25.5293 107.564Z" stroke="#73AFD7" stroke-miterlimit="10"/>
<path d="M31.446 116.19C32.2529 115.71 33.3356 115.472 34.7399 116.025V116.057L35.0319 116.19C36.3535 116.796 37.0813 117.702 37.3952 118.661C37.7127 119.631 37.6192 120.696 37.2213 121.618C36.4898 123.314 34.1044 124.313 31.943 123.417L31.735 123.324L31.7262 123.32L31.527 123.223C30.5566 122.712 29.9326 121.825 29.6266 120.864C29.3164 119.891 29.3535 118.907 29.6295 118.247L29.6872 118.119C29.9601 117.573 30.554 116.721 31.446 116.19Z" stroke="#73AFD7" stroke-miterlimit="10"/>
<path d="M134.496 113.895C135.929 115.601 136.653 117.955 136.766 120.469C136.879 122.947 136.394 125.535 135.463 127.718C135.456 127.713 135.449 127.708 135.442 127.703C135.194 127.528 134.871 127.292 134.496 127.01C133.746 126.445 132.79 125.699 131.792 124.888C129.976 123.411 128.059 121.748 126.98 120.572C128.693 119.001 132.044 115.792 134.496 113.895Z" stroke="#73AFD7" stroke-miterlimit="10"/>
<path d="M119.982 126.238C121.859 127.285 124.034 128.947 125.943 130.517C126.938 131.335 127.854 132.123 128.611 132.778C129.092 133.194 129.516 133.56 129.851 133.845C127.842 135.299 125.662 136.513 122.963 136.83C120.126 137.162 116.647 136.508 112.117 133.964C112.191 133.856 112.278 133.729 112.38 133.587C112.75 133.071 113.3 132.344 114.019 131.512C115.414 129.898 117.433 127.894 119.982 126.238Z" stroke="#73AFD7" stroke-miterlimit="10"/>
<path d="M110.542 117.698C111.466 118.655 112.341 119.561 112.985 120.228C113.274 120.528 113.517 120.781 113.697 120.967C110.201 124.395 107.099 127.463 105.88 128.761C102.676 125.845 100.68 119.233 106.206 113.219C107.16 114.202 108.927 116.027 110.542 117.698Z" stroke="#73AFD7" stroke-miterlimit="10"/>
<path d="M114.553 106.118C116.121 105.933 117.964 105.871 119.841 105.965C121.719 106.059 123.618 106.308 125.301 106.739C126.701 107.098 127.925 107.576 128.862 108.176C127.231 109.458 124.358 111.73 120.719 115.169L111.672 106.704C112.403 106.46 113.389 106.256 114.553 106.118Z" stroke="#73AFD7" stroke-miterlimit="10"/>
<path d="M117.381 97.7959H117.881C124.726 97.7959 132.237 99.9787 137.914 103.858C143.411 107.615 147.129 112.914 146.97 119.32L146.942 119.944C146.508 126.779 144.268 132.966 140.006 137.404C135.885 141.695 129.826 144.401 121.538 144.44L120.729 144.436C111.975 144.297 104.985 142.222 100.266 138.498C95.7126 134.905 93.225 129.743 93.3232 123.157L93.3408 122.516C93.8851 108.832 103.512 98.0159 117.381 97.7617V97.7959Z" stroke="#73AFD7" stroke-miterlimit="10"/>
<path d="M122.985 49.0908C123.579 49.5323 124.436 50.1667 125.484 50.9395C127.581 52.485 130.449 54.5836 133.53 56.7949C139.26 60.9074 145.766 65.4374 149.416 67.5088L139.874 73.5166C136.734 70.1226 133.187 67.0778 130.399 64.8652C128.962 63.7246 127.724 62.8029 126.845 62.166C126.406 61.8476 126.057 61.5997 125.816 61.4316C125.696 61.3476 125.603 61.2836 125.54 61.2402C125.508 61.2186 125.484 61.2016 125.467 61.1904C125.459 61.185 125.453 61.1806 125.449 61.1777C125.447 61.1764 125.445 61.1755 125.444 61.1748L125.443 61.1738L125.162 61.5879L125.442 61.1738L124.619 60.6162L124.663 61.6094L125.595 82.9854L117.417 87.9473L114.921 53.1465L122.33 48.6025C122.486 48.719 122.707 48.8839 122.985 49.0908Z" stroke="#73AFD7" stroke-miterlimit="10"/>
<path d="M153.643 76.751C154.859 76.7194 157.579 76.908 161.162 77.2656C164.911 77.6399 169.563 78.1916 174.322 78.8408C183.685 80.118 193.393 81.7644 197.518 83.166C198.38 85.9598 200.859 90.2019 203.468 94.1514C205.942 97.8966 208.579 101.445 210.172 103.37C207.727 104.63 199.257 109.268 190.486 114.175C181.215 119.362 171.534 124.892 168.207 127.1C167.115 125.278 164.81 122.386 161.933 118.995C158.771 115.27 154.875 110.892 151.028 106.573C147.179 102.252 143.381 97.9889 140.403 94.4844C138.915 92.732 137.635 91.1744 136.66 89.8965C135.884 88.8786 135.321 88.0622 134.993 87.4775C138.611 85.6493 149.747 79.4584 153.643 76.751Z" stroke="#73AFD7" stroke-miterlimit="10"/>
<path d="M186.425 86.0935C186.441 86.5435 186.353 87.1109 186.173 87.6931C186.028 88.1616 185.835 88.6029 185.627 88.9626C184.613 87.7361 183.028 86.5794 181.67 85.7097C181.441 85.5633 181.217 85.424 181.001 85.2927L186.425 86.0935Z" stroke="#73AFD7" stroke-miterlimit="10"/>
<path d="M164.36 86.3959C165.903 86.3959 169.039 86.2107 172.651 87.3432C176.247 88.4706 180.327 90.9112 183.699 96.2045L183.846 96.4359H192.668L192.699 95.9701C192.901 93.0075 193.682 90.5286 194.498 88.9516C196.405 91.7512 201.687 99.2645 203.067 101.179C202.923 101.353 202.713 101.563 202.424 101.802C201.994 102.158 201.434 102.55 200.777 102.965C199.464 103.794 197.797 104.69 196.082 105.526C194.368 106.361 192.614 107.13 191.135 107.707C190.05 108.13 189.141 108.436 188.508 108.597C188.669 106.555 188.888 103.6 187.112 100.803C185.127 97.6772 180.751 94.8693 171.514 93.4809H171.513C169.674 93.1794 167.942 92.9788 166.392 92.7943C164.833 92.6087 163.469 92.4412 162.337 92.2064C161.196 91.9698 160.354 91.6768 159.804 91.2767C159.287 90.9013 159.02 90.4282 159.02 89.7357C159.02 89.1831 159.176 88.371 159.87 87.6937C160.565 87.0161 161.878 86.3959 164.36 86.3959Z" stroke="#73AFD7" stroke-miterlimit="10"/>
<path d="M157.162 81.7971C153.065 83.585 150.693 85.9853 149.385 88.5481C148.153 90.9626 147.89 93.4732 147.961 95.6526C147.597 95.2446 147.236 94.8445 146.884 94.4534C146.203 93.6971 145.554 92.974 144.967 92.2786C143.915 91.0308 143.098 89.9119 142.658 88.9016C146.586 86.4993 149.292 84.6043 151.803 83.3538C153.605 82.4563 155.272 81.9137 157.162 81.7971Z" stroke="#73AFD7" stroke-miterlimit="10"/>
<path d="M164.37 114.16C165.75 114.498 167.753 114.95 169.951 115.28C172.541 115.669 175.46 115.899 177.961 115.553C176.416 116.672 174.736 117.658 173.295 118.425C172.3 118.955 171.425 119.378 170.8 119.669C170.515 119.801 170.282 119.906 170.114 119.98C170.107 119.974 170.1 119.967 170.093 119.96C169.926 119.791 169.686 119.549 169.394 119.255C168.81 118.666 168.02 117.869 167.196 117.034C166.202 116.028 165.162 114.972 164.37 114.16Z" stroke="#73AFD7" stroke-miterlimit="10"/>
<path d="M162.808 102.935C165.967 102.467 169.035 101.886 172.251 102.423L172.896 102.545C174.752 102.941 175.789 103.614 176.287 104.281C176.768 104.926 176.782 105.612 176.491 106.206C175.912 107.386 174.026 108.304 171.844 107.278L171.632 107.173C169.067 105.828 166.266 105.321 163.746 105.471C161.451 105.608 159.351 106.294 157.871 107.43L154.19 102.917C157.141 103.674 160.003 103.352 162.808 102.935Z" stroke="#73AFD7" stroke-miterlimit="10"/>
<mask id="path-17-inside-1_18_2" fill="white">
<path d="M9.21601 3.89584C9.77601 8.01584 10.096 10.7358 9.93601 14.6958C13.976 12.6558 19.216 10.7758 24.256 10.1758C18.216 -8.86417 7.29601 -52.0642 4.85601 -55.8242C0.176006 -56.5042 -6.70399 -55.0642 -8.10399 -54.0242C-9.78399 -40.1442 -15.264 8.49583 -25.344 40.9358C-22.864 41.2158 -10.344 40.9358 -10.344 40.9358C-9.224 29.2558 -4.26399 6.89584 -4.26399 6.89584L10.736 3.57584L14.656 -5.10416L7.65601 -9.54417C6.57601 -6.82417 -3.424 -2.26416 -3.424 -2.26416L0.416004 -28.3842C0.416004 -28.3842 4.05601 -19.8242 6.85601 -8.38417"/>
</mask>
<path d="M9.93601 14.6958L8.93682 14.6555L8.86814 16.3553L10.3868 15.5885L9.93601 14.6958ZM24.256 10.1758L24.3742 11.1688L25.5748 11.0259L25.2092 9.87346L24.256 10.1758ZM4.85601 -55.8242L5.69486 -56.3685L5.4482 -56.7486L4.9998 -56.8138L4.85601 -55.8242ZM-8.10399 -54.0242L-8.70032 -54.8269L-9.04513 -54.5708L-9.09675 -54.1443L-8.10399 -54.0242ZM-25.344 40.9358L-26.299 40.6391L-26.6578 41.7939L-25.4562 41.9295L-25.344 40.9358ZM-10.344 40.9358L-10.3216 41.9356L-9.43337 41.9157L-9.34856 41.0313L-10.344 40.9358ZM-4.26399 6.89584L-4.48009 5.91946L-5.10226 6.05717L-5.24026 6.67928L-4.26399 6.89584ZM10.736 3.57584L10.9521 4.55221L11.4412 4.44395L11.6474 3.98742L10.736 3.57584ZM14.656 -5.10416L15.5674 -4.69258L15.9246 -5.48368L15.1916 -5.94862L14.656 -5.10416ZM7.65601 -9.54417L8.19163 -10.3886L7.17212 -11.0353L6.72659 -9.9132L7.65601 -9.54417ZM-3.424 -2.26416L-4.41336 -2.40961L-4.68056 -0.59211L-3.0091 -1.3543L-3.424 -2.26416ZM0.416004 -28.3842L1.33626 -28.7755L-0.0559082 -32.0494L-0.57336 -28.5296L0.416004 -28.3842ZM8.22512 4.03052C8.78342 8.13805 9.09314 10.7867 8.93682 14.6555L10.9352 14.7362C11.0989 10.685 10.7686 7.89362 10.2069 3.76115L8.22512 4.03052ZM10.3868 15.5885C14.3525 13.586 19.4792 11.7516 24.3742 11.1688L24.1378 9.18285C18.9528 9.8001 13.5996 11.7257 9.48526 13.8032L10.3868 15.5885ZM25.2092 9.87346C22.1964 0.376083 17.9635 -15.1573 14.1696 -28.8217C12.2747 -35.6461 10.4897 -42.0027 9.02517 -46.89C8.29314 -49.3328 7.63831 -51.4181 7.08784 -53.0154C6.55408 -54.5643 6.07937 -55.776 5.69486 -56.3685L4.01715 -55.2798C4.24264 -54.9323 4.64294 -53.9715 5.19698 -52.3638C5.73433 -50.8046 6.38012 -48.7493 7.10934 -46.3159C8.5673 -41.4506 10.3473 -35.1123 12.2425 -28.2866C16.0285 -14.651 20.2756 0.935585 23.3028 10.4782L25.2092 9.87346ZM4.9998 -56.8138C2.51909 -57.1742 -0.483137 -56.9696 -3.01516 -56.5561C-4.28853 -56.3481 -5.46784 -56.0833 -6.43011 -55.7987C-7.34971 -55.5267 -8.1953 -55.2021 -8.70032 -54.8269L-7.50767 -53.2214C-7.31269 -53.3663 -6.77328 -53.6116 -5.86287 -53.8809C-4.99515 -54.1375 -3.89946 -54.3852 -2.69282 -54.5822C-0.264849 -54.9787 2.51292 -55.1541 4.71222 -54.8346L4.9998 -56.8138ZM-9.09675 -54.1443C-10.7808 -40.2312 -16.2519 8.30511 -26.299 40.6391L-24.389 41.2326C-14.2761 8.68655 -8.78723 -40.0571 -7.11124 -53.904L-9.09675 -54.1443ZM-25.4562 41.9295C-24.1387 42.0783 -20.3083 42.0754 -16.9038 42.0408C-15.1804 42.0232 -13.5351 41.9969 -12.321 41.975C-11.7138 41.9641 -11.2142 41.9542 -10.8663 41.9471C-10.6924 41.9435 -10.5564 41.9407 -10.4637 41.9387C-10.4174 41.9377 -10.382 41.9369 -10.3581 41.9364C-10.3461 41.9361 -10.337 41.9359 -10.3309 41.9358C-10.3279 41.9357 -10.3256 41.9357 -10.324 41.9356C-10.3232 41.9356 -10.3227 41.9356 -10.3223 41.9356C-10.3221 41.9356 -10.3219 41.9356 -10.3218 41.9356C-10.3217 41.9356 -10.3216 41.9356 -10.344 40.9358C-10.3664 39.9361 -10.3664 39.9361 -10.3665 39.9361C-10.3666 39.9361 -10.3667 39.9361 -10.3669 39.9361C-10.3672 39.9361 -10.3678 39.9361 -10.3685 39.9361C-10.37 39.9362 -10.3722 39.9362 -10.3752 39.9363C-10.3812 39.9364 -10.3901 39.9366 -10.4019 39.9369C-10.4255 39.9374 -10.4607 39.9381 -10.5067 39.9391C-10.5987 39.9411 -10.734 39.944 -10.9073 39.9475C-11.2538 39.9546 -11.7517 39.9644 -12.357 39.9754C-13.5679 39.9972 -15.2076 40.0234 -16.9242 40.0409C-20.3997 40.0762 -24.0693 40.0734 -25.2318 39.9421L-25.4562 41.9295ZM-9.34856 41.0313C-8.79374 35.2453 -7.28273 26.7785 -5.90262 19.7279C-5.21384 16.2092 -4.55992 13.0544 -4.07818 10.7792C-3.83734 9.64177 -3.63959 8.72445 -3.50211 8.09177C-3.43337 7.77544 -3.37971 7.53027 -3.34326 7.36435C-3.32503 7.28139 -3.31112 7.21825 -3.30177 7.17592C-3.2971 7.15475 -3.29357 7.13879 -3.29122 7.12816C-3.29004 7.12285 -3.28916 7.11887 -3.28857 7.11623C-3.28828 7.11492 -3.28806 7.11394 -3.28792 7.1133C-3.28785 7.11298 -3.2878 7.11275 -3.28777 7.11259C-3.28773 7.11245 -3.28772 7.1124 -4.26399 6.89584C-5.24026 6.67928 -5.24029 6.67939 -5.24033 6.67959C-5.24037 6.67977 -5.24043 6.68006 -5.24051 6.68042C-5.24067 6.68114 -5.24091 6.6822 -5.24122 6.68359C-5.24184 6.68639 -5.24276 6.69053 -5.24397 6.69601C-5.24639 6.70697 -5.24999 6.72326 -5.25474 6.74475C-5.26423 6.78775 -5.2783 6.85159 -5.29668 6.93525C-5.33344 7.10257 -5.38743 7.34921 -5.4565 7.66709C-5.59465 8.30285 -5.79315 9.22365 -6.0348 10.3649C-6.51807 12.6473 -7.17415 15.8125 -7.86537 19.3437C-9.24525 26.3931 -10.7743 34.9464 -11.3394 40.8404L-9.34856 41.0313ZM-4.04789 7.87221L10.9521 4.55221L10.5199 2.59946L-4.48009 5.91946L-4.04789 7.87221ZM11.6474 3.98742L15.5674 -4.69258L13.7446 -5.51575L9.82464 3.16425L11.6474 3.98742ZM15.1916 -5.94862L8.19163 -10.3886L7.12038 -8.69971L14.1204 -4.25971L15.1916 -5.94862ZM6.72659 -9.9132C6.66293 -9.75286 6.49395 -9.49604 6.15516 -9.14987C5.82759 -8.81517 5.39274 -8.44851 4.87245 -8.06165C3.83224 -7.2882 2.52271 -6.48701 1.22129 -5.75605C-0.0755825 -5.02763 -1.34229 -4.38124 -2.28642 -3.91628C-2.75793 -3.68407 -3.14769 -3.49776 -3.41888 -3.36981C-3.55446 -3.30585 -3.66032 -3.25651 -3.73188 -3.22335C-3.76765 -3.20678 -3.79484 -3.19425 -3.81287 -3.18596C-3.82189 -3.18182 -3.82861 -3.17874 -3.83297 -3.17674C-3.83515 -3.17574 -3.83674 -3.17501 -3.83773 -3.17456C-3.83823 -3.17434 -3.83857 -3.17418 -3.83877 -3.17409C-3.83887 -3.17405 -3.8389 -3.17403 -3.83895 -3.17401C-3.83894 -3.17401 -3.8389 -3.17403 -3.424 -2.26416C-3.0091 -1.3543 -3.00898 -1.35435 -3.00882 -1.35442C-3.00871 -1.35447 -3.00852 -1.35456 -3.00831 -1.35466C-3.0079 -1.35484 -3.00733 -1.3551 -3.00661 -1.35543C-3.00518 -1.35608 -3.00315 -1.35701 -3.00051 -1.35822C-2.99525 -1.36063 -2.98762 -1.36413 -2.97768 -1.36869C-2.9578 -1.37783 -2.92871 -1.39124 -2.89098 -1.40872C-2.81552 -1.44369 -2.70549 -1.49498 -2.56551 -1.56102C-2.28562 -1.69307 -1.88568 -1.88425 -1.40282 -2.12205C-0.438206 -2.59709 0.862593 -3.2607 2.20072 -4.01228C3.53431 -4.76132 4.92727 -5.61013 6.06581 -6.45669C6.6349 -6.87983 7.15849 -7.31566 7.58451 -7.75097C7.99931 -8.1748 8.37909 -8.65548 8.58542 -9.17513L6.72659 -9.9132ZM-2.43463 -2.11871L1.40537 -28.2387L-0.57336 -28.5296L-4.41336 -2.40961L-2.43463 -2.11871ZM0.416004 -28.3842C-0.50425 -27.9928 -0.504274 -27.9929 -0.504286 -27.9929C-0.504271 -27.9929 -0.504269 -27.9929 -0.50424 -27.9928C-0.504181 -27.9927 -0.504066 -27.9924 -0.503899 -27.992C-0.503559 -27.9912 -0.503002 -27.9899 -0.502228 -27.9881C-0.500677 -27.9844 -0.498255 -27.9787 -0.494982 -27.9709C-0.488432 -27.9554 -0.478468 -27.9317 -0.465225 -27.8999C-0.43874 -27.8365 -0.399145 -27.7411 -0.347532 -27.615C-0.244305 -27.363 -0.0930176 -26.9885 0.0975952 -26.5027C0.478848 -25.531 1.01726 -24.1143 1.64301 -22.3413C2.89493 -18.7942 4.49439 -13.8267 5.88468 -8.14643L7.82734 -8.62191C6.41762 -14.3816 4.79708 -19.4141 3.529 -23.007C2.89475 -24.804 2.34816 -26.2424 1.95941 -27.2332C1.76503 -27.7286 1.61006 -28.1122 1.50329 -28.373C1.4499 -28.5033 1.40856 -28.603 1.38036 -28.6705C1.36626 -28.7043 1.35544 -28.7301 1.34804 -28.7476C1.34435 -28.7564 1.3415 -28.7631 1.33953 -28.7678C1.33855 -28.7701 1.33778 -28.7719 1.33723 -28.7732C1.33696 -28.7738 1.33674 -28.7743 1.33658 -28.7747C1.3365 -28.7749 1.33642 -28.7751 1.33638 -28.7752C1.33631 -28.7754 1.33626 -28.7755 0.416004 -28.3842Z" fill="#73AFD7" mask="url(#path-17-inside-1_18_2)"/>
<mask id="path-19-inside-2_18_2" fill="white">
<path d="M14.176 -25.2642C22.296 -24.6242 31.256 -15.9442 31.256 -1.70417C31.256 12.5358 20.536 25.0958 2.33603 25.0958C-1.22397 25.0958 -4.66397 24.9358 -7.82397 24.4958"/>
</mask>
<path d="M14.0975 -24.2673C21.581 -23.6774 30.256 -15.5477 30.256 -1.70417H32.256C32.256 -16.3407 23.011 -25.5709 14.2546 -26.2611L14.0975 -24.2673ZM30.256 -1.70417C30.256 11.9769 19.9904 24.0958 2.33603 24.0958V26.0958C21.0816 26.0958 32.256 13.0948 32.256 -1.70417H30.256ZM2.33603 24.0958C-1.1974 24.0958 -4.58773 23.9368 -7.68606 23.5054L-7.96188 25.4863C-4.74022 25.9349 -1.25055 26.0958 2.33603 26.0958V24.0958Z" fill="#73AFD7" mask="url(#path-19-inside-2_18_2)"/>
<path d="M199.88 -13.0623C198.278 -8.13751 193.52 -5.68282 188.739 -4.26352L188.466 -4.18246L188.396 -3.90707L184.628 11.0119L176.943 7.20816L176.368 6.92301L176.232 7.54996L174.562 15.2677L159.484 8.55875L159.216 8.43961L158.981 8.61539V8.61637H158.98L158.979 8.61734C158.978 8.61839 158.975 8.62016 158.972 8.62223C158.967 8.62634 158.959 8.63297 158.949 8.64078C158.927 8.65682 158.895 8.67982 158.855 8.71012C158.774 8.77073 158.658 8.8587 158.515 8.96598C158.23 9.18049 157.84 9.47447 157.42 9.79215C156.591 10.4188 155.639 11.1428 155.148 11.5304C153.212 12.9319 150.703 13.0194 148.478 12.4367C147.371 12.1468 146.357 11.6966 145.551 11.1828C144.99 10.8243 144.551 10.4467 144.249 10.09C146.306 9.2359 148.341 7.87408 150.474 6.55094C152.79 5.11469 155.266 3.69719 158.156 2.8693C159.717 3.6271 162.978 5.19131 165.895 6.58707C167.41 7.31206 168.833 7.99163 169.877 8.49039C170.398 8.73978 170.826 8.94436 171.123 9.08609C171.271 9.15689 171.387 9.21163 171.465 9.24918L171.578 9.30289L171.586 9.3068L172.212 9.60563L172.297 8.91715L173.396 0.0499611L181.108 4.56754L181.686 4.90543L181.846 4.25602L181.361 4.1359C181.804 4.24518 181.843 4.25428 181.846 4.25504L181.847 4.25309C181.848 4.25172 181.848 4.24969 181.848 4.24723C181.85 4.24157 181.852 4.23294 181.855 4.22184C181.861 4.19942 181.869 4.16568 181.88 4.12223C181.901 4.03533 181.932 3.90779 181.972 3.74527C182.053 3.41995 182.168 2.95418 182.306 2.39273C182.584 1.26978 182.957 -0.236211 183.337 -1.7684C184.003 -4.45554 184.689 -7.20563 184.928 -8.12777C188.318 -8.93262 194.817 -10.8808 199.88 -13.0623Z" stroke="#73AFD7" stroke-miterlimit="10"/>
<path d="M143.734 0.147411C147.215 -1.46503 149.629 -1.68391 151.258 -1.32134C152.568 -1.02962 153.412 -0.351997 153.93 0.356396C151.506 1.28559 148.081 3.16798 145.619 4.57026L144.552 5.18257L144.549 5.18452C142.15 6.589 140.557 6.68985 139.406 6.1396C138.339 5.62912 137.506 4.49737 136.759 2.88179C137.697 2.68421 138.824 2.28813 139.923 1.84468C141.313 1.2838 142.715 0.628194 143.734 0.148388L143.734 0.147411Z" stroke="#73AFD7" stroke-miterlimit="10"/>
<path d="M200.152 -39.1631C200.571 -36.2677 200.214 -33.9503 199.328 -32.0332C198.386 -29.9946 196.829 -28.3646 194.88 -26.9648C192.927 -25.5627 190.602 -24.4064 188.149 -23.3037C185.716 -22.2096 183.129 -21.1565 180.742 -19.9932L180.442 -19.8477L180.462 -19.5146C180.679 -15.8119 180.146 -11.3266 179.553 -7.74609C179.257 -5.96019 178.948 -4.40729 178.712 -3.30176C178.624 -2.88958 178.544 -2.54022 178.481 -2.26367L170.29 -8.07227L169.588 -8.57031L169.504 -7.71289L168.573 1.7002L156.255 -4.11621C152.275 -6.0624 147.591 -6.0199 143.652 -3.98828L143.633 -3.97852C143.348 -3.81554 143.093 -3.67017 142.844 -3.56348L142.824 -3.55566L142.806 -3.54492C137.775 -0.862018 134.793 -1.08548 132.953 -2.21973C131.228 -3.2834 130.341 -5.23706 129.757 -6.94238C131.481 -7.51909 134.484 -8.78797 137.668 -10.1973C140.315 -11.3688 143.111 -12.6468 145.449 -13.7275L147.612 -14.7305L147.614 -14.7314C149.499 -15.6181 151.676 -15.4702 153.412 -14.3623V-14.3633C155.225 -13.1949 157.14 -12.0953 158.873 -11.2314C160.595 -10.3728 162.174 -9.72788 163.3 -9.49414L164.032 -9.34277L163.893 -10.0781C163.821 -10.4546 163.751 -11.4717 163.69 -12.8398C163.631 -14.1889 163.581 -15.8329 163.541 -17.4268C163.501 -19.02 163.471 -20.5611 163.451 -21.7041C163.446 -21.9964 163.441 -22.2627 163.438 -22.4971L172.381 -14.1777L172.877 -13.7168L173.171 -14.3262C174.301 -16.6644 175.05 -20.3429 174.701 -24.1953L174.617 -24.9678C174.417 -26.5333 175.185 -28.0052 176.534 -28.6387L176.812 -28.7539L176.816 -28.7559C180.744 -30.2263 185.491 -32.5905 189.854 -34.7148C193.953 -36.7104 197.68 -38.4754 200.152 -39.1631Z" stroke="#73AFD7" stroke-miterlimit="10"/>
<path d="M129.767 13.7745L124.04 24.4601L123.865 24.7872L124.128 25.0489L124.482 24.6954L124.128 25.0499H124.129L124.13 25.0518L124.154 25.0753C124.169 25.0906 124.193 25.112 124.222 25.1397C124.281 25.1954 124.366 25.2751 124.476 25.3731C124.696 25.5697 125.017 25.8422 125.418 26.1485C126.158 26.713 127.186 27.3982 128.388 27.9425C128.366 28.166 128.286 28.4491 128.138 28.7843C127.934 29.2451 127.636 29.7378 127.32 30.1974C127.005 30.6546 126.682 31.0669 126.437 31.3653C126.384 31.4297 126.333 31.4873 126.288 31.5401L122.845 29.6192L122.404 29.3731L122.162 29.8175L118.753 36.0909C118.675 36.0947 118.574 36.0916 118.444 36.0743C118.201 36.042 117.906 35.9687 117.572 35.8604C116.903 35.644 116.127 35.3048 115.38 34.9415C114.636 34.5795 113.935 34.2002 113.419 33.9112C113.256 33.8201 113.113 33.7366 112.992 33.6671L116.801 26.6544L117.037 26.2179L116.603 25.9776L105.877 20.0577L107.829 16.461L124.076 10.6427L129.767 13.7745Z" stroke="#73AFD7" stroke-miterlimit="10"/>
<path d="M118.122 21.3327L113.694 18.8767L120.821 16.3601L118.122 21.3327Z" stroke="#73AFD7" stroke-miterlimit="10"/>
<path d="M110.388 4.34167C114.621 2.6957 119.595 2.38015 124.304 4.80945L124.759 5.05261L124.76 5.05359C127.354 6.48846 131.604 9.58453 134.273 14.0087C136.924 18.4014 138.027 24.1126 134.362 30.8973C131.664 35.864 127.852 38.6759 123.365 39.5096C119.001 40.3206 113.928 39.2724 108.527 36.3837L108.004 36.0985H108.003C102.468 33.0387 99.9204 28.4758 99.1387 23.951C98.4024 19.689 99.2352 15.4619 100.634 12.5741L100.921 12.0145C102.475 9.15597 106.003 6.04664 110.388 4.34167Z" stroke="#73AFD7" stroke-miterlimit="10"/>
<path d="M63.8133 -30.1985C74.0291 -31.6148 81.3107 -28.527 86.3709 -23.2678C91.4502 -17.9887 94.3324 -10.4762 95.6268 -2.9895L95.7469 -2.26587L95.7479 -2.26392C96.9765 5.30343 94.0201 11.8586 89.0184 16.8259C84.0088 21.801 76.9668 25.1573 70.1199 26.282C56.5105 28.5175 42.4113 19.7406 39.7752 3.21753C37.1355 -13.3296 46.7323 -27.3784 62.8817 -30.011L63.8445 -30.1672L63.8133 -30.1985Z" stroke="#73AFD7" stroke-miterlimit="10"/>
<path d="M59.2747 -24.7367C59.7261 -21.8049 61.1255 -12.0877 62.6419 -2.10389C64.1892 8.08409 65.8661 18.584 66.7776 22.319C62.6159 22.8231 57.7096 21.2986 53.5423 18.152C49.3375 14.977 45.9315 10.1845 44.8343 4.27306L44.7346 3.69786V3.69689C43.8085 -2.1166 44.5011 -8.61485 46.97 -13.9799C49.3659 -19.1862 53.4188 -23.2984 59.2747 -24.7367Z" stroke="#73AFD7" stroke-miterlimit="10"/>
<path d="M68.2036 -26.3181C73.1703 -26.9057 78.1127 -24.2882 82.1324 -19.8962C86.146 -15.5107 89.1691 -9.42412 90.2857 -3.26144L90.3872 -2.66476C91.3985 3.6168 89.031 9.27767 85.5933 13.5159C82.3252 17.545 78.1527 20.2107 75.1382 20.9026L68.2036 -26.3181Z" stroke="#73AFD7" stroke-miterlimit="10"/>
<path d="M49.436 -2.6112C50.6065 -2.13175 52.1755 -1.48327 53.77 -0.804556C55.3657 -0.125318 56.983 0.582776 58.2515 1.17884C58.8862 1.4771 59.4278 1.74437 59.8335 1.96498C60.0242 2.06865 60.1798 2.15947 60.2983 2.23548C60.1819 2.49304 59.9753 2.75252 59.6655 3.00501C59.2448 3.34787 58.6675 3.65352 57.9829 3.90638C56.653 4.39755 54.997 4.65625 53.5083 4.63587C53.0856 4.35282 52.5714 3.84147 52.0181 3.16029C51.4245 2.4296 50.8146 1.54181 50.2583 0.626108C49.7022 -0.289264 49.2042 -1.22433 48.8325 -2.04577C48.6712 -2.40227 48.5384 -2.72972 48.4341 -3.0194C48.7173 -2.9043 49.0558 -2.76695 49.436 -2.6112Z" stroke="#73AFD7" stroke-miterlimit="10"/>
<path d="M84.5379 -8.92944C84.5254 -8.6214 84.501 -8.27063 84.4579 -7.88647C84.3565 -6.98471 84.1747 -5.93742 83.9334 -4.89136C83.6921 -3.84466 83.3932 -2.80822 83.0594 -1.92651C82.7475 -1.10262 82.4179 -0.454387 82.1024 -0.0515118C80.7029 0.440834 79.0639 0.722565 77.6561 0.68091C76.9313 0.659451 76.2897 0.553799 75.7821 0.363527C75.4099 0.223952 75.1292 0.0457246 74.9334 -0.160887C75.0236 -0.272479 75.1447 -0.409215 75.2948 -0.570066C75.6127 -0.910813 76.0446 -1.33925 76.5545 -1.82593C77.5735 -2.79834 78.8873 -3.98667 80.1883 -5.14038C81.4884 -6.29324 82.7728 -7.40927 83.7323 -8.23706C84.0368 -8.49975 84.3089 -8.7329 84.5379 -8.92944Z" stroke="#73AFD7" stroke-miterlimit="10"/>
<mask id="path-32-inside-3_18_2" fill="white">
<path d="M207.561 44.7758C208.361 47.1758 208.841 48.7358 209.201 51.0958C211.361 49.4158 214.281 47.6958 217.201 46.7358C211.441 36.0958 200.041 11.6958 198.161 9.73584C195.321 9.89584 191.361 11.5358 190.641 12.2958C191.201 20.7358 193.481 50.2958 191.161 70.7758C192.681 70.6558 200.081 69.0158 200.081 69.0158C199.401 61.9358 199.841 48.0558 199.841 48.0558L208.401 44.3358L209.761 38.7358L205.081 36.8958C204.721 38.6158 199.321 42.4958 199.321 42.4958L198.641 26.5358C198.641 26.5358 201.761 31.2158 204.721 37.6958"/>
</mask>
<path d="M209.201 51.0958L208.212 51.2466L208.469 52.9317L209.815 51.8852L209.201 51.0958ZM217.201 46.7358L217.513 47.6858L218.65 47.3121L218.08 46.2598L217.201 46.7358ZM198.161 9.73584L198.882 9.04361L198.564 8.71154L198.105 8.73742L198.161 9.73584ZM190.641 12.2958L189.915 11.6081L189.614 11.9256L189.643 12.362L190.641 12.2958ZM191.161 70.7758L190.167 70.6633L190.031 71.8682L191.239 71.7727L191.161 70.7758ZM200.081 69.0158L200.297 69.9921L201.161 69.8008L201.076 68.9202L200.081 69.0158ZM199.841 48.0558L199.442 47.1387L198.861 47.3911L198.841 48.0242L199.841 48.0558ZM208.401 44.3358L208.799 45.253L209.255 45.0549L209.372 44.5718L208.401 44.3358ZM209.761 38.7358L210.732 38.9718L210.938 38.1243L210.127 37.8052L209.761 38.7358ZM205.081 36.8958L205.447 35.9652L204.345 35.5319L204.102 36.691L205.081 36.8958ZM199.321 42.4958L198.322 42.5384L198.4 44.3884L199.904 43.3079L199.321 42.4958ZM198.641 26.5358L199.473 25.9811L197.489 23.0061L197.642 26.5784L198.641 26.5358ZM206.612 45.0921C207.407 47.4766 207.865 48.9722 208.212 51.2466L210.189 50.945C209.816 48.4995 209.315 46.8751 208.509 44.4596L206.612 45.0921ZM209.815 51.8852C211.905 50.2593 214.725 48.6025 217.513 47.6858L216.888 45.7859C213.837 46.7892 210.816 48.5724 208.587 50.3065L209.815 51.8852ZM218.08 46.2598C215.211 40.9604 210.933 32.225 207.122 24.5367C205.219 20.6997 203.434 17.125 202.006 14.3854C201.292 13.0164 200.662 11.847 200.15 10.9539C199.662 10.1052 199.218 9.39375 198.882 9.04361L197.439 10.4281C197.573 10.5679 197.897 11.0478 198.415 11.9501C198.908 12.8082 199.523 13.9497 200.232 15.3101C201.65 18.0292 203.427 21.5869 205.33 25.425C209.128 33.0867 213.43 41.8713 216.321 47.2119L218.08 46.2598ZM198.105 8.73742C196.547 8.82515 194.744 9.3097 193.262 9.85172C192.514 10.1253 191.825 10.422 191.266 10.7065C190.747 10.9709 190.224 11.2813 189.915 11.6081L191.367 12.9836C191.366 12.9846 191.37 12.9803 191.38 12.9709C191.391 12.9616 191.406 12.9491 191.426 12.9333C191.467 12.9013 191.523 12.8615 191.596 12.8145C191.743 12.7201 191.936 12.6099 192.174 12.4889C192.649 12.2472 193.262 11.9814 193.949 11.73C195.338 11.222 196.934 10.8065 198.217 10.7343L198.105 8.73742ZM189.643 12.362C190.205 20.8385 192.475 50.2934 190.167 70.6633L192.154 70.8884C194.487 50.2983 192.196 20.6332 191.639 12.2296L189.643 12.362ZM191.239 71.7727C192.08 71.7064 194.39 71.2474 196.395 70.8298C197.418 70.6166 198.394 70.4072 199.113 70.2512C199.472 70.1732 199.768 70.1085 199.974 70.0633C200.077 70.0407 200.158 70.0229 200.213 70.0108C200.24 70.0047 200.261 70.0001 200.275 69.997C200.283 69.9954 200.288 69.9942 200.292 69.9934C200.293 69.993 200.295 69.9927 200.296 69.9925C200.296 69.9924 200.296 69.9923 200.297 69.9922C200.297 69.9922 200.297 69.9922 200.297 69.9922C200.297 69.9922 200.297 69.9921 200.081 69.0158C199.864 68.0395 199.864 68.0395 199.864 68.0395C199.864 68.0396 199.864 68.0396 199.864 68.0396C199.864 68.0396 199.864 68.0397 199.863 68.0398C199.862 68.04 199.861 68.0403 199.859 68.0407C199.856 68.0414 199.85 68.0426 199.844 68.0441C199.83 68.0472 199.809 68.0518 199.782 68.0578C199.728 68.0697 199.648 68.0873 199.545 68.1098C199.341 68.1547 199.047 68.2191 198.689 68.2967C197.973 68.4519 197.003 68.6601 195.987 68.8719C193.911 69.3043 191.762 69.7253 191.082 69.7789L191.239 71.7727ZM201.076 68.9202C200.742 65.4363 200.681 60.2422 200.706 55.8866C200.718 53.7157 200.752 51.7649 200.782 50.3569C200.798 49.653 200.812 49.085 200.823 48.6933C200.828 48.4974 200.832 48.3456 200.836 48.243C200.837 48.1917 200.838 48.1526 200.839 48.1265C200.839 48.1135 200.84 48.1036 200.84 48.0971C200.84 48.0938 200.84 48.0914 200.84 48.0898C200.84 48.089 200.84 48.0884 200.84 48.088C200.84 48.0878 200.84 48.0877 200.84 48.0876C200.84 48.0875 200.84 48.0875 199.841 48.0558C198.841 48.0242 198.841 48.0242 198.841 48.0244C198.841 48.0245 198.841 48.0247 198.841 48.0249C198.841 48.0254 198.841 48.0261 198.841 48.0269C198.841 48.0287 198.841 48.0313 198.841 48.0348C198.841 48.0416 198.84 48.0518 198.84 48.0652C198.839 48.0921 198.838 48.1318 198.836 48.1839C198.833 48.288 198.829 48.4414 198.824 48.6389C198.813 49.0339 198.798 49.6056 198.783 50.3135C198.752 51.7293 198.718 53.691 198.706 55.8751C198.681 60.2295 198.74 65.5154 199.085 69.1114L201.076 68.9202ZM200.239 48.973L208.799 45.253L208.002 43.4187L199.442 47.1387L200.239 48.973ZM209.372 44.5718L210.732 38.9718L208.789 38.4998L207.429 44.0998L209.372 44.5718ZM210.127 37.8052L205.447 35.9652L204.715 37.8265L209.395 39.6665L210.127 37.8052ZM204.102 36.691C204.096 36.7213 204.053 36.8442 203.9 37.0721C203.756 37.2865 203.551 37.5384 203.293 37.8196C202.776 38.3817 202.102 38.9977 201.418 39.5787C200.738 40.1564 200.067 40.6838 199.563 41.0678C199.312 41.2594 199.104 41.4144 198.96 41.5211C198.888 41.5744 198.831 41.6156 198.793 41.6432C198.774 41.657 198.76 41.6674 198.75 41.6742C198.746 41.6776 198.742 41.6802 198.74 41.6817C198.739 41.6825 198.738 41.6831 198.738 41.6834C198.737 41.6836 198.737 41.6837 198.737 41.6838C198.737 41.6838 198.737 41.6838 198.737 41.6838C198.737 41.6838 198.737 41.6837 199.321 42.4958C199.904 43.3079 199.904 43.3079 199.904 43.3078C199.905 43.3078 199.905 43.3077 199.905 43.3076C199.905 43.3074 199.905 43.3071 199.906 43.3068C199.907 43.3062 199.908 43.3054 199.909 43.3043C199.912 43.3022 199.917 43.2991 199.922 43.2951C199.933 43.2871 199.949 43.2755 199.97 43.2605C200.011 43.2304 200.071 43.1866 200.147 43.1305C200.299 43.0183 200.516 42.8567 200.777 42.6577C201.297 42.2604 201.998 41.7103 202.713 41.103C203.424 40.4989 204.168 39.8224 204.765 39.1733C205.063 38.8489 205.34 38.5155 205.56 38.1885C205.771 37.8749 205.976 37.5004 206.06 37.1007L204.102 36.691ZM200.32 42.4533L199.64 26.4933L197.642 26.5784L198.322 42.5384L200.32 42.4533ZM198.641 26.5358C197.809 27.0905 197.809 27.0905 197.809 27.0904C197.809 27.0904 197.809 27.0904 197.809 27.0904C197.809 27.0905 197.809 27.0906 197.809 27.0907C197.809 27.0911 197.809 27.0917 197.81 27.0926C197.811 27.0945 197.813 27.0974 197.816 27.1015C197.821 27.1097 197.83 27.1223 197.841 27.1393C197.863 27.1733 197.897 27.2249 197.941 27.2933C198.03 27.43 198.161 27.6341 198.327 27.8997C198.661 28.4312 199.137 29.2089 199.706 30.1881C200.844 32.1474 202.348 34.9079 203.811 38.1113L205.63 37.2803C204.134 34.0038 202.597 31.1843 201.435 29.1836C200.854 28.1827 200.366 27.3855 200.022 26.8369C199.85 26.5626 199.713 26.3504 199.62 26.2059C199.573 26.1337 199.537 26.0783 199.512 26.0406C199.5 26.0218 199.49 26.0074 199.484 25.9974C199.48 25.9924 199.478 25.9886 199.476 25.9859C199.475 25.9845 199.474 25.9834 199.474 25.9826C199.474 25.9823 199.473 25.9819 199.473 25.9817C199.473 25.9816 199.473 25.9814 199.473 25.9814C199.473 25.9812 199.473 25.9811 198.641 26.5358Z" fill="#73AFD7" mask="url(#path-32-inside-3_18_2)"/>
<mask id="path-34-inside-4_18_2" fill="white">
<path d="M192.081 58.0958C187.961 56.5758 184.921 53.0158 183.601 46.0558C181.401 34.6158 191.641 27.7758 191.641 27.7758"/>
</mask>
<path d="M183.601 46.0558L184.583 45.8695L184.583 45.867L183.601 46.0558ZM192.427 57.1577C188.726 55.7923 185.858 52.5901 184.583 45.8695L182.618 46.2422C183.984 53.4415 187.196 57.3594 191.735 59.034L192.427 57.1577ZM184.583 45.867C183.551 40.501 185.426 36.2083 187.604 33.2142C188.695 31.7161 189.853 30.5563 190.738 29.7719C191.18 29.3804 191.552 29.0844 191.81 28.8885C191.939 28.7906 192.039 28.7178 192.105 28.6707C192.139 28.6472 192.163 28.6301 192.178 28.6195C192.186 28.6142 192.192 28.6106 192.195 28.6085C192.196 28.6075 192.197 28.6069 192.197 28.6067C192.197 28.6066 192.197 28.6066 192.197 28.6068C192.197 28.6068 192.197 28.607 192.197 28.607C192.197 28.6072 192.196 28.6074 191.641 27.7758C191.085 26.9443 191.085 26.9446 191.084 26.9448C191.084 26.945 191.084 26.9453 191.083 26.9456C191.083 26.9461 191.082 26.9467 191.081 26.9475C191.078 26.9489 191.076 26.9508 191.072 26.9531C191.065 26.9578 191.056 26.9641 191.044 26.9721C191.021 26.9881 190.989 27.0108 190.947 27.0402C190.865 27.0989 190.747 27.1842 190.6 27.2957C190.307 27.5185 189.896 27.8463 189.412 28.2748C188.446 29.1304 187.182 30.3956 185.987 32.0374C183.596 35.3234 181.451 40.1707 182.619 46.2447L184.583 45.867Z" fill="#73AFD7" mask="url(#path-34-inside-4_18_2)"/>
<mask id="path-36-inside-5_18_2" fill="white">
<path d="M207.201 26.8558C212.081 26.2958 218.401 30.4158 220.041 38.8958C221.681 47.3758 216.721 56.0558 205.881 58.1758C203.761 58.5758 201.721 58.8958 199.761 59.0158"/>
</mask>
<path d="M205.881 58.1758L206.066 59.1585L206.073 59.1573L205.881 58.1758ZM207.315 27.8493C211.558 27.3624 217.494 30.9932 219.059 39.0857L221.023 38.706C219.308 29.8384 212.604 25.2292 207.087 25.8624L207.315 27.8493ZM219.059 39.0857C220.592 47.0123 216 55.1779 205.689 57.1944L206.073 59.1573C217.442 56.9338 222.77 47.7393 221.023 38.706L219.059 39.0857ZM205.695 57.1932C203.59 57.5903 201.598 57.9015 199.7 58.0177L199.822 60.014C201.844 59.8902 203.931 59.5614 206.066 59.1585L205.695 57.1932Z" fill="#73AFD7" mask="url(#path-36-inside-5_18_2)"/>
<path d="M41.8779 26.1942C41.8658 26.3593 41.8498 26.5829 41.8301 26.8583C41.7841 27.4986 41.7189 28.4206 41.6426 29.5477C41.49 31.8021 41.2924 34.8779 41.1123 38.163C40.781 44.2045 40.5061 51.0005 40.6875 54.6747L32.1074 50.5428C33.0915 46.6898 33.6484 42.6939 33.959 39.6317C34.1198 38.0461 34.2152 36.7072 34.2705 35.7645C34.2982 35.2931 34.3154 34.9202 34.3262 34.6649C34.3315 34.5377 34.3356 34.4396 34.3379 34.3729C34.339 34.3397 34.3403 34.314 34.3408 34.2968V34.2694L34.3691 33.2694L33.5527 33.8475L18.5732 44.4628L11.3877 40.8876L35.2549 22.9198L41.8779 26.1942Z" stroke="#73AFD7" stroke-miterlimit="10"/>
<path d="M163.089 21.8525C164.38 22.4924 165.66 23.2977 166.848 24.1592C168.231 25.1625 169.466 26.2228 170.42 27.1377C171.227 27.912 171.812 28.5636 172.119 28.9795C171.33 30.2936 169.793 32.0136 168.305 33.5205C166.731 35.1139 165.274 36.4105 164.937 36.667L161.822 39.0312L165.392 37.4365C167.843 36.3417 170.948 35.8859 173.817 36.3457C175.959 38.3005 179.833 43.3454 179.533 53.043C178.425 46.4069 175.818 40.8613 173.106 37.9902L173.016 37.8945L172.888 37.8623L172.668 37.8154C171.556 37.6116 170.23 37.8793 169.098 38.2422C167.873 38.6346 166.782 39.1694 166.259 39.4854L164.415 40.5986L166.551 40.3164C167.454 40.1968 168.509 40.2651 169.443 40.4102C170.313 40.5451 171.035 40.741 171.402 40.8857C172.253 41.8025 173.504 43.3737 174.316 45.748C174.887 47.4145 175.245 49.4884 175.09 52.0244C174.791 50.5009 174.324 48.9931 173.798 47.6416C173.304 46.3731 172.754 45.2281 172.235 44.3213C171.726 43.4313 171.221 42.7233 170.803 42.3711L170.706 42.2891L170.581 42.2705L170.194 42.2188C169.272 42.1144 168.221 42.1209 167.276 42.2363C166.736 42.3024 166.218 42.406 165.772 42.5498C165.335 42.6909 164.927 42.8829 164.643 43.1514L164.236 43.5352L164.697 43.8506C169.48 47.1247 172.823 53.3462 170.964 58.7441C165.43 58.8339 160.012 54.8101 157.808 49.5508L157.568 48.9805L157.099 49.3838C156.815 49.6274 156.567 49.9843 156.354 50.3809C156.137 50.7835 155.941 51.2557 155.772 51.7549C155.437 52.7511 155.199 53.891 155.135 54.8701L155.127 54.9951L155.184 55.1064C155.437 55.5961 156.016 56.2468 156.771 56.9385C157.54 57.6424 158.533 58.4254 159.659 59.1797C160.834 59.9664 162.168 60.7288 163.556 61.3379C161.109 60.9351 159.204 60.1508 157.728 59.25C155.592 57.947 154.329 56.39 153.613 55.3584C153.55 54.9791 153.515 54.2362 153.568 53.3564C153.626 52.4129 153.782 51.3646 154.084 50.5059L154.776 48.5342L153.333 50.0459C152.922 50.4761 152.164 51.4289 151.516 52.5518C150.876 53.6603 150.296 55.0174 150.344 56.2334L150.349 56.3623L150.421 56.4688C152.658 59.7634 157.474 63.4712 163.678 65.9746C154.175 64.1621 150.14 59.3142 148.684 56.7861C148.835 53.8696 149.987 50.9505 151.585 48.7539L153.911 45.5566L150.926 48.1494C150.611 48.423 149.041 49.565 147.151 50.7627C145.367 51.8934 143.36 53.0309 141.9 53.5332C141.564 53.1469 141.06 52.4414 140.483 51.4912C139.8 50.3645 139.036 48.9296 138.357 47.3604C137.765 45.989 137.247 44.5344 136.9 43.1035C138.273 46.8823 140.514 49.6629 141.835 50.9736L141.994 51.1309L142.216 51.0996C142.426 51.0698 142.668 50.9847 142.915 50.8779C143.169 50.7682 143.457 50.6228 143.767 50.4521C144.387 50.1105 145.117 49.6563 145.875 49.1572C147.393 48.1582 149.048 46.9631 150.208 46.0889L152.573 44.3066L149.786 45.3057C148.316 45.8326 145.455 46.5107 143.209 46.4316C141.938 45.0642 140.595 42.2665 139.946 39.1631C139.502 37.0404 139.396 34.8394 139.82 32.9102C139.838 35.0984 140.284 37.1948 140.887 38.9941C141.759 41.5975 142.985 43.6425 143.799 44.4736L143.924 44.6006L144.103 44.6084C144.294 44.6159 144.54 44.5796 144.801 44.5254C145.071 44.4692 145.391 44.3862 145.74 44.2812C146.44 44.0712 147.281 43.7696 148.134 43.4111C148.986 43.0529 149.858 42.6345 150.616 42.1885C151.366 41.7473 152.04 41.2591 152.464 40.7539L152.972 40.1494L152.192 40.0205C151.86 39.9655 151.422 39.7355 150.994 39.3359C150.572 38.9425 150.194 38.4167 149.967 37.8252C149.74 37.2362 149.666 36.5924 149.83 35.9482C149.993 35.3069 150.402 34.6281 151.204 33.9795C152.006 33.3312 152.75 33.0814 153.402 33.0645C154.057 33.0475 154.661 33.2646 155.181 33.6191C155.702 33.9752 156.128 34.4633 156.414 34.9629C156.705 35.4712 156.827 35.9463 156.804 36.2715L156.744 37.0879L157.465 36.7002C158.046 36.388 158.664 35.8285 159.255 35.1836C159.852 34.5316 160.447 33.7622 160.979 33C161.511 32.2375 161.985 31.4749 162.339 30.8311C162.515 30.5095 162.664 30.2131 162.775 29.959C162.883 29.7141 162.97 29.4771 163.001 29.2852L163.028 29.1143L162.934 28.9688C162.305 27.9989 160.586 26.3538 158.239 24.9336C156.587 23.9339 154.596 23.0298 152.414 22.5469C154.417 22.51 156.576 23.0839 158.58 23.9883C161.456 25.2863 163.884 27.2089 164.945 28.7617C164.537 30.9883 163.287 33.6674 162.438 34.9521L160.666 37.6309L163.105 35.542C164.202 34.6026 165.718 33.237 167.016 31.96C167.664 31.3218 168.262 30.7004 168.729 30.1631C168.961 29.8946 169.166 29.6425 169.327 29.416C169.485 29.1954 169.619 28.9757 169.693 28.7764L169.772 28.5664L169.651 28.377C168.643 26.8002 166.458 24.0113 163.089 21.8525Z" stroke="#73AFD7" stroke-width="0.9" stroke-miterlimit="10"/>
<path d="M-10.374 57.907C-6.16952 53.1649 -0.185498 50.0832 7.8916 50.5535V50.5544C19.5839 51.2513 31.9939 60.8953 30.9629 75.4304L30.9043 76.1267L30.9033 76.1277C30.073 84.6671 27.0322 90.0533 22.5146 93.2166C17.9777 96.3933 11.8607 97.3936 4.75195 96.9568C-2.362 96.5196 -8.57818 94.7928 -12.7354 91.3601C-16.8568 87.9568 -19.0219 82.8203 -17.9434 75.3679C-17.0333 69.1162 -14.5927 62.6653 -10.374 57.907Z" stroke="#73AFD7" stroke-miterlimit="10"/>
<path d="M7.65607 61.5534V61.5553C11.0996 61.7295 14.0676 63.0602 16.1375 65.3923C18.2073 67.7243 19.4178 71.1023 19.2615 75.4382C19.1084 79.6851 17.0821 82.1132 14.4578 83.5417C12.1281 84.8098 9.3129 85.2943 6.87482 85.4889L5.85529 85.5563C3.22855 85.6946 0.043507 85.4495 -2.47089 83.9001C-4.94193 82.3773 -6.85858 79.5352 -6.85858 74.2555C-6.85852 69.9017 -4.92936 66.6549 -2.15448 64.528C0.622387 62.3997 4.25554 61.3888 7.65607 61.5534Z" stroke="#73AFD7" stroke-miterlimit="10"/>
<path d="M8.47601 69.6157L8.56879 69.9897L8.95355 69.9956L15.6684 70.0942L10.6508 74.0639L10.3598 74.2944L10.4965 74.6391L12.9477 80.851L6.10199 76.6694L5.79828 76.4838L5.52289 76.7104L-0.358948 81.561L1.28461 75.3432L1.36664 75.0327L1.11859 74.8295L-3.76813 70.8178L3.45844 69.9926L3.71039 69.9633L3.83539 69.7436L7.09515 64.0288L8.47601 69.6157Z" stroke="#73AFD7" stroke-miterlimit="10"/>
<path d="M309.626 57.907C313.83 53.1649 319.815 50.0832 327.892 50.5535V50.5544C339.584 51.2513 351.994 60.8953 350.963 75.4304L350.904 76.1267L350.903 76.1277C350.073 84.6671 347.032 90.0533 342.515 93.2166C337.978 96.3933 331.861 97.3936 324.752 96.9568C317.638 96.5196 311.422 94.7928 307.265 91.3601C303.143 87.9568 300.978 82.8203 302.057 75.3679C302.967 69.1162 305.407 62.6653 309.626 57.907Z" stroke="#73AFD7" stroke-miterlimit="10"/>
<path d="M327.656 61.5534V61.5553C331.1 61.7295 334.068 63.0602 336.138 65.3923C338.207 67.7243 339.418 71.1023 339.262 75.4382C339.108 79.6851 337.082 82.1132 334.458 83.5417C332.128 84.8098 329.313 85.2943 326.875 85.4889L325.855 85.5563C323.229 85.6946 320.044 85.4495 317.529 83.9001C315.058 82.3773 313.141 79.5352 313.141 74.2555C313.142 69.9017 315.071 66.6549 317.846 64.528C320.622 62.3997 324.256 61.3888 327.656 61.5534Z" stroke="#73AFD7" stroke-miterlimit="10"/>
<path d="M328.476 69.6157L328.569 69.9897L328.954 69.9956L335.637 70.0942L330.65 74.0649L330.362 74.2944L330.496 74.6372L332.916 80.851L326.103 76.6694L325.798 76.4829L325.523 76.7104L319.641 81.561L321.285 75.3432L321.367 75.0327L321.119 74.8295L316.232 70.8178L323.458 69.9926L323.71 69.9633L323.835 69.7436L327.095 64.0288L328.476 69.6157Z" stroke="#73AFD7" stroke-miterlimit="10"/>
<path d="M285.129 92.5832C287.102 94.7219 291.119 97.4355 295.125 99.8254C298.916 102.087 302.766 104.1 305.01 105.127C304.253 106.112 302.725 108.206 300.772 110.927C298.323 114.339 295.181 118.77 291.987 123.323C285.916 131.981 279.634 141.123 277.601 144.539C275.848 143.389 272.565 141.812 268.562 140.041C264.158 138.093 258.824 135.884 253.558 133.704C248.288 131.524 243.089 129.373 238.943 127.541C236.871 126.625 235.067 125.791 233.654 125.074C232.533 124.506 231.687 124.024 231.146 123.646C233.643 120.425 240.99 109.997 243.274 105.935C244.333 105.377 246.835 104.362 250.187 103.122C253.687 101.827 258.07 100.299 262.593 98.8107C271.485 95.8842 280.847 93.1351 285.129 92.5832Z" stroke="#73AFD7" stroke-miterlimit="10"/>
<path d="M276.417 100.053C276.624 100.457 276.787 101.001 276.872 101.588C276.942 102.066 276.954 102.537 276.916 102.94C275.482 102.278 273.567 101.93 271.979 101.744C271.762 101.718 271.55 101.696 271.344 101.676L276.417 100.053Z" stroke="#73AFD7" stroke-miterlimit="10"/>
<path d="M284.808 99.1133C287.657 100.769 295.683 105.214 297.687 106.355C297.631 106.572 297.532 106.85 297.374 107.188C297.139 107.691 296.804 108.285 296.392 108.939C295.569 110.249 294.458 111.774 293.279 113.266C292.101 114.756 290.862 116.206 289.786 117.365C289.001 118.21 288.324 118.876 287.829 119.296C287.105 117.403 286.046 114.678 283.275 112.956C280.173 111.028 275.068 110.423 266.219 113.177C264.447 113.7 262.814 114.27 261.349 114.776C259.878 115.286 258.588 115.728 257.477 116.012C256.358 116.298 255.483 116.405 254.825 116.291C254.211 116.185 253.781 115.888 253.495 115.285C253.27 114.801 253.061 114.013 253.391 113.107C253.701 112.257 254.519 111.212 256.458 110.189L256.86 109.985C259.589 108.661 267.829 103.837 278.257 110.359L278.492 110.507L278.741 110.385L285.941 106.865L286.356 106.662L286.186 106.232C285.1 103.483 284.757 100.895 284.808 99.1133Z" stroke="#73AFD7" stroke-miterlimit="10"/>
<path d="M248.452 108.926C245.56 112.311 244.473 115.486 244.402 118.344C244.334 121.062 245.187 123.437 246.184 125.364C244.699 124.76 243.29 124.212 242.01 123.639C240.542 122.983 239.342 122.334 238.526 121.617C241.024 117.75 242.633 114.866 244.342 112.646C245.566 111.057 246.82 109.846 248.452 108.926Z" stroke="#73AFD7" stroke-miterlimit="10"/>
<path d="M281.385 130.141C280.479 131.787 279.408 133.372 278.458 134.665C277.795 135.569 277.194 136.326 276.761 136.856C276.565 137.096 276.403 137.289 276.285 137.429C276.278 137.426 276.271 137.424 276.264 137.422C276.044 137.343 275.727 137.23 275.342 137.093C274.572 136.818 273.53 136.445 272.44 136.055C271.169 135.6 269.836 135.122 268.794 134.747C270.173 134.448 272.128 133.983 274.197 133.333C276.647 132.563 279.315 131.514 281.385 130.141Z" stroke="#73AFD7" stroke-miterlimit="10"/>
<path d="M271.322 120.621C273.15 120.167 274.362 120.313 275.088 120.686C275.789 121.046 276.092 121.642 276.086 122.291C276.074 123.629 274.699 125.33 272.172 125.276C269.317 125.213 266.599 125.989 264.412 127.22C262.421 128.34 260.834 129.86 259.998 131.512L254.768 129.084C257.735 128.488 260.158 126.951 262.489 125.354C265.108 123.559 267.598 121.703 270.694 120.791L271.321 120.621H271.322Z" stroke="#73AFD7" stroke-miterlimit="10"/>
<mask id="path-52-inside-6_18_2" fill="white">
<path d="M329.176 3.89584C329.736 8.01584 330.056 10.7358 329.896 14.6958C333.936 12.6558 339.176 10.7758 344.216 10.1758C338.136 -8.86417 327.256 -52.0642 324.816 -55.8242C320.136 -56.5042 313.256 -55.0642 311.856 -54.0242C310.176 -40.1442 304.696 8.49583 294.616 40.9358C297.096 41.2158 309.616 40.9358 309.616 40.9358C310.736 29.2558 315.696 6.89584 315.696 6.89584L330.696 3.57584L334.616 -5.10416L327.616 -9.54417C326.536 -6.82417 316.536 -2.26416 316.536 -2.26416L320.376 -28.3842C320.376 -28.3842 324.016 -19.8242 326.816 -8.38417"/>
</mask>
<path d="M329.896 14.6958L328.897 14.6555L328.828 16.3553L330.347 15.5885L329.896 14.6958ZM344.216 10.1758L344.334 11.1688L345.537 11.0256L345.169 9.87164L344.216 10.1758ZM324.816 -55.8242L325.655 -56.3685L325.408 -56.7486L324.96 -56.8138L324.816 -55.8242ZM311.856 -54.0242L311.26 -54.8269L310.915 -54.5708L310.863 -54.1443L311.856 -54.0242ZM294.616 40.9358L293.661 40.6391L293.302 41.7939L294.504 41.9295L294.616 40.9358ZM309.616 40.9358L309.638 41.9356L310.527 41.9157L310.611 41.0313L309.616 40.9358ZM315.696 6.89584L315.48 5.91946L314.858 6.05717L314.72 6.67928L315.696 6.89584ZM330.696 3.57584L330.912 4.55221L331.401 4.44395L331.607 3.98742L330.696 3.57584ZM334.616 -5.10416L335.527 -4.69258L335.885 -5.48368L335.152 -5.94862L334.616 -5.10416ZM327.616 -9.54417L328.152 -10.3886L327.132 -11.0353L326.687 -9.9132L327.616 -9.54417ZM316.536 -2.26416L315.547 -2.40961L315.279 -0.59211L316.951 -1.3543L316.536 -2.26416ZM320.376 -28.3842L321.296 -28.7755L319.904 -32.0494L319.387 -28.5296L320.376 -28.3842ZM328.185 4.03052C328.743 8.13805 329.053 10.7867 328.897 14.6555L330.895 14.7362C331.059 10.685 330.729 7.89362 330.167 3.76115L328.185 4.03052ZM330.347 15.5885C334.312 13.586 339.439 11.7516 344.334 11.1688L344.098 9.18285C338.913 9.8001 333.56 11.7257 329.445 13.8032L330.347 15.5885ZM345.169 9.87164C342.136 0.375549 337.904 -15.157 334.115 -28.8214C332.222 -35.6456 330.441 -42.0022 328.98 -46.8894C328.249 -49.3322 327.596 -51.4176 327.046 -53.0149C326.514 -54.5637 326.04 -55.7757 325.655 -56.3685L323.977 -55.2798C324.202 -54.9326 324.602 -53.9722 325.155 -52.3644C325.692 -50.8051 326.336 -48.7499 327.064 -46.3164C328.518 -41.4511 330.295 -35.1128 332.187 -28.287C335.968 -14.6514 340.216 0.936119 343.263 10.48L345.169 9.87164ZM324.96 -56.8138C322.479 -57.1742 319.477 -56.9696 316.945 -56.5561C315.671 -56.3481 314.492 -56.0833 313.53 -55.7987C312.61 -55.5267 311.765 -55.2021 311.26 -54.8269L312.452 -53.2214C312.647 -53.3663 313.187 -53.6116 314.097 -53.8809C314.965 -54.1375 316.061 -54.3852 317.267 -54.5822C319.695 -54.9787 322.473 -55.1541 324.672 -54.8346L324.96 -56.8138ZM310.863 -54.1443C309.179 -40.2312 303.708 8.30511 293.661 40.6391L295.571 41.2326C305.684 8.68655 311.173 -40.0571 312.849 -53.904L310.863 -54.1443ZM294.504 41.9295C295.821 42.0783 299.652 42.0754 303.056 42.0408C304.78 42.0232 306.425 41.9969 307.639 41.975C308.246 41.9641 308.746 41.9542 309.094 41.9471C309.268 41.9435 309.404 41.9407 309.496 41.9387C309.543 41.9377 309.578 41.9369 309.602 41.9364C309.614 41.9361 309.623 41.9359 309.629 41.9358C309.632 41.9357 309.634 41.9357 309.636 41.9356C309.637 41.9356 309.637 41.9356 309.638 41.9356C309.638 41.9356 309.638 41.9356 309.638 41.9356C309.638 41.9356 309.638 41.9356 309.616 40.9358C309.594 39.9361 309.594 39.9361 309.594 39.9361C309.593 39.9361 309.593 39.9361 309.593 39.9361C309.593 39.9361 309.592 39.9361 309.591 39.9361C309.59 39.9362 309.588 39.9362 309.585 39.9363C309.579 39.9364 309.57 39.9366 309.558 39.9369C309.534 39.9374 309.499 39.9381 309.453 39.9391C309.361 39.9411 309.226 39.944 309.053 39.9475C308.706 39.9546 308.208 39.9644 307.603 39.9754C306.392 39.9972 304.752 40.0234 303.036 40.0409C299.56 40.0762 295.891 40.0734 294.728 39.9421L294.504 41.9295ZM310.611 41.0313C311.166 35.2453 312.677 26.7785 314.057 19.7279C314.746 16.2092 315.4 13.0544 315.882 10.7792C316.123 9.64177 316.32 8.72445 316.458 8.09177C316.527 7.77543 316.58 7.53027 316.617 7.36435C316.635 7.28139 316.649 7.21825 316.658 7.17591C316.663 7.15475 316.666 7.13879 316.669 7.12816C316.67 7.12285 316.671 7.11887 316.671 7.11623C316.672 7.11492 316.672 7.11394 316.672 7.1133C316.672 7.11298 316.672 7.11275 316.672 7.11259C316.672 7.11245 316.672 7.1124 315.696 6.89584C314.72 6.67928 314.72 6.67939 314.72 6.67959C314.72 6.67977 314.72 6.68006 314.719 6.68042C314.719 6.68114 314.719 6.6822 314.719 6.68359C314.718 6.68639 314.717 6.69053 314.716 6.69601C314.714 6.70697 314.71 6.72326 314.705 6.74475C314.696 6.78775 314.682 6.85159 314.663 6.93525C314.627 7.10257 314.573 7.34921 314.504 7.66709C314.365 8.30285 314.167 9.22365 313.925 10.3649C313.442 12.6473 312.786 15.8125 312.095 19.3437C310.715 26.3931 309.186 34.9464 308.621 40.8404L310.611 41.0313ZM315.912 7.87221L330.912 4.55221L330.48 2.59946L315.48 5.91946L315.912 7.87221ZM331.607 3.98742L335.527 -4.69258L333.705 -5.51575L329.785 3.16425L331.607 3.98742ZM335.152 -5.94862L328.152 -10.3886L327.08 -8.69971L334.08 -4.25971L335.152 -5.94862ZM326.687 -9.9132C326.623 -9.75286 326.454 -9.49604 326.115 -9.14987C325.788 -8.81517 325.353 -8.44851 324.832 -8.06165C323.792 -7.2882 322.483 -6.48701 321.181 -5.75605C319.884 -5.02763 318.618 -4.38124 317.674 -3.91628C317.202 -3.68407 316.812 -3.49776 316.541 -3.36981C316.406 -3.30585 316.3 -3.25651 316.228 -3.22335C316.192 -3.20678 316.165 -3.19425 316.147 -3.18596C316.138 -3.18182 316.131 -3.17873 316.127 -3.17674C316.125 -3.17574 316.123 -3.17501 316.122 -3.17456C316.122 -3.17434 316.121 -3.17418 316.121 -3.17409C316.121 -3.17405 316.121 -3.17403 316.121 -3.17401C316.121 -3.17401 316.121 -3.17403 316.536 -2.26416C316.951 -1.3543 316.951 -1.35435 316.951 -1.35442C316.951 -1.35447 316.952 -1.35456 316.952 -1.35466C316.952 -1.35484 316.953 -1.3551 316.953 -1.35543C316.955 -1.35609 316.957 -1.35702 316.96 -1.35822C316.965 -1.36063 316.972 -1.36413 316.982 -1.36869C317.002 -1.37783 317.031 -1.39124 317.069 -1.40872C317.145 -1.44369 317.255 -1.49498 317.395 -1.56102C317.674 -1.69307 318.074 -1.88425 318.557 -2.12205C319.522 -2.5971 320.823 -3.2607 322.161 -4.01228C323.494 -4.76132 324.887 -5.61013 326.026 -6.45669C326.595 -6.87983 327.119 -7.31566 327.545 -7.75097C327.959 -8.1748 328.339 -8.65548 328.545 -9.17513L326.687 -9.9132ZM317.525 -2.11871L321.365 -28.2387L319.387 -28.5296L315.547 -2.40961L317.525 -2.11871ZM320.376 -28.3842C319.456 -27.9928 319.456 -27.9929 319.456 -27.9929C319.456 -27.9929 319.456 -27.9929 319.456 -27.9928C319.456 -27.9927 319.456 -27.9924 319.456 -27.992C319.456 -27.9912 319.457 -27.9899 319.458 -27.9881C319.459 -27.9844 319.462 -27.9787 319.465 -27.9709C319.472 -27.9554 319.482 -27.9317 319.495 -27.8999C319.521 -27.8365 319.561 -27.7411 319.613 -27.615C319.716 -27.363 319.867 -26.9885 320.058 -26.5027C320.439 -25.531 320.977 -24.1143 321.603 -22.3413C322.855 -18.7942 324.454 -13.8267 325.845 -8.14643L327.787 -8.62191C326.378 -14.3816 324.757 -19.4141 323.489 -23.007C322.855 -24.804 322.308 -26.2424 321.919 -27.2332C321.725 -27.7286 321.57 -28.1122 321.463 -28.373C321.41 -28.5033 321.369 -28.603 321.34 -28.6705C321.326 -28.7043 321.315 -28.7301 321.308 -28.7476C321.304 -28.7564 321.302 -28.7631 321.3 -28.7678C321.299 -28.7701 321.298 -28.7719 321.297 -28.7732C321.297 -28.7738 321.297 -28.7743 321.297 -28.7747C321.297 -28.7749 321.296 -28.7751 321.296 -28.7752C321.296 -28.7754 321.296 -28.7755 320.376 -28.3842Z" fill="#73AFD7" mask="url(#path-52-inside-6_18_2)"/>
<mask id="path-54-inside-7_18_2" fill="white">
<path d="M299.976 20.6158C293.776 16.8158 289.976 10.0958 289.976 -1.58417C289.976 -20.8242 308.656 -28.7042 308.656 -28.7042"/>
</mask>
<path d="M300.499 19.7632C294.675 16.1941 290.976 9.85337 290.976 -1.58417H288.976C288.976 10.3383 292.877 17.4376 299.453 21.4684L300.499 19.7632ZM290.976 -1.58417C290.976 -10.8448 295.462 -17.3782 300 -21.6294C302.27 -23.7561 304.543 -25.3005 306.248 -26.3123C307.099 -26.8177 307.806 -27.1888 308.297 -27.4319C308.543 -27.5535 308.734 -27.6429 308.861 -27.7012C308.925 -27.7303 308.973 -27.7516 309.004 -27.7651C309.019 -27.7719 309.031 -27.7768 309.038 -27.7797C309.041 -27.7812 309.043 -27.7822 309.044 -27.7827C309.045 -27.7829 309.045 -27.7831 309.045 -27.7831C309.045 -27.7831 309.045 -27.783 309.045 -27.783C309.045 -27.7829 309.045 -27.7828 308.656 -28.7042C308.267 -29.6255 308.267 -29.6253 308.266 -29.6251C308.266 -29.625 308.265 -29.6247 308.265 -29.6245C308.264 -29.624 308.262 -29.6235 308.261 -29.6228C308.257 -29.6213 308.253 -29.6194 308.247 -29.617C308.236 -29.6123 308.221 -29.6055 308.201 -29.5968C308.161 -29.5794 308.104 -29.5541 308.031 -29.5208C307.885 -29.4542 307.675 -29.3556 307.409 -29.2241C306.879 -28.9611 306.127 -28.5662 305.227 -28.0322C303.429 -26.9654 301.032 -25.3373 298.632 -23.0889C293.83 -18.5901 288.976 -11.5635 288.976 -1.58417H290.976Z" fill="#73AFD7" mask="url(#path-54-inside-7_18_2)"/>
<mask id="path-56-inside-8_18_2" fill="white">
<path d="M334.136 -25.2642C342.256 -24.6242 351.216 -15.9442 351.216 -1.70417C351.216 12.5358 340.496 25.0958 322.296 25.0958C318.736 25.0958 315.296 24.9358 312.136 24.4958"/>
</mask>
<path d="M334.057 -24.2673C341.541 -23.6774 350.216 -15.5477 350.216 -1.70417H352.216C352.216 -16.3407 342.971 -25.5709 334.215 -26.2611L334.057 -24.2673ZM350.216 -1.70417C350.216 11.9769 339.95 24.0958 322.296 24.0958V26.0958C341.042 26.0958 352.216 13.0948 352.216 -1.70417H350.216ZM322.296 24.0958C318.763 24.0958 315.372 23.9368 312.274 23.5054L311.998 25.4863C315.22 25.9349 318.709 26.0958 322.296 26.0958V24.0958Z" fill="#73AFD7" mask="url(#path-56-inside-8_18_2)"/>
<path d="M253.096 29.2407C253.544 29.6951 253.91 30.429 254.126 31.1499C254.245 31.5468 254.309 31.9076 254.321 32.1724C254.324 32.222 254.321 32.2656 254.32 32.3032C254.205 32.3127 254.063 32.3243 253.898 32.3384C253.443 32.3772 252.819 32.4333 252.142 32.4985C250.796 32.6281 249.212 32.7993 248.346 32.9644L247.217 33.1802L248.145 33.8589C248.618 34.2052 249.091 34.8145 249.473 35.6069C249.851 36.3934 250.122 37.3293 250.212 38.2964C250.391 40.2344 249.841 42.219 248.074 43.4448L246.78 44.3433L248.355 44.356H248.576C248.717 44.3552 248.919 44.3525 249.169 44.3472C249.668 44.3364 250.359 44.3125 251.124 44.2593C252.537 44.161 254.268 43.9597 255.5 43.5308C256.075 43.944 256.357 44.6412 256.385 45.3745C256.4 45.7738 256.338 46.1583 256.222 46.4692C256.129 46.7186 256.011 46.8931 255.897 47.0015C250.982 47.1577 234.89 49.028 231.525 49.479C231.137 48.8445 230.854 48.0686 230.728 47.3491C230.656 46.9423 230.637 46.57 230.669 46.2651C230.686 46.0988 230.719 45.9654 230.757 45.8608C232.718 46.0118 234.765 45.7796 235.81 45.4985L236.701 45.2583L236.013 44.6431C234.976 43.7153 234.179 42.1386 233.898 40.4302C233.618 38.7239 233.865 36.9699 234.805 35.6685L235.353 34.9097L234.418 34.8765C233.303 34.8359 231.951 34.8459 230.822 34.8862C230.258 34.9064 229.744 34.9339 229.341 34.9673C229.199 34.9791 229.068 34.9948 228.952 35.0083C228.757 34.2718 228.659 33.4249 228.613 32.7046C228.586 32.2809 228.578 31.91 228.576 31.646C228.576 31.6068 228.576 31.5699 228.576 31.5356C229.622 31.2029 231.159 30.9705 233.023 30.8022C235.073 30.6173 237.464 30.5109 239.931 30.4058C244.705 30.2024 249.801 30.0033 253.096 29.2407Z" stroke="#73AFD7" stroke-miterlimit="10"/>
<path d="M241.859 34.5028C243.302 34.4215 244.383 34.8642 245.131 35.5536C245.869 36.2331 246.312 37.1792 246.44 38.1776L246.461 38.3778L246.462 38.3866C246.663 40.3601 244.957 42.4835 242.473 42.8485L242.231 42.8778C240.986 43.0005 239.873 42.4861 239.048 41.7069C238.264 40.9662 237.793 40.0371 237.71 39.2987L237.7 39.1541C237.682 38.5083 237.797 37.4147 238.348 36.4608C238.884 35.5332 239.85 34.7008 241.64 34.5545L241.824 34.5389L241.859 34.5028Z" stroke="#73AFD7" stroke-miterlimit="10"/>
<path d="M218.088 -23.1038L218.203 -22.7639H218.77L218.905 -22.8665L223.554 -26.4075L225.624 -6.1731L225.71 -5.32642L226.408 -5.8147L231.156 -9.13599C232.07 -5.77337 232.698 0.119695 232.922 6.11987C233.121 11.4375 232.999 16.7638 232.504 20.407L226.759 1.90796L226.557 1.25464L225.995 1.64526L222.199 4.28882L219.818 -15.7229L219.716 -16.5784L219.024 -16.0657L214.611 -12.7981C214.771 -19.8168 213.87 -28.2968 212.906 -35.1243C212.596 -37.3219 212.278 -39.3508 211.988 -41.1086L218.088 -23.1038Z" stroke="#73AFD7" stroke-miterlimit="10"/>
<mask id="path-61-inside-9_18_2" fill="white">
<path d="M224.161 -25.2642C231.801 -26.8642 241.441 -21.3042 244.401 -15.2642C247.081 -9.74423 248.682 1.21577 233.482 10.0958"/>
</mask>
<path d="M244.401 -15.2642L245.301 -15.701L245.299 -15.7043L244.401 -15.2642ZM224.366 -24.2855C227.891 -25.0237 231.972 -24.1183 235.575 -22.2423C239.181 -20.3641 242.144 -17.5987 243.504 -14.8242L245.299 -15.7043C243.699 -18.9697 240.362 -22.0044 236.498 -24.0162C232.631 -26.0301 228.072 -27.1048 223.957 -26.243L224.366 -24.2855ZM243.502 -14.8275C244.77 -12.216 245.768 -8.34231 244.678 -4.09278C243.594 0.132294 240.402 4.89468 232.977 9.23232L233.986 10.9592C241.761 6.41686 245.369 1.25925 246.615 -3.59567C247.855 -8.42615 246.713 -12.7925 245.301 -15.701L243.502 -14.8275Z" fill="#73AFD7" mask="url(#path-61-inside-9_18_2)"/>
<mask id="path-63-inside-10_18_2" fill="white">
<path d="M229.281 11.5758C219.881 13.8158 208.082 12.2558 204.522 2.65577C200.962 -6.94423 208.682 -16.5042 213.962 -20.1442"/>
</mask>
<path d="M229.05 10.603C224.474 11.6933 219.354 11.8463 214.987 10.5945C210.643 9.34927 207.103 6.73989 205.459 2.30807L203.584 3.00347C205.5 8.17165 209.64 11.1423 214.436 12.5171C219.209 13.8852 224.689 13.6982 229.513 12.5485L229.05 10.603ZM205.459 2.30807C203.809 -2.14125 204.75 -6.62669 206.81 -10.5107C208.874 -14.4039 212.012 -17.5855 214.529 -19.3209L213.394 -20.9675C210.631 -19.063 207.269 -15.6446 205.043 -11.4477C202.813 -7.24177 201.674 -2.14721 203.584 3.00347L205.459 2.30807Z" fill="#73AFD7" mask="url(#path-63-inside-10_18_2)"/>
<path d="M252.717 155.217C253.055 155.698 253.503 156.21 253.958 156.689C254.288 157.037 254.633 157.381 254.96 157.7L255.855 158.56L255.856 158.561C257.61 160.237 258.281 161.595 258.443 162.604C258.551 163.279 258.432 163.824 258.23 164.243C257.264 163.232 255.838 162.011 254.61 161.009L253.311 159.967L253.066 159.768C251.9 158.783 251.569 157.978 251.615 157.294C251.658 156.648 252.041 155.974 252.717 155.217Z" stroke="#73AFD7" stroke-miterlimit="10"/>
<path d="M256.827 148.71C257.608 149.603 258.992 151.015 260.485 152.49C261.796 153.787 263.206 155.147 264.395 156.279L265.498 157.324C266.361 158.156 266.781 159.322 266.629 160.472L266.591 160.702L266.59 160.706C266.327 162.083 266.134 163.502 266.037 164.752C265.942 165.99 265.937 167.102 266.069 167.847L266.198 168.577L266.826 168.184C267.032 168.054 267.614 167.772 268.412 167.405C269.196 167.045 270.153 166.62 271.081 166.213C271.997 165.812 272.884 165.428 273.548 165.143L270.934 172.022L270.695 172.65L271.366 172.698C273.15 172.826 275.768 172.32 278.089 170.994L278.088 170.993C278.985 170.498 280.002 170.646 280.629 171.333V171.334C282.41 173.317 284.912 175.577 287.178 177.658C289.23 179.543 291.06 181.26 292.068 182.533C290.558 183.386 289.201 183.694 287.954 183.633C286.575 183.565 285.281 183.046 284.016 182.234C282.748 181.42 281.531 180.326 280.308 179.133C279.101 177.955 277.864 176.656 276.62 175.512L276.37 175.282L276.064 175.43C273.956 176.444 271.21 177.204 268.97 177.712C267.854 177.965 266.872 178.154 266.169 178.279C266.028 178.305 265.897 178.325 265.78 178.345L267.207 172.315L267.407 171.475L266.578 171.721L261.063 173.356L261.58 164.91L261.579 164.909C261.788 162.045 260.655 159.223 258.509 157.32C258.361 157.172 258.223 157.035 258.043 156.897C255.285 154.569 254.768 152.802 254.989 151.525C255.189 150.371 256.009 149.446 256.827 148.71Z" stroke="#73AFD7" stroke-miterlimit="10"/>
<path d="M250.343 1.47398C251.312 2.42847 252.529 3.26588 253.719 4.14684C255.091 5.16298 256.472 6.26858 257.605 7.75035C257.503 8.89936 257.344 11.1728 257.207 13.2015C257.134 14.2795 257.069 15.2914 257.021 16.0336C256.996 16.4045 256.976 16.7084 256.963 16.9193C256.956 17.0245 256.951 17.1066 256.947 17.1625C256.945 17.1904 256.944 17.2125 256.943 17.2269C256.943 17.2337 256.943 17.239 256.942 17.2425V17.2484L256.897 17.9466L257.573 17.7621L262.887 16.3089L262.066 21.806L261.968 22.4681L262.631 22.3754H262.632C262.633 22.3752 262.634 22.3746 262.636 22.3744C262.639 22.3739 262.645 22.3734 262.652 22.3724C262.667 22.3704 262.689 22.3666 262.717 22.3627C262.773 22.3547 262.856 22.3433 262.962 22.3285C263.173 22.2988 263.475 22.2567 263.839 22.2054C264.567 22.1029 265.544 21.9656 266.536 21.8255C268.161 21.5963 269.836 21.3574 270.531 21.2572C271.775 23.0077 274.264 26.1762 276.615 28.598C273.607 28.6327 271.25 26.5276 269.354 24.1302L269.176 23.9056L268.893 23.9447L259.429 25.2591L259.859 20.0004L259.912 19.3578L259.275 19.4671L254.565 20.2816L254.98 9.89977L254.992 9.6068L254.742 9.45348L254.736 9.45055C254.733 9.44825 254.727 9.44426 254.72 9.4398C254.705 9.4309 254.684 9.4175 254.656 9.40074C254.601 9.36711 254.522 9.31847 254.425 9.25914C254.23 9.14031 253.963 8.9782 253.676 8.80309C253.106 8.45656 252.45 8.05776 252.104 7.85387C250.878 7.0617 250.256 5.65034 250.082 4.22008C249.995 3.5091 250.023 2.81517 250.133 2.22984C250.187 1.93856 250.26 1.68477 250.343 1.47398Z" stroke="#73AFD7" stroke-miterlimit="10"/>
<path d="M275.99 19.4533C276.561 20.0164 277.888 21.3455 279.319 22.7296C280.173 23.5562 281.056 24.3943 281.817 25.0744C282.276 25.4857 282.71 25.8563 283.071 26.132C282.166 26.7685 280.931 26.7543 279.59 26.256C278.125 25.7115 276.677 24.6316 275.74 23.4884L275.56 23.2589L275.557 23.255L274.91 22.424C274.688 22.1375 274.462 21.8432 274.243 21.548C273.953 21.1554 273.692 20.7763 273.484 20.4338C274.363 20.1188 275.419 19.7062 275.99 19.4533Z" stroke="#73AFD7" stroke-miterlimit="10"/>
<path d="M252.717 -4.78262C253.055 -4.30183 253.503 -3.79049 253.958 -3.31094C254.288 -2.96324 254.633 -2.61908 254.96 -2.30019L255.855 -1.43984L255.856 -1.43887C257.61 0.237155 258.281 1.59455 258.443 2.6041C258.551 3.27904 258.432 3.82372 258.23 4.24277C257.264 3.23179 255.838 2.01132 254.61 1.00938L253.311 -0.0326157L253.066 -0.231834C251.9 -1.21657 251.569 -2.02244 251.615 -2.70644C251.658 -3.35191 252.041 -4.02559 252.717 -4.78262Z" stroke="#73AFD7" stroke-miterlimit="10"/>
<path d="M256.827 -11.29C257.608 -10.3965 258.992 -8.985 260.485 -7.50977C261.796 -6.21348 263.206 -4.85265 264.395 -3.7207L265.498 -2.67578C266.361 -1.84395 266.781 -0.678113 266.629 0.47168L266.591 0.702148L266.59 0.706055C266.327 2.08266 266.134 3.50172 266.037 4.75195C265.942 5.99023 265.937 7.10196 266.069 7.84668L266.198 8.57715L266.826 8.18359C267.032 8.05446 267.614 7.77235 268.412 7.40527C269.196 7.04525 270.153 6.61991 271.081 6.21289C271.997 5.81159 272.884 5.42797 273.548 5.14258L270.934 12.0225L270.695 12.6504L271.366 12.6982C273.15 12.8257 275.768 12.3203 278.089 10.9941L278.088 10.9932C278.985 10.4978 280.002 10.646 280.629 11.333V11.334C282.41 13.3165 284.912 15.5768 287.178 17.6582C289.23 19.543 291.06 21.2598 292.068 22.5332C290.558 23.3864 289.201 23.6939 287.954 23.6328C286.575 23.5652 285.281 23.0462 284.016 22.2344C282.748 21.4203 281.531 20.3258 280.308 19.1328C279.101 17.9549 277.864 16.6562 276.62 15.5117L276.37 15.2822L276.064 15.4297C273.956 16.4445 271.21 17.2041 268.97 17.7119C267.854 17.9648 266.872 18.1541 266.169 18.2793C266.028 18.3045 265.897 18.3247 265.78 18.3447L267.207 12.3154L267.407 11.4746L266.578 11.7207L261.063 13.3564L261.58 4.91016L261.579 4.90918C261.788 2.0454 260.655 -0.776824 258.509 -2.67969C258.361 -2.82817 258.223 -2.96541 258.043 -3.10254C255.285 -5.43073 254.768 -7.19812 254.989 -8.47461C255.189 -9.6291 256.009 -10.5538 256.827 -11.29Z" stroke="#73AFD7" stroke-miterlimit="10"/>
<mask id="path-71-inside-11_18_2" fill="white">
<path d="M9.176 163.896C9.736 168.016 10.056 170.736 9.896 174.696C13.936 172.656 19.176 170.776 24.216 170.176C18.136 151.136 7.256 107.936 4.816 104.176C0.135998 103.496 -6.744 104.936 -8.144 105.976C-9.824 119.856 -15.304 168.496 -25.384 200.936C-22.904 201.216 -10.384 200.936 -10.384 200.936C-9.264 189.256 -4.304 166.896 -4.304 166.896L10.696 163.576L14.616 154.896L7.616 150.456C6.536 153.176 -3.464 157.736 -3.464 157.736L0.375996 131.616C0.375996 131.616 4.016 140.176 6.816 151.616"/>
</mask>
<path d="M9.896 174.696L8.89682 174.655L8.82813 176.355L10.3467 175.588L9.896 174.696ZM24.216 170.176L24.3342 171.169L25.5371 171.026L25.1686 169.872L24.216 170.176ZM4.816 104.176L5.65485 103.631L5.40819 103.251L4.95979 103.186L4.816 104.176ZM-8.144 105.976L-8.74033 105.173L-9.08514 105.429L-9.13675 105.856L-8.144 105.976ZM-25.384 200.936L-26.339 200.639L-26.6978 201.794L-25.4962 201.93L-25.384 200.936ZM-10.384 200.936L-10.3616 201.936L-9.47338 201.916L-9.38857 201.031L-10.384 200.936ZM-4.304 166.896L-4.52011 165.919L-5.14227 166.057L-5.28027 166.679L-4.304 166.896ZM10.696 163.576L10.9121 164.552L11.4012 164.444L11.6074 163.987L10.696 163.576ZM14.616 154.896L15.5274 155.307L15.8846 154.516L15.1516 154.051L14.616 154.896ZM7.616 150.456L8.15162 149.611L7.13211 148.965L6.68658 150.087L7.616 150.456ZM-3.464 157.736L-4.45337 157.59L-4.72057 159.408L-3.0491 158.646L-3.464 157.736ZM0.375996 131.616L1.29625 131.225L-0.0959167 127.951L-0.613369 131.47L0.375996 131.616ZM8.18511 164.031C8.74342 168.138 9.05313 170.787 8.89682 174.655L10.8952 174.736C11.0589 170.685 10.7286 167.894 10.1669 163.761L8.18511 164.031ZM10.3467 175.588C14.3124 173.586 19.4392 171.752 24.3342 171.169L24.0978 169.183C18.9128 169.8 13.5596 171.726 9.44526 173.803L10.3467 175.588ZM25.1686 169.872C22.1362 160.376 17.9036 144.843 14.1146 131.179C12.2224 124.354 10.4411 117.998 8.97971 113.111C8.24925 110.668 7.59583 108.582 7.04638 106.985C6.51365 105.436 6.03956 104.224 5.65485 103.631L3.97715 104.72C4.20244 105.067 4.6021 106.028 5.15514 107.636C5.69148 109.195 6.33587 111.25 7.06354 113.684C8.5184 118.549 10.2946 124.887 12.1874 131.713C15.9684 145.349 20.2158 160.936 23.2634 170.48L25.1686 169.872ZM4.95979 103.186C2.47909 102.826 -0.523146 103.03 -3.05517 103.444C-4.32854 103.652 -5.50784 103.917 -6.47012 104.201C-7.38972 104.473 -8.23531 104.798 -8.74033 105.173L-7.54768 106.779C-7.3527 106.634 -6.81328 106.388 -5.90288 106.119C-5.03516 105.863 -3.93947 105.615 -2.73283 105.418C-0.304857 105.021 2.47291 104.846 4.67221 105.165L4.95979 103.186ZM-9.13675 105.856C-10.8208 119.769 -16.2919 168.305 -26.339 200.639L-24.429 201.233C-14.3161 168.687 -8.82724 119.943 -7.15125 106.096L-9.13675 105.856ZM-25.4962 201.93C-24.1787 202.078 -20.3483 202.075 -16.9438 202.041C-15.2204 202.023 -13.5751 201.997 -12.361 201.975C-11.7538 201.964 -11.2542 201.954 -10.9063 201.947C-10.7324 201.944 -10.5964 201.941 -10.5037 201.939C-10.4574 201.938 -10.422 201.937 -10.3981 201.936C-10.3861 201.936 -10.377 201.936 -10.3709 201.936C-10.3679 201.936 -10.3656 201.936 -10.364 201.936C-10.3633 201.936 -10.3627 201.936 -10.3623 201.936C-10.3621 201.936 -10.3619 201.936 -10.3618 201.936C-10.3617 201.936 -10.3616 201.936 -10.384 200.936C-10.4064 199.936 -10.4064 199.936 -10.4065 199.936C-10.4066 199.936 -10.4067 199.936 -10.4069 199.936C-10.4072 199.936 -10.4078 199.936 -10.4085 199.936C-10.41 199.936 -10.4123 199.936 -10.4152 199.936C-10.4212 199.936 -10.4301 199.937 -10.4419 199.937C-10.4655 199.937 -10.5007 199.938 -10.5467 199.939C-10.6387 199.941 -10.774 199.944 -10.9473 199.948C-11.2938 199.955 -11.7917 199.964 -12.397 199.975C-13.6079 199.997 -15.2476 200.023 -16.9642 200.041C-20.4397 200.076 -24.1093 200.073 -25.2718 199.942L-25.4962 201.93ZM-9.38857 201.031C-8.83375 195.245 -7.32274 186.779 -5.94263 179.728C-5.25385 176.209 -4.59992 173.054 -4.11819 170.779C-3.87735 169.642 -3.6796 168.724 -3.54212 168.092C-3.47338 167.775 -3.41971 167.53 -3.38326 167.364C-3.36504 167.281 -3.35112 167.218 -3.34178 167.176C-3.3371 167.155 -3.33358 167.139 -3.33122 167.128C-3.33005 167.123 -3.32917 167.119 -3.32858 167.116C-3.32829 167.115 -3.32807 167.114 -3.32793 167.113C-3.32786 167.113 -3.32781 167.113 -3.32778 167.113C-3.32774 167.112 -3.32773 167.112 -4.304 166.896C-5.28027 166.679 -5.2803 166.679 -5.28034 166.68C-5.28038 166.68 -5.28044 166.68 -5.28052 166.68C-5.28068 166.681 -5.28092 166.682 -5.28123 166.684C-5.28185 166.686 -5.28276 166.691 -5.28398 166.696C-5.2864 166.707 -5.29 166.723 -5.29475 166.745C-5.30424 166.788 -5.31831 166.852 -5.33669 166.935C-5.37345 167.103 -5.42743 167.349 -5.49651 167.667C-5.63466 168.303 -5.83316 169.224 -6.07481 170.365C-6.55808 172.647 -7.21416 175.812 -7.90538 179.344C-9.28526 186.393 -10.8143 194.946 -11.3794 200.84L-9.38857 201.031ZM-4.0879 167.872L10.9121 164.552L10.4799 162.599L-4.52011 165.919L-4.0879 167.872ZM11.6074 163.987L15.5274 155.307L13.7046 154.484L9.78463 163.164L11.6074 163.987ZM15.1516 154.051L8.15162 149.611L7.08037 151.3L14.0804 155.74L15.1516 154.051ZM6.68658 150.087C6.62292 150.247 6.45394 150.504 6.11515 150.85C5.78758 151.185 5.35273 151.551 4.83244 151.938C3.79224 152.712 2.4827 153.513 1.18129 154.244C-0.115591 154.972 -1.38229 155.619 -2.32643 156.084C-2.79794 156.316 -3.18769 156.502 -3.45889 156.63C-3.59447 156.694 -3.70033 156.743 -3.77188 156.777C-3.80766 156.793 -3.83485 156.806 -3.85288 156.814C-3.86189 156.818 -3.86862 156.821 -3.87298 156.823C-3.87516 156.824 -3.87675 156.825 -3.87774 156.825C-3.87824 156.826 -3.87858 156.826 -3.87878 156.826C-3.87887 156.826 -3.8789 156.826 -3.87895 156.826C-3.87895 156.826 -3.8789 156.826 -3.464 157.736C-3.0491 158.646 -3.04898 158.646 -3.04883 158.646C-3.04872 158.646 -3.04853 158.645 -3.04832 158.645C-3.0479 158.645 -3.04734 158.645 -3.04662 158.645C-3.04519 158.644 -3.04315 158.643 -3.04052 158.642C-3.03526 158.639 -3.02763 158.636 -3.01769 158.631C-2.99781 158.622 -2.96872 158.609 -2.93099 158.591C-2.85553 158.556 -2.7455 158.505 -2.60552 158.439C-2.32563 158.307 -1.92569 158.116 -1.44283 157.878C-0.478214 157.403 0.822582 156.739 2.16071 155.988C3.4943 155.239 4.88726 154.39 6.0258 153.543C6.59489 153.12 7.11848 152.684 7.54451 152.249C7.9593 151.825 8.33908 151.345 8.54541 150.825L6.68658 150.087ZM-2.47464 157.881L1.36536 131.761L-0.613369 131.47L-4.45337 157.59L-2.47464 157.881ZM0.375996 131.616C-0.544258 132.007 -0.544283 132.007 -0.544294 132.007C-0.544279 132.007 -0.544277 132.007 -0.544249 132.007C-0.544189 132.007 -0.544075 132.008 -0.543907 132.008C-0.543568 132.009 -0.543011 132.01 -0.542236 132.012C-0.540686 132.016 -0.538263 132.021 -0.53499 132.029C-0.52844 132.045 -0.518476 132.068 -0.505234 132.1C-0.478748 132.163 -0.439154 132.259 -0.387541 132.385C-0.284313 132.637 -0.133026 133.012 0.0575867 133.497C0.438839 134.469 0.977247 135.886 1.60301 137.659C2.85493 141.206 4.45438 146.173 5.84467 151.854L7.78733 151.378C6.37761 145.618 4.75707 140.586 3.48899 136.993C2.85475 135.196 2.30815 133.758 1.9194 132.767C1.72502 132.271 1.57006 131.888 1.46328 131.627C1.40989 131.497 1.36855 131.397 1.34035 131.329C1.32625 131.296 1.31543 131.27 1.30803 131.252C1.30434 131.244 1.30149 131.237 1.29952 131.232C1.29854 131.23 1.29777 131.228 1.29723 131.227C1.29695 131.226 1.29673 131.226 1.29657 131.225C1.29649 131.225 1.29641 131.225 1.29637 131.225C1.2963 131.225 1.29625 131.225 0.375996 131.616Z" fill="#73AFD7" mask="url(#path-71-inside-11_18_2)"/>
<mask id="path-73-inside-12_18_2" fill="white">
<path d="M14.136 134.696C22.256 135.336 31.216 144.016 31.216 158.256C31.216 172.496 20.496 185.056 2.29602 185.056C-1.26398 185.056 -4.70398 184.896 -7.86398 184.456"/>
</mask>
<path d="M14.0574 135.693C21.541 136.283 30.216 144.412 30.216 158.256H32.216C32.216 143.619 22.971 134.389 14.2146 133.699L14.0574 135.693ZM30.216 158.256C30.216 171.937 19.9504 184.056 2.29602 184.056V186.056C21.0416 186.056 32.216 173.055 32.216 158.256H30.216ZM2.29602 184.056C-1.23741 184.056 -4.62774 183.897 -7.72607 183.465L-8.00189 185.446C-4.78023 185.895 -1.29055 186.056 2.29602 186.056V184.056Z" fill="#73AFD7" mask="url(#path-73-inside-12_18_2)"/>
<path d="M199.88 146.938C198.278 151.862 193.52 154.317 188.739 155.736L188.466 155.818L188.396 156.093L184.628 171.012L176.943 167.208L176.368 166.923L176.232 167.55L174.562 175.268L159.484 168.559L159.216 168.44L158.981 168.615V168.616H158.98L158.979 168.617C158.978 168.618 158.975 168.62 158.972 168.622C158.967 168.626 158.959 168.633 158.949 168.641C158.927 168.657 158.895 168.68 158.855 168.71C158.774 168.771 158.658 168.859 158.515 168.966C158.23 169.18 157.84 169.474 157.42 169.792C156.591 170.419 155.639 171.143 155.148 171.53C153.212 172.932 150.703 173.019 148.478 172.437C147.371 172.147 146.357 171.697 145.551 171.183C144.99 170.824 144.551 170.447 144.249 170.09C146.306 169.236 148.341 167.874 150.474 166.551C152.79 165.115 155.266 163.697 158.156 162.869C159.717 163.627 162.978 165.191 165.895 166.587C167.41 167.312 168.833 167.992 169.877 168.49C170.398 168.74 170.826 168.944 171.123 169.086C171.271 169.157 171.387 169.212 171.465 169.249L171.578 169.303L171.586 169.307L172.212 169.606L172.297 168.917L173.396 160.05L181.108 164.568L181.686 164.905L181.846 164.256L181.361 164.136C181.804 164.245 181.843 164.254 181.846 164.255L181.847 164.253C181.848 164.252 181.848 164.25 181.848 164.247C181.85 164.242 181.852 164.233 181.855 164.222C181.861 164.199 181.869 164.166 181.88 164.122C181.901 164.035 181.932 163.908 181.972 163.745C182.053 163.42 182.168 162.954 182.306 162.393C182.584 161.27 182.957 159.764 183.337 158.232C184.003 155.544 184.689 152.794 184.928 151.872C188.318 151.067 194.817 149.119 199.88 146.938Z" stroke="#73AFD7" stroke-miterlimit="10"/>
<path d="M199.778 135.714C200.404 137.625 199.583 139.662 197.931 141.486C196.239 143.354 193.771 144.877 191.516 145.6L191.068 145.734L191.055 145.738C189.291 146.278 187.011 146.956 185.363 147.205C185.424 145.637 185.477 143.566 185.438 142.531C186.446 142.078 189.334 140.829 192.354 139.45C194.053 138.674 195.784 137.861 197.212 137.138C198.248 136.614 199.157 136.12 199.778 135.714Z" stroke="#73AFD7" stroke-miterlimit="10"/>
<path d="M143.734 160.147C147.215 158.535 149.629 158.316 151.258 158.679C152.568 158.97 153.412 159.648 153.93 160.356C151.506 161.286 148.081 163.168 145.619 164.57L144.552 165.183L144.549 165.185C142.15 166.589 140.557 166.69 139.406 166.14C138.339 165.629 137.506 164.497 136.759 162.882C137.697 162.684 138.824 162.288 139.923 161.845C141.313 161.284 142.715 160.628 143.734 160.148L143.734 160.147Z" stroke="#73AFD7" stroke-miterlimit="10"/>
<path d="M200.152 120.837C200.571 123.732 200.214 126.05 199.328 127.967C198.386 130.005 196.829 131.635 194.88 133.035C192.927 134.437 190.602 135.594 188.149 136.696C185.716 137.79 183.129 138.844 180.742 140.007L180.442 140.152L180.462 140.485C180.679 144.188 180.146 148.673 179.553 152.254C179.257 154.04 178.948 155.593 178.712 156.698C178.624 157.11 178.544 157.46 178.481 157.736L170.29 151.928L169.588 151.43L169.504 152.287L168.573 161.7L156.255 155.884C152.275 153.938 147.591 153.98 143.652 156.012L143.633 156.021C143.348 156.184 143.093 156.33 142.844 156.437L142.824 156.444L142.806 156.455C137.775 159.138 134.793 158.915 132.953 157.78C131.228 156.717 130.341 154.763 129.757 153.058C131.481 152.481 134.484 151.212 137.668 149.803C140.315 148.631 143.111 147.353 145.449 146.272L147.612 145.27L147.614 145.269C149.499 144.382 151.676 144.53 153.412 145.638V145.637C155.225 146.805 157.14 147.905 158.873 148.769C160.595 149.627 162.174 150.272 163.3 150.506L164.032 150.657L163.893 149.922C163.821 149.545 163.751 148.528 163.69 147.16C163.631 145.811 163.581 144.167 163.541 142.573C163.501 140.98 163.471 139.439 163.451 138.296C163.446 138.004 163.441 137.737 163.438 137.503L172.381 145.822L172.877 146.283L173.171 145.674C174.301 143.336 175.05 139.657 174.701 135.805L174.617 135.032C174.417 133.467 175.185 131.995 176.534 131.361L176.812 131.246L176.816 131.244C180.744 129.774 185.491 127.41 189.854 125.285C193.953 123.29 197.68 121.525 200.152 120.837Z" stroke="#73AFD7" stroke-miterlimit="10"/>
<path d="M63.8133 129.802C74.0291 128.385 81.3107 131.473 86.3709 136.732C91.4502 142.011 94.3324 149.524 95.6268 157.01L95.7469 157.734L95.7479 157.736C96.9765 165.303 94.0201 171.859 89.0184 176.826C84.0088 181.801 76.9668 185.157 70.1199 186.282C56.723 188.483 42.8516 180.012 39.907 163.986L39.7752 163.218C37.1355 146.67 46.7323 132.622 62.8817 129.989L63.8445 129.833L63.8133 129.802Z" stroke="#73AFD7" stroke-miterlimit="10"/>
<path d="M59.2747 135.263C59.7261 138.195 61.1255 147.912 62.6419 157.896C64.1892 168.084 65.8661 178.584 66.7776 182.319C62.6159 182.823 57.7096 181.299 53.5423 178.152C49.3375 174.977 45.9315 170.185 44.8343 164.273L44.7346 163.698V163.697C43.8085 157.883 44.5011 151.385 46.97 146.02C49.3659 140.814 53.4188 136.702 59.2747 135.263Z" stroke="#73AFD7" stroke-miterlimit="10"/>
<path d="M68.2036 133.682C73.1703 133.094 78.1127 135.712 82.1324 140.104C86.2754 144.631 89.3625 150.97 90.3872 157.335C91.3985 163.617 89.031 169.278 85.5933 173.516C82.3252 177.545 78.1527 180.211 75.1382 180.903L68.2036 133.682Z" stroke="#73AFD7" stroke-miterlimit="10"/>
<path d="M49.436 157.389C50.6065 157.868 52.1755 158.517 53.77 159.195C55.3657 159.875 56.983 160.583 58.2515 161.179C58.8862 161.477 59.4278 161.744 59.8335 161.965C60.0242 162.069 60.1798 162.159 60.2983 162.235C60.1819 162.493 59.9753 162.753 59.6655 163.005C59.2448 163.348 58.6675 163.654 57.9829 163.906C56.653 164.398 54.997 164.656 53.5083 164.636C53.0856 164.353 52.5714 163.841 52.0181 163.16C51.4246 162.43 50.8146 161.542 50.2583 160.626C49.7022 159.711 49.2042 158.776 48.8325 157.954C48.6712 157.598 48.5384 157.27 48.4341 156.981C48.7173 157.096 49.0558 157.233 49.436 157.389Z" stroke="#73AFD7" stroke-miterlimit="10"/>
<path d="M84.5379 151.071C84.5254 151.379 84.501 151.729 84.4579 152.114C84.3565 153.015 84.1747 154.063 83.9334 155.109C83.6921 156.155 83.3932 157.192 83.0594 158.073C82.7475 158.897 82.4179 159.546 82.1024 159.948C80.7029 160.441 79.0639 160.723 77.6561 160.681C76.9313 160.659 76.2897 160.554 75.7821 160.364C75.4099 160.224 75.1292 160.046 74.9334 159.839C75.0236 159.728 75.1447 159.591 75.2948 159.43C75.6127 159.089 76.0445 158.661 76.5545 158.174C77.5735 157.202 78.8873 156.013 80.1883 154.86C81.4884 153.707 82.7728 152.591 83.7323 151.763C84.0368 151.5 84.3089 151.267 84.5379 151.071Z" stroke="#73AFD7" stroke-miterlimit="10"/>
<mask id="path-84-inside-13_18_2" fill="white">
<path d="M329.176 163.896C329.736 168.016 330.056 170.736 329.896 174.696C333.936 172.656 339.176 170.776 344.216 170.176C338.136 151.136 327.256 107.936 324.816 104.176C320.136 103.496 313.256 104.936 311.856 105.976C310.176 119.856 304.696 168.496 294.616 200.936C297.096 201.216 309.616 200.936 309.616 200.936C310.736 189.256 315.696 166.896 315.696 166.896L330.696 163.576L334.616 154.896L327.616 150.456C326.536 153.176 316.536 157.736 316.536 157.736L320.376 131.616C320.376 131.616 324.016 140.176 326.816 151.616"/>
</mask>
<path d="M329.896 174.696L328.897 174.655L328.828 176.355L330.347 175.588L329.896 174.696ZM344.216 170.176L344.334 171.169L345.537 171.026L345.169 169.872L344.216 170.176ZM324.816 104.176L325.655 103.631L325.408 103.251L324.96 103.186L324.816 104.176ZM311.856 105.976L311.26 105.173L310.915 105.429L310.863 105.856L311.856 105.976ZM294.616 200.936L293.661 200.639L293.302 201.794L294.504 201.93L294.616 200.936ZM309.616 200.936L309.638 201.936L310.527 201.916L310.611 201.031L309.616 200.936ZM315.696 166.896L315.48 165.919L314.858 166.057L314.72 166.679L315.696 166.896ZM330.696 163.576L330.912 164.552L331.401 164.444L331.607 163.987L330.696 163.576ZM334.616 154.896L335.527 155.307L335.885 154.516L335.152 154.051L334.616 154.896ZM327.616 150.456L328.152 149.611L327.132 148.965L326.687 150.087L327.616 150.456ZM316.536 157.736L315.547 157.59L315.279 159.408L316.951 158.646L316.536 157.736ZM320.376 131.616L321.296 131.225L319.904 127.951L319.387 131.47L320.376 131.616ZM328.185 164.031C328.743 168.138 329.053 170.787 328.897 174.655L330.895 174.736C331.059 170.685 330.729 167.894 330.167 163.761L328.185 164.031ZM330.347 175.588C334.312 173.586 339.439 171.752 344.334 171.169L344.098 169.183C338.913 169.8 333.56 171.726 329.445 173.803L330.347 175.588ZM345.169 169.872C342.136 160.376 337.904 144.843 334.115 131.179C332.222 124.354 330.441 117.998 328.98 113.111C328.249 110.668 327.596 108.582 327.046 106.985C326.514 105.436 326.04 104.224 325.655 103.631L323.977 104.72C324.202 105.067 324.602 106.028 325.155 107.636C325.692 109.195 326.336 111.25 327.064 113.684C328.518 118.549 330.295 124.887 332.187 131.713C335.968 145.349 340.216 160.936 343.263 170.48L345.169 169.872ZM324.96 103.186C322.479 102.826 319.477 103.03 316.945 103.444C315.671 103.652 314.492 103.917 313.53 104.201C312.61 104.473 311.765 104.798 311.26 105.173L312.452 106.779C312.647 106.634 313.187 106.388 314.097 106.119C314.965 105.863 316.061 105.615 317.267 105.418C319.695 105.021 322.473 104.846 324.672 105.165L324.96 103.186ZM310.863 105.856C309.179 119.769 303.708 168.305 293.661 200.639L295.571 201.233C305.684 168.687 311.173 119.943 312.849 106.096L310.863 105.856ZM294.504 201.93C295.821 202.078 299.652 202.075 303.056 202.041C304.78 202.023 306.425 201.997 307.639 201.975C308.246 201.964 308.746 201.954 309.094 201.947C309.268 201.944 309.404 201.941 309.496 201.939C309.543 201.938 309.578 201.937 309.602 201.936C309.614 201.936 309.623 201.936 309.629 201.936C309.632 201.936 309.634 201.936 309.636 201.936C309.637 201.936 309.637 201.936 309.638 201.936C309.638 201.936 309.638 201.936 309.638 201.936C309.638 201.936 309.638 201.936 309.616 200.936C309.594 199.936 309.594 199.936 309.594 199.936C309.593 199.936 309.593 199.936 309.593 199.936C309.593 199.936 309.592 199.936 309.591 199.936C309.59 199.936 309.588 199.936 309.585 199.936C309.579 199.936 309.57 199.937 309.558 199.937C309.534 199.937 309.499 199.938 309.453 199.939C309.361 199.941 309.226 199.944 309.053 199.948C308.706 199.955 308.208 199.964 307.603 199.975C306.392 199.997 304.752 200.023 303.036 200.041C299.56 200.076 295.891 200.073 294.728 199.942L294.504 201.93ZM310.611 201.031C311.166 195.245 312.677 186.779 314.057 179.728C314.746 176.209 315.4 173.054 315.882 170.779C316.123 169.642 316.32 168.724 316.458 168.092C316.527 167.775 316.58 167.53 316.617 167.364C316.635 167.281 316.649 167.218 316.658 167.176C316.663 167.155 316.666 167.139 316.669 167.128C316.67 167.123 316.671 167.119 316.671 167.116C316.672 167.115 316.672 167.114 316.672 167.113C316.672 167.113 316.672 167.113 316.672 167.113C316.672 167.112 316.672 167.112 315.696 166.896C314.72 166.679 314.72 166.679 314.72 166.68C314.72 166.68 314.72 166.68 314.719 166.68C314.719 166.681 314.719 166.682 314.719 166.684C314.718 166.686 314.717 166.691 314.716 166.696C314.714 166.707 314.71 166.723 314.705 166.745C314.696 166.788 314.682 166.852 314.663 166.935C314.627 167.103 314.573 167.349 314.504 167.667C314.365 168.303 314.167 169.224 313.925 170.365C313.442 172.647 312.786 175.812 312.095 179.344C310.715 186.393 309.186 194.946 308.621 200.84L310.611 201.031ZM315.912 167.872L330.912 164.552L330.48 162.599L315.48 165.919L315.912 167.872ZM331.607 163.987L335.527 155.307L333.705 154.484L329.785 163.164L331.607 163.987ZM335.152 154.051L328.152 149.611L327.08 151.3L334.08 155.74L335.152 154.051ZM326.687 150.087C326.623 150.247 326.454 150.504 326.115 150.85C325.788 151.185 325.353 151.551 324.832 151.938C323.792 152.712 322.483 153.513 321.181 154.244C319.884 154.972 318.618 155.619 317.674 156.084C317.202 156.316 316.812 156.502 316.541 156.63C316.406 156.694 316.3 156.743 316.228 156.777C316.192 156.793 316.165 156.806 316.147 156.814C316.138 156.818 316.131 156.821 316.127 156.823C316.125 156.824 316.123 156.825 316.122 156.825C316.122 156.826 316.121 156.826 316.121 156.826C316.121 156.826 316.121 156.826 316.121 156.826C316.121 156.826 316.121 156.826 316.536 157.736C316.951 158.646 316.951 158.646 316.951 158.646C316.951 158.646 316.952 158.645 316.952 158.645C316.952 158.645 316.953 158.645 316.953 158.645C316.955 158.644 316.957 158.643 316.96 158.642C316.965 158.639 316.972 158.636 316.982 158.631C317.002 158.622 317.031 158.609 317.069 158.591C317.145 158.556 317.255 158.505 317.395 158.439C317.674 158.307 318.074 158.116 318.557 157.878C319.522 157.403 320.823 156.739 322.161 155.988C323.494 155.239 324.887 154.39 326.026 153.543C326.595 153.12 327.119 152.684 327.545 152.249C327.959 151.825 328.339 151.345 328.545 150.825L326.687 150.087ZM317.525 157.881L321.365 131.761L319.387 131.47L315.547 157.59L317.525 157.881ZM320.376 131.616C319.456 132.007 319.456 132.007 319.456 132.007C319.456 132.007 319.456 132.007 319.456 132.007C319.456 132.007 319.456 132.008 319.456 132.008C319.456 132.009 319.457 132.01 319.458 132.012C319.459 132.016 319.462 132.021 319.465 132.029C319.472 132.045 319.482 132.068 319.495 132.1C319.521 132.163 319.561 132.259 319.613 132.385C319.716 132.637 319.867 133.012 320.058 133.497C320.439 134.469 320.977 135.886 321.603 137.659C322.855 141.206 324.454 146.173 325.845 151.854L327.787 151.378C326.378 145.618 324.757 140.586 323.489 136.993C322.855 135.196 322.308 133.758 321.919 132.767C321.725 132.271 321.57 131.888 321.463 131.627C321.41 131.497 321.369 131.397 321.34 131.329C321.326 131.296 321.315 131.27 321.308 131.252C321.304 131.244 321.302 131.237 321.3 131.232C321.299 131.23 321.298 131.228 321.297 131.227C321.297 131.226 321.297 131.226 321.297 131.225C321.297 131.225 321.296 131.225 321.296 131.225C321.296 131.225 321.296 131.225 320.376 131.616Z" fill="#73AFD7" mask="url(#path-84-inside-13_18_2)"/>
<mask id="path-86-inside-14_18_2" fill="white">
<path d="M299.976 180.576C293.776 176.776 289.976 170.056 289.976 158.376C289.976 139.136 308.656 131.256 308.656 131.256"/>
</mask>
<path d="M300.499 179.723C294.675 176.154 290.976 169.813 290.976 158.376H288.976C288.976 170.298 292.877 177.398 299.453 181.428L300.499 179.723ZM290.976 158.376C290.976 149.115 295.462 142.582 300 138.331C302.27 136.204 304.543 134.66 306.248 133.648C307.099 133.142 307.806 132.771 308.297 132.528C308.543 132.407 308.734 132.317 308.861 132.259C308.925 132.23 308.973 132.208 309.004 132.195C309.019 132.188 309.031 132.183 309.038 132.18C309.041 132.179 309.043 132.178 309.044 132.177C309.045 132.177 309.045 132.177 309.045 132.177C309.045 132.177 309.045 132.177 309.045 132.177C309.045 132.177 309.045 132.177 308.656 131.256C308.267 130.334 308.267 130.335 308.266 130.335C308.266 130.335 308.265 130.335 308.265 130.335C308.264 130.336 308.262 130.337 308.261 130.337C308.257 130.339 308.253 130.341 308.247 130.343C308.236 130.348 308.221 130.354 308.201 130.363C308.161 130.381 308.104 130.406 308.031 130.439C307.885 130.506 307.675 130.604 307.409 130.736C306.879 130.999 306.127 131.394 305.227 131.928C303.429 132.995 301.032 134.623 298.632 136.871C293.83 141.37 288.976 148.396 288.976 158.376H290.976Z" fill="#73AFD7" mask="url(#path-86-inside-14_18_2)"/>
<mask id="path-88-inside-15_18_2" fill="white">
<path d="M334.136 134.696C342.256 135.336 351.216 144.016 351.216 158.256C351.216 172.496 340.496 185.056 322.296 185.056C318.736 185.056 315.296 184.896 312.136 184.456"/>
</mask>
<path d="M334.057 135.693C341.541 136.283 350.216 144.412 350.216 158.256H352.216C352.216 143.619 342.971 134.389 334.215 133.699L334.057 135.693ZM350.216 158.256C350.216 171.937 339.95 184.056 322.296 184.056V186.056C341.042 186.056 352.216 173.055 352.216 158.256H350.216ZM322.296 184.056C318.763 184.056 315.372 183.897 312.274 183.465L311.998 185.446C315.22 185.895 318.709 186.056 322.296 186.056V184.056Z" fill="#73AFD7" mask="url(#path-88-inside-15_18_2)"/>
<path d="M218.088 136.896L218.203 137.236H218.77L218.905 137.134L223.554 133.593L225.624 153.827L225.71 154.674L226.408 154.185L231.156 150.864C232.07 154.227 232.698 160.12 232.922 166.12C233.121 171.437 232.999 176.764 232.504 180.407L226.759 161.908L226.557 161.255L225.995 161.645L222.199 164.289L219.818 144.277L219.716 143.422L219.024 143.934L214.611 147.202C214.771 140.183 213.87 131.703 212.906 124.876C212.596 122.678 212.278 120.649 211.988 118.891L218.088 136.896Z" stroke="#73AFD7" stroke-miterlimit="10"/>
<mask id="path-91-inside-16_18_2" fill="white">
<path d="M224.161 134.736C231.801 133.136 241.441 138.696 244.401 144.736C247.081 150.256 248.682 161.216 233.482 170.096"/>
</mask>
<path d="M244.401 144.736L245.301 144.299L245.299 144.296L244.401 144.736ZM224.366 135.715C227.891 134.976 231.972 135.882 235.575 137.758C239.181 139.636 242.144 142.401 243.504 145.176L245.299 144.296C243.699 141.03 240.362 137.996 236.498 135.984C232.631 133.97 228.072 132.895 223.957 133.757L224.366 135.715ZM243.502 145.173C244.77 147.784 245.768 151.658 244.678 155.907C243.594 160.132 240.402 164.895 232.977 169.232L233.986 170.959C241.761 166.417 245.369 161.259 246.615 156.404C247.855 151.574 246.713 147.207 245.301 144.299L243.502 145.173Z" fill="#73AFD7" mask="url(#path-91-inside-16_18_2)"/>
<mask id="path-93-inside-17_18_2" fill="white">
<path d="M229.281 171.576C219.881 173.816 208.082 172.256 204.522 162.656C200.962 153.056 208.682 143.496 213.962 139.856"/>
</mask>
<path d="M229.05 170.603C224.474 171.693 219.354 171.846 214.987 170.594C210.643 169.349 207.103 166.74 205.459 162.308L203.584 163.003C205.5 168.172 209.64 171.142 214.436 172.517C219.209 173.885 224.689 173.698 229.513 172.549L229.05 170.603ZM205.459 162.308C203.809 157.859 204.75 153.373 206.81 149.489C208.874 145.596 212.012 142.415 214.529 140.679L213.394 139.032C210.631 140.937 207.269 144.355 205.043 148.552C202.813 152.758 201.674 157.853 203.584 163.003L205.459 162.308Z" fill="#73AFD7" mask="url(#path-93-inside-17_18_2)"/>
</g>
<defs>
<clipPath id="clip0_18_2">
<rect width="320" height="160" fill="white"/>
</clipPath>
</defs>
</svg>
