<svg width="80" height="80" viewBox="0 0 80 80" fill="none" xmlns="http://www.w3.org/2000/svg">
<g clip-path="url(#clip0_43_125)">
<path d="M2.36781 41.3333C1.30362 40.3733 1.25042 38.72 2.20818 37.6533C5.40073 34.0267 12.6372 26.8267 20.2461 26.08C17.5856 30.4 14.0206 36.0533 7.95477 44.8C7.63552 45.28 7.47589 45.6533 7.20984 46.24L2.36781 41.3333ZM23.9175 69.3333C23.013 69.76 21.2039 70.4533 20.2993 70.7733C17.16 71.84 14.0738 72.48 10.7216 72.96L7.68873 73.44C7.10342 73.5467 6.57133 73.0133 6.62454 72.48C6.89059 69.3333 7.42268 66.24 8.16761 63.0933C8.59328 61.5467 9.12537 59.9467 9.60426 58.5067C9.92351 57.6 10.1896 56.9067 10.562 56.16C10.8281 55.8933 10.7216 55.68 10.4556 55.4133C10.1896 55.1467 9.8703 55.1467 9.55105 55.3067C8.1144 56.4267 6.83738 57.6533 5.7732 59.0933C3.91087 61.3333 2.58065 64.0533 1.67609 66.7733C0.718324 69.8133 0.133023 72.8533 0.0798138 76.1067C-0.0266046 76.5867 -0.0266046 77.0133 0.0798138 77.4933C0.186232 77.9733 0.34586 78.4533 0.718324 78.9333C1.144 79.36 1.67609 79.68 2.15497 79.84C2.63385 80 3.05953 80 3.53841 80C6.51812 79.8933 9.44463 79.4133 12.1051 78.6133C16.8939 77.2267 21.6295 74.6133 24.6625 70.4533C24.9285 70.1867 24.8221 69.8667 24.5028 69.4933C24.3964 69.2267 24.2368 69.2267 23.9175 69.3333ZM80 2.88C79.7339 11.7867 78.0845 33.76 66.4849 45.4933C61.2172 50.7733 58.5035 52.48 52.4376 56.32C48.1277 58.9333 42.1151 62.72 32.3778 69.5467C31.8989 69.8667 31.3136 70.0267 30.8347 70.0267C30.1962 70.0267 29.3981 69.7067 28.9192 69.2267L11.0941 51.3067C10.1363 50.3467 10.0299 48.9067 10.7749 47.7867C17.5856 37.9733 21.3103 32.0533 23.9707 27.6267C27.7486 21.6 29.5045 18.7733 34.7722 13.4933C46.425 1.86667 68.294 0.16 77.1799 0H77.2331C77.9248 0 78.6698 0.32 79.1486 0.8C79.6275 1.28 79.9468 2.02667 80 2.88ZM50.9478 20.96C47.7552 21.3333 45.2012 24 44.7755 27.1467C44.2434 31.8933 48.1277 35.84 52.7037 35.0933C55.8962 34.6667 58.4503 32.0533 58.8759 28.9067C59.408 24.2133 55.577 20.3733 50.9478 20.96ZM33.8676 73.12L38.7629 78.0267C39.8271 78.9867 41.4233 79.0933 42.4343 78.1333C46.0525 74.9333 53.289 67.6267 53.9275 60.0533C49.8304 62.72 44.0838 66.2933 35.3043 72.4267C34.8254 72.64 34.3465 72.8533 33.8676 73.12Z" fill="url(#paint0_linear_43_125)"/>
</g>
<defs>
<linearGradient id="paint0_linear_43_125" x1="1.66774" y1="78.6281" x2="78.7043" y2="1.66019" gradientUnits="userSpaceOnUse">
<stop stop-color="#3298CB"/>
<stop offset="1" stop-color="#38BFC3"/>
</linearGradient>
<clipPath id="clip0_43_125">
<rect width="80" height="80" fill="white"/>
</clipPath>
</defs>
</svg>
