<svg width="32" height="32" viewBox="0 0 32 32" fill="none" xmlns="http://www.w3.org/2000/svg">
<path d="M15.9993 1.3438C17.9785 1.3438 19.8973 1.7311 21.7035 2.49467C23.4485 3.23247 25.0161 4.28984 26.3621 5.63584C27.7088 6.98258 28.7654 8.54948 29.5032 10.2946C30.2667 12.1008 30.654 14.0197 30.654 15.9989C30.654 17.9781 30.2667 19.897 29.5032 21.7032C28.7654 23.4483 27.7081 25.0159 26.3621 26.362C25.0161 27.708 23.4485 28.7653 21.7035 29.5031C19.8973 30.2667 17.9785 30.654 15.9993 30.654C14.0201 30.654 12.1012 30.2667 10.2951 29.5031C8.55002 28.7653 6.98242 27.708 5.63645 26.362C4.28974 25.0152 3.23313 23.4483 2.49535 21.7032C1.7318 19.897 1.3445 17.9781 1.3445 15.9989C1.3445 14.0197 1.7318 12.1008 2.49535 10.2946C3.23313 8.54948 4.29047 6.98185 5.63645 5.63584C6.98242 4.28984 8.55002 3.23247 10.2951 2.49467C12.1012 1.7311 14.0201 1.3438 15.9993 1.3438ZM15.9993 0C7.16282 0 0 7.16298 0 15.9996C0 24.8363 7.16355 32 16 32C24.8364 32 32 24.8363 32 15.9996C32 7.16298 24.8357 0 15.9993 0Z" fill="white"/>
<path d="M25.4734 21.6517H15.7497L16.4764 18.8573H26.2001L25.4734 21.6517Z" fill="white"/>
<path d="M24.2761 14.6028L23.5567 17.3972H15.7393L16.4602 14.6028H24.2761Z" fill="white"/>
<path d="M18.7553 10.3483H28.479L27.7522 13.1427H18.0285L18.7553 10.3483Z" fill="white"/>
<path d="M13.47 21.6517H3.74634L4.47308 18.8573H14.1968L13.47 21.6517Z" fill="white"/>
<path d="M4.45688 14.6028H12.2728L11.5534 17.3972H3.73604L4.45688 14.6028Z" fill="white"/>
<path d="M6.75195 10.3483H16.4757L15.7489 13.1427H6.02521L6.75195 10.3483Z" fill="white"/>
</svg>
