<svg width="52" height="24" viewBox="0 0 52 24" fill="none" xmlns="http://www.w3.org/2000/svg">
<path d="M52 23.9946C51.6192 24.0296 51.2383 23.8895 50.8575 23.7494C50.4767 23.6092 50.1305 23.4341 49.7843 23.259C49.0919 22.8736 48.4341 22.4183 47.8455 21.8578C47.257 21.2974 46.7377 20.6668 46.3569 19.8612C46.1838 19.4759 46.0453 19.0205 46.0106 18.5651L45.976 18.2849C45.976 18.1798 45.9414 18.1098 45.9414 18.0047C45.9068 17.8295 45.8722 17.6544 45.8375 17.4792C45.6644 16.8137 45.3529 16.2182 44.9028 15.7628C44.4527 15.3075 43.8642 14.9572 43.241 14.747C42.5832 14.5368 41.8908 14.3967 41.1638 14.2916C40.4367 14.1866 39.6751 14.1866 38.8096 14.0114C38.3941 13.9414 37.9095 13.8012 37.4594 13.556C37.0093 13.3108 36.5593 12.9255 36.2823 12.4702C36.0053 12.0148 35.8322 11.5244 35.7284 11.034C35.6245 10.5786 35.6245 10.0882 35.6245 9.77297C35.5899 9.07239 35.4514 8.37182 35.2091 7.8464C34.9667 7.356 34.5859 7.00571 34.032 6.76051C33.755 6.65542 33.4088 6.55034 33.0972 6.48028C32.751 6.41022 32.4394 6.34017 31.9893 6.27011C31.1931 6.13 30.3622 5.91982 29.5313 5.56954C29.1158 5.3944 28.7004 5.1492 28.3196 4.83394C27.9387 4.51868 27.5925 4.13337 27.3502 3.74805C27.281 3.64297 27.2117 3.53788 27.1771 3.4328C27.1079 3.32771 27.0732 3.22263 27.004 3.11754C26.9001 2.9424 26.8309 2.76726 26.7616 2.62714C26.6232 2.34691 26.4501 2.17177 26.3116 2.06668C26.0346 1.85651 25.6192 1.85651 24.8921 2.06668C24.2344 2.24183 23.6458 2.52206 23.265 2.90737C22.8842 3.29268 22.6764 3.81811 22.4341 4.58874C22.3648 4.76388 22.2956 5.00908 22.2264 5.18423L22.0186 5.74468C21.8802 6.13 21.7417 6.51531 21.534 6.90062C21.1531 7.67125 20.5992 8.44188 19.8722 9.00234C19.526 9.28257 19.1451 9.52777 18.7643 9.70291C18.5566 9.80799 18.3835 9.87805 18.1758 9.98314C18.0027 10.0532 17.8296 10.1233 17.6565 10.1933C16.3063 10.7888 15.0599 11.5945 13.9521 12.5752C12.8442 13.556 11.8402 14.712 10.9055 15.938C10.4208 16.5335 10.0053 17.164 9.55526 17.8295C9.10519 18.46 8.62051 19.0906 8.1012 19.686C7.06258 20.877 5.92011 22.033 4.53529 22.8036C3.84288 23.1889 3.11585 23.5042 2.31957 23.6443C1.55792 23.8194 0.761651 23.8194 0 23.8895C0.761651 23.7494 1.5233 23.6443 2.25033 23.3991C2.97736 23.1539 3.66977 22.8386 4.25832 22.3832C5.50466 21.5075 6.50866 20.3516 7.40879 19.1256C7.85886 18.4951 8.2743 17.8646 8.68975 17.234C9.10519 16.6035 9.48602 15.903 9.93609 15.2374C10.8016 13.9063 11.8056 12.6453 12.9481 11.5244C14.0905 10.4035 15.4754 9.45771 16.9294 8.72211C17.1025 8.61702 17.2756 8.54697 17.4834 8.47691C17.6565 8.40685 17.7949 8.33679 17.9334 8.23171C18.2104 8.05657 18.522 7.88142 18.7643 7.67125C19.249 7.25091 19.6298 6.72548 19.9068 6.09497C20.0453 5.77971 20.1838 5.46445 20.2876 5.07914L20.4607 4.51868C20.53 4.34354 20.5646 4.20343 20.5992 3.99325C20.7031 3.64297 20.8069 3.1876 21.0146 2.76726C21.1877 2.34691 21.4647 1.89154 21.8455 1.54126C22.5726 0.805657 23.4381 0.420343 24.2344 0.175143C24.4421 0.105086 24.6152 0.0700571 24.8575 0C25.2383 0.105086 25.4807 0.0700571 25.7577 0.0700571C26.277 0.0700571 26.9001 0.210171 27.3848 0.560457C28.3888 1.26103 28.6312 2.34691 28.9427 2.73223C29.2543 3.22263 29.7044 3.57291 30.2929 3.81811C30.8815 4.09834 31.5739 4.27348 32.3009 4.4136C32.6471 4.48365 33.0626 4.55371 33.478 4.6588C33.8935 4.76388 34.3089 4.86897 34.7244 5.07914C35.1398 5.25428 35.5899 5.49948 35.9707 5.84977C36.3515 6.20005 36.6631 6.6204 36.8708 7.07577C37.2863 7.98651 37.3901 8.86222 37.4594 9.70291C37.494 10.1583 37.494 10.4735 37.5286 10.7538C37.5632 11.069 37.6671 11.3142 37.771 11.5244C37.9095 11.7346 38.0479 11.8747 38.2557 12.0148C38.4634 12.1549 38.775 12.225 39.0865 12.295C39.7443 12.4351 40.506 12.4702 41.3369 12.6103C42.1332 12.7504 42.964 12.9255 43.7603 13.2758C44.5566 13.6261 45.3182 14.1165 45.9068 14.8171C46.4953 15.5176 46.8762 16.3934 46.98 17.234C47.0146 17.4442 47.0493 17.6544 47.0493 17.8646C47.0493 17.9696 47.0493 18.0747 47.0493 18.1798V18.46C47.0493 18.7753 47.1185 19.1256 47.2224 19.4408C47.4301 20.1064 47.8109 20.7369 48.2956 21.2974C48.7803 21.8578 49.3342 22.4183 49.9228 22.8736C50.2344 23.1188 50.5459 23.329 50.8575 23.5042C51.273 23.7494 51.6192 23.9595 52 23.9946Z" fill="white"/>
</svg>
