<svg width="39" height="26" viewBox="0 0 39 26" fill="none" xmlns="http://www.w3.org/2000/svg">
<path fill-rule="evenodd" clip-rule="evenodd" d="M6.57628 0.203803H0V1.81656L0.936066 2.02037C1.43985 2.12949 1.57335 2.44402 1.57335 2.95112V12.2041C1.57335 12.671 1.40489 12.9519 0.905871 13.0722L0.0174817 13.2873V14.9H6.1742V13.2873L4.83924 13.0722C4.34181 12.992 4.23374 12.7143 4.23374 12.2041V9.74402H6.57628C9.26369 9.74402 11.6063 8.28529 11.6063 4.98272C11.6063 1.68016 9.28434 0.203803 6.57628 0.203803ZM6.32995 7.70276H4.24645V2.2322H6.32995C7.82858 2.2322 8.74397 3.15973 8.74397 4.96828C8.74397 6.77682 7.8254 7.70436 6.32995 7.70436V7.70276Z" fill="white"/>
<path fill-rule="evenodd" clip-rule="evenodd" d="M38.3881 12.058C37.2773 12.5475 36.1028 12.8459 35.0205 12.8459C32.7114 12.8459 30.8265 11.5012 30.8265 7.57276C30.8265 4.70831 31.3764 2.12308 34.2037 2.12308C34.8314 2.12308 35.491 2.25626 36.2919 2.55154L36.7163 4.69387H38.6774L39 1.16344C37.3059 0.226269 36.017 0 34.7027 0C29.8523 0 27.9659 3.42773 27.9659 7.71398C27.9659 13.1332 30.9998 15.0653 34.2561 15.0653C35.8724 15.0653 37.3297 14.7122 38.7759 14.0254L38.3881 12.0564V12.058Z" fill="white"/>
<path fill-rule="evenodd" clip-rule="evenodd" d="M19.6701 15.1022C22.963 15.1022 25.0862 13.3258 25.0862 10.1628V2.79706C25.0862 2.31885 25.3373 2.10221 25.6837 2.02679L26.6611 1.81656V0.203803H20.8175V1.81656L21.7996 2.02679C22.1413 2.099 22.394 2.33009 22.394 2.79706V9.83866C22.394 12.3052 21.0384 12.9615 19.6701 12.9615C18.3017 12.9615 16.9476 12.3084 16.9476 9.83866V2.79706C16.9476 2.32848 17.1988 2.10061 17.5404 2.02679L18.5226 1.81656V0.203803H12.6774V1.81656L13.6547 2.02679C14.0028 2.10221 14.2539 2.31885 14.2539 2.79706V10.1644C14.2539 13.3258 16.3772 15.1038 19.6701 15.1038V15.1022Z" fill="white"/>
<path fill-rule="evenodd" clip-rule="evenodd" d="M35.6101 18.4674C33.5203 18.4674 32.2202 20.0946 32.2202 22.253C32.2202 24.5686 33.3629 26 35.6101 26C37.6984 26 38.9984 24.4129 38.9984 22.253C38.9984 19.9373 37.8589 18.4674 35.6101 18.4674ZM35.6101 24.9361C34.291 24.9361 33.7014 23.8753 33.7014 22.253C33.7014 20.6306 34.3276 19.5313 35.6101 19.5313C36.8927 19.5313 37.5188 20.6306 37.5188 22.253C37.5188 23.8753 36.9292 24.9361 35.6101 24.9361Z" fill="white"/>
<path fill-rule="evenodd" clip-rule="evenodd" d="M28.2297 25.8989V25.095L28.6795 24.9875C28.9273 24.928 29.0132 24.7868 29.0132 24.5542V19.9405C29.0132 19.6886 28.9433 19.5313 28.6954 19.4767L28.2313 19.3741V18.5701H31.0522V19.3741L30.5882 19.4767C30.3402 19.5313 30.2703 19.6918 30.2703 19.9405V24.5542C30.2703 24.7836 30.3561 24.928 30.6025 24.9875L31.0522 25.095V25.8989H28.2297Z" fill="white"/>
<path fill-rule="evenodd" clip-rule="evenodd" d="M27.1204 24.9425C26.8677 24.9425 26.6404 24.7563 26.3337 24.3519L25.493 23.2414C25.2896 22.9719 25.0608 22.8723 24.8224 22.8306C25.3563 22.7391 26.5451 22.2994 26.5451 20.7894C26.5451 19.2793 25.5201 18.5732 23.9832 18.5732H20.9033V19.3772L21.3674 19.4799C21.6184 19.5345 21.6852 19.695 21.6852 19.9437V24.5573C21.6852 24.7852 21.5962 24.9329 21.3515 24.9906L20.9033 25.0981V25.9021H23.9785V25.0981L23.3126 24.9906C23.071 24.9521 23.0075 24.8125 23.0075 24.5878L23.0043 23.0649H23.4652C23.7496 23.0649 23.9308 23.2607 24.0484 23.4212L25.3071 25.1463C25.6885 25.6678 26.1843 26 26.7342 26C27.0092 26 27.2952 25.9278 27.5813 25.7689L27.5844 24.8606C27.5034 24.9007 27.2714 24.9425 27.1204 24.9425ZM23.8927 22.0459H23.0138V19.589H23.8927C24.5887 19.589 25.1656 20.0207 25.1656 20.7878C25.1656 21.5548 24.7365 22.0443 23.8927 22.0443V22.0459Z" fill="white"/>
</svg>
