<svg width="44" height="22" viewBox="0 0 44 22" fill="none" xmlns="http://www.w3.org/2000/svg">
<path d="M34.9653 15.84C34.9653 16.0747 34.9653 16.28 34.9947 16.5147C34.3787 15.488 33 14.96 31.0933 14.5493C28.6293 14.0507 28.2773 13.816 28.336 13.288C28.3947 12.76 29.216 12.2907 30.448 12.2907C31.416 12.2907 32.3547 12.5253 33.2347 12.9067V10.4133C32.2667 10.12 31.2693 9.944 30.272 9.944C27.1627 9.944 25.08 11.44 24.904 13.4933V13.5227C24.1413 11.4987 22.3813 9.97333 19.36 9.97333C15.7227 9.97333 13.2293 12.6427 13.2293 15.8693C13.2293 15.9573 13.2293 16.0453 13.2293 16.104C12.5547 14.608 10.7653 13.9333 8.33067 13.4053C5.48533 12.7893 5.07467 12.5253 5.07467 11.8507C5.07467 11.2347 5.808 10.7067 6.92267 10.7067C7.48 10.7067 8.03733 10.824 8.56533 11.0293L9.064 11.2347C22.528 -1.232 39.6587 2.288 44 4.37067C44 4.37067 38.1627 0 30.5067 0C21.6773 0 14.696 4.752 10.824 8.536C9.56267 8.096 8.24267 7.86133 6.92267 7.86133C3.54933 7.86133 1.17333 9.56267 1.17333 12.1147C1.17333 14.08 2.2 14.96 3.98933 15.576H4.01867C2.69867 16.6027 1.056 18.3627 0 19.5067C0.410667 19.8293 0.88 20.152 1.34933 20.416C3.22667 21.4427 5.28 21.9413 7.42133 21.9413H7.45067C11.0587 21.9413 13.3467 20.3867 13.464 17.8347C14.2267 20.152 16.368 21.6773 19.272 21.6773C20.1813 21.6773 21.0613 21.56 21.9413 21.3253V18.8613C20.7093 19.2133 20.1813 19.2427 19.4773 19.2133C18.04 19.1253 16.8667 18.3333 16.544 16.896H25.2267C25.256 16.6027 25.2853 16.4267 25.2853 16.104V16.0747C25.2853 15.7813 25.256 15.4587 25.2267 15.1653C25.9013 16.0747 27.3387 16.456 29.3333 16.8373C31.768 17.336 31.8853 17.688 31.8853 18.2747C31.8853 18.7733 31.24 19.36 29.8027 19.3013C28.336 19.2427 26.6053 18.8027 25.2853 18.0693V20.944C26.7227 21.5893 28.4533 22 29.832 22C33.1173 22 35.3467 20.0933 35.3467 18.0107C35.3467 17.952 35.3467 17.9227 35.3467 17.864C35.9333 19.2133 37.0773 20.24 38.368 20.8853C39.6587 21.5013 41.0373 21.7067 42.1813 21.7067C42.7973 21.7067 43.384 21.6773 43.9707 21.56V19.1253C43.6773 19.184 43.384 19.184 43.0907 19.184C40.656 19.184 38.6907 17.6587 38.6907 15.7813C38.6907 13.904 40.6853 12.408 43.0907 12.408C43.384 12.408 43.6773 12.4373 43.9707 12.4667V10.0907C43.4133 10.0027 42.856 9.97333 42.2987 9.97333C38.104 9.97333 34.9653 12.4667 34.9653 15.84ZM7.50933 18.9787C6.04267 18.9787 4.664 18.5387 3.256 17.6293C3.784 16.896 4.312 16.2213 4.69333 15.7813C5.25067 15.928 5.896 16.0747 6.57067 16.2213C9.35733 16.808 9.592 17.336 9.592 17.8933C9.592 18.568 8.82933 18.9787 7.50933 18.9787ZM16.5733 14.9893C16.8667 13.552 17.864 12.6133 19.3893 12.6133C20.944 12.6133 21.912 13.5813 22.1173 14.9893H16.5733Z" fill="white"/>
</svg>
