<svg width="24" height="24" viewBox="0 0 24 24" fill="none" xmlns="http://www.w3.org/2000/svg">
<path fill-rule="evenodd" clip-rule="evenodd" d="M18.7316 5.26098C16.9458 3.48142 14.5706 2.5009 12.0399 2.5C6.82519 2.5 2.5812 6.72318 2.57938 11.9142C2.57847 13.5737 3.0144 15.1934 3.84224 16.6209L2.5 21.5L7.51513 20.1908C8.89682 20.9411 10.4527 21.3361 12.0358 21.3366H12.0399C17.2537 21.3366 21.4982 17.1129 21.5 11.9219C21.5009 9.40608 20.5179 7.04099 18.7316 5.26143V5.26098ZM12.0399 19.7466H12.0367C10.626 19.7462 9.24204 19.3688 8.03454 18.656L7.74739 18.4863L4.77124 19.2631L5.56551 16.3753L5.37862 16.0792C4.5916 14.8332 4.17564 13.3931 4.17655 11.9147C4.17836 7.60032 7.70565 4.08995 12.0431 4.08995C14.1433 4.09086 16.1175 4.9057 17.6021 6.38505C19.0868 7.86396 19.9037 9.83042 19.9028 11.921C19.901 16.2358 16.3737 19.7462 12.0399 19.7462V19.7466ZM16.3528 13.8861C16.1165 13.7683 14.9544 13.1994 14.7375 13.1209C14.5207 13.0423 14.3633 13.0031 14.2059 13.2387C14.0485 13.4744 13.5954 14.0044 13.4575 14.161C13.3196 14.3181 13.1816 14.3376 12.9453 14.2197C12.709 14.1019 11.9474 13.8536 11.0442 13.0523C10.3416 12.4284 9.86709 11.6583 9.72924 11.4226C9.59133 11.187 9.71472 11.0597 9.83263 10.9427C9.93876 10.8371 10.069 10.6678 10.1873 10.5306C10.3058 10.3933 10.3448 10.295 10.4237 10.1383C10.5026 9.98117 10.4632 9.84398 10.4042 9.72611C10.3452 9.6083 9.87258 8.45034 9.67524 7.97951C9.48334 7.52086 9.28833 7.58316 9.14361 7.57549C9.00571 7.56871 8.84832 7.56736 8.69046 7.56736C8.53261 7.56736 8.27674 7.62605 8.05993 7.8617C7.84312 8.09733 7.23254 8.66659 7.23254 9.82407C7.23254 10.9816 8.07946 12.1007 8.19784 12.2578C8.31622 12.4149 9.86482 14.7908 12.2359 15.8101C12.7997 16.0525 13.2402 16.1974 13.5835 16.3058C14.1497 16.485 14.665 16.4598 15.0723 16.3992C15.5264 16.3315 16.4708 15.83 16.6677 15.2806C16.8645 14.7312 16.8645 14.2599 16.8056 14.1619C16.7466 14.064 16.5888 14.0048 16.3524 13.887L16.3528 13.8861Z" fill="white"/>
</svg>
