<svg width="24" height="24" viewBox="0 0 24 24" fill="none" xmlns="http://www.w3.org/2000/svg">
<path fill-rule="evenodd" clip-rule="evenodd" d="M5.70001 6.49096C5.70001 4.56296 7.25876 3 9.18157 3H14.8185C16.7413 3 18.3 4.56296 18.3 6.49096C18.3 7.61033 17.7746 8.60666 16.9576 9.24549C17.7746 9.88435 18.3 10.8807 18.3 12.0001C18.3 13.9281 16.7413 15.491 14.8185 15.491H14.7471C13.9972 15.491 13.3027 15.2533 12.7345 14.849V17.4733C12.7345 19.4272 11.1356 21 9.19929 21C7.28264 21 5.70001 19.4432 5.70001 17.509C5.70001 16.3897 6.22542 15.3934 7.04243 14.7546C6.22542 14.1157 5.70001 13.1194 5.70001 12.0001C5.70001 10.8807 6.22543 9.88435 7.04247 9.24549C6.22543 8.60666 5.70001 7.61033 5.70001 6.49096ZM9.18157 8.50903C8.07002 8.50903 7.16894 7.60551 7.16894 6.49096C7.16894 5.37642 8.07002 4.4729 9.18157 4.4729H11.2655V8.50903H9.18157ZM11.2655 9.98193H9.18157C8.07005 9.98193 7.16894 10.8855 7.16894 12.0001C7.16894 13.1146 8.07002 14.0181 9.18157 14.0181H11.2655V9.98193ZM11.2655 15.491H9.18157C8.07 15.491 7.16894 16.3945 7.16894 17.509C7.16894 18.6174 8.08159 19.5271 9.19929 19.5271C10.3367 19.5271 11.2655 18.6014 11.2655 17.4733V15.491ZM14.8185 9.98193L14.7471 9.98201C13.6356 9.98201 12.7345 10.8855 12.7345 12.0001C12.7345 13.1146 13.6356 14.0181 14.7471 14.0181H14.8185C15.93 14.0181 16.8311 13.1146 16.8311 12.0001C16.8311 10.8856 15.9302 9.98216 14.8189 9.98193C14.8187 9.98193 14.8186 9.98193 14.8185 9.98193ZM12.7345 8.50903V4.4729H14.8185C15.93 4.4729 16.8311 5.37642 16.8311 6.49096C16.8311 7.60551 15.93 8.50903 14.8185 8.50903H12.7345Z" fill="white"/>
</svg>
