<svg width="24" height="24" viewBox="0 0 24 24" fill="none" xmlns="http://www.w3.org/2000/svg">
<path d="M8.06555 2.56644C7.05474 2.61413 6.36446 2.77544 5.76102 3.01257C5.13648 3.25596 4.60714 3.58257 4.08045 4.11116C3.55377 4.63974 3.22943 5.16947 2.98775 5.79495C2.75386 6.39973 2.5954 7.09058 2.55075 8.10196C2.5061 9.11334 2.49622 9.43843 2.50116 12.0183C2.5061 14.5981 2.5175 14.9215 2.56652 15.935C2.61478 16.9456 2.77552 17.6357 3.01264 18.2393C3.25641 18.8639 3.58265 19.393 4.11142 19.9199C4.6402 20.4468 5.16954 20.7703 5.79655 21.0124C6.40075 21.2459 7.09179 21.4051 8.10298 21.4494C9.11417 21.4937 9.43965 21.5039 12.0187 21.499C14.5978 21.4941 14.9225 21.4827 15.9358 21.4346C16.9491 21.3865 17.6356 21.2246 18.2394 20.9886C18.8639 20.7443 19.3935 20.4186 19.92 19.8897C20.4465 19.3607 20.7706 18.8306 21.0121 18.2047C21.2462 17.6005 21.4052 16.9095 21.4491 15.8991C21.4934 14.885 21.5038 14.5613 21.4989 11.9818C21.4939 9.40233 21.4823 9.07895 21.4343 8.06586C21.3862 7.05277 21.2253 6.36477 20.9883 5.76075C20.7442 5.13622 20.4183 4.60744 19.8898 4.08019C19.3612 3.55293 18.8307 3.22898 18.205 2.98806C17.6004 2.75416 16.9098 2.59475 15.8986 2.55105C14.8874 2.50735 14.5619 2.49614 11.9819 2.50108C9.40184 2.50602 9.07883 2.51704 8.06555 2.56644ZM8.17651 19.7403C7.25025 19.7001 6.74732 19.5462 6.41215 19.4173C5.96831 19.2463 5.65215 19.0396 5.31812 18.7088C4.9841 18.378 4.7789 18.0607 4.60562 17.6178C4.47547 17.2827 4.31871 16.7803 4.27539 15.854C4.22827 14.8529 4.21839 14.5523 4.21288 12.016C4.20737 9.47966 4.21706 9.17946 4.26095 8.17796C4.30047 7.25246 4.45533 6.74895 4.58396 6.41398C4.75496 5.96957 4.96092 5.65397 5.29247 5.32014C5.62403 4.98631 5.94038 4.78072 6.38365 4.60744C6.71844 4.47672 7.2208 4.3213 8.14668 4.27722C9.14856 4.22972 9.44877 4.22022 11.9847 4.21471C14.5207 4.2092 14.8216 4.2187 15.8239 4.26278C16.7494 4.30306 17.2531 4.45639 17.5877 4.58578C18.0317 4.75678 18.3477 4.96218 18.6815 5.2943C19.0154 5.62642 19.2211 5.94164 19.3944 6.38586C19.5253 6.71969 19.6807 7.22187 19.7244 8.14832C19.7721 9.1502 19.783 9.45059 19.7875 11.9864C19.7921 14.5221 19.7832 14.8233 19.7393 15.8244C19.6988 16.7507 19.5453 17.2538 19.4163 17.5893C19.2453 18.033 19.0391 18.3493 18.7074 18.683C18.3756 19.0166 18.0597 19.2222 17.6162 19.3955C17.2818 19.526 16.7789 19.6818 15.8537 19.7259C14.8519 19.773 14.5516 19.7829 12.0147 19.7884C9.47784 19.7939 9.17858 19.7837 8.1767 19.7403M15.9212 6.92262C15.9216 7.1481 15.9888 7.36842 16.1144 7.55569C16.24 7.74296 16.4183 7.88878 16.6268 7.97471C16.8352 8.06063 17.0645 8.08281 17.2856 8.03842C17.5067 7.99403 17.7096 7.88508 17.8688 7.72534C18.0279 7.56561 18.1361 7.36226 18.1797 7.14102C18.2233 6.91978 18.2003 6.69059 18.1136 6.48243C18.0269 6.27427 17.8804 6.0965 17.6927 5.97159C17.505 5.84668 17.2844 5.78025 17.0589 5.7807C16.7566 5.78131 16.467 5.90194 16.2536 6.11608C16.0402 6.33022 15.9207 6.62033 15.9212 6.92262ZM7.12219 12.0095C7.12751 14.7038 9.31558 16.8829 12.0092 16.8778C14.7029 16.8726 16.8835 14.6848 16.8784 11.9905C16.8733 9.29631 14.6846 7.11661 11.9906 7.12193C9.29658 7.12725 7.11706 9.31569 7.12219 12.0095ZM8.83335 12.0061C8.83211 11.3798 9.01663 10.7672 9.36356 10.2457C9.7105 9.72425 10.2043 9.31738 10.7825 9.07655C11.3606 8.83572 11.9972 8.77175 12.6118 8.89272C13.2263 9.0137 13.7912 9.31418 14.2349 9.75618C14.6787 10.1982 14.9814 10.7619 15.1048 11.3759C15.2282 11.9899 15.1667 12.6268 14.9282 13.2059C14.6897 13.785 14.2848 14.2804 13.7647 14.6294C13.2446 14.9784 12.6327 15.1654 12.0064 15.1666C11.5905 15.1675 11.1785 15.0864 10.794 14.9281C10.4094 14.7697 10.0598 14.5371 9.76519 14.2436C9.47054 13.9501 9.23659 13.6015 9.0767 13.2176C8.91681 12.8336 8.83412 12.422 8.83335 12.0061Z" fill="white"/>
</svg>
