<svg width="24" height="24" viewBox="0 0 24 24" fill="none" xmlns="http://www.w3.org/2000/svg">
<path d="M18.3369 18.3372H15.6698V14.1604C15.6698 13.1644 15.652 11.8822 14.2827 11.8822C12.8936 11.8822 12.6811 12.9674 12.6811 14.0879V18.3369H10.014V9.74767H12.5744V10.9215H12.6102C12.8665 10.4834 13.2367 10.1229 13.6816 9.87862C14.1264 9.63429 14.6292 9.5152 15.1364 9.53402C17.8396 9.53402 18.338 11.3121 18.338 13.6253L18.3369 18.3372ZM7.00472 8.57358C6.69861 8.57363 6.39935 8.48291 6.1448 8.31289C5.89025 8.14286 5.69185 7.90117 5.57465 7.61837C5.45746 7.33558 5.42675 7.02438 5.48641 6.72413C5.54608 6.42388 5.69344 6.14807 5.90985 5.93157C6.12626 5.71507 6.40201 5.56761 6.70223 5.50784C7.00245 5.44806 7.31364 5.47866 7.59647 5.59575C7.8793 5.71285 8.12105 5.91119 8.29116 6.16569C8.46128 6.42018 8.5521 6.71941 8.55216 7.02553C8.5522 7.22879 8.51219 7.43006 8.43445 7.61786C8.3567 7.80566 8.24274 7.9763 8.09905 8.12005C7.95535 8.2638 7.78474 8.37784 7.59698 8.45566C7.40922 8.53347 7.20797 8.57354 7.00472 8.57358ZM8.33824 18.3372H5.66842V9.74767H8.33824V18.3372ZM19.6665 3.00123H4.32824C3.98011 2.9973 3.64464 3.13175 3.39558 3.37503C3.14652 3.61832 3.00425 3.95053 3 4.29867V19.7011C3.0041 20.0494 3.14629 20.3818 3.39534 20.6254C3.64439 20.8689 3.97994 21.0036 4.32824 20.9999H19.6665C20.0155 21.0043 20.352 20.8699 20.602 20.6264C20.852 20.3829 20.9952 20.0501 21 19.7011V4.29756C20.995 3.94873 20.8518 3.61614 20.6017 3.37286C20.3517 3.12958 20.0153 2.99551 19.6665 3.00011" fill="white"/>
</svg>
