<svg width="52" height="32" viewBox="0 0 52 32" fill="none" xmlns="http://www.w3.org/2000/svg">
<path d="M52 27.9946C51.6192 28.0296 51.2383 27.8895 50.8575 27.7494C50.4767 27.6092 50.1305 27.4341 49.7843 27.259C49.0919 26.8736 48.4341 26.4183 47.8455 25.8578C47.257 25.2974 46.7377 24.6668 46.3569 23.8612C46.1838 23.4759 46.0453 23.0205 46.0107 22.5651L45.976 22.2849C45.976 22.1798 45.9414 22.1098 45.9414 22.0047C45.9068 21.8295 45.8722 21.6544 45.8375 21.4792C45.6644 20.8137 45.3529 20.2182 44.9028 19.7628C44.4527 19.3075 43.8642 18.9572 43.241 18.747C42.5832 18.5368 41.8908 18.3967 41.1638 18.2916C40.4367 18.1866 39.6751 18.1866 38.8096 18.0114C38.3941 17.9414 37.9095 17.8012 37.4594 17.556C37.0093 17.3108 36.5593 16.9255 36.2823 16.4702C36.0053 16.0148 35.8322 15.5244 35.7284 15.034C35.6245 14.5786 35.6245 14.0882 35.6245 13.773C35.5899 13.0724 35.4514 12.3718 35.2091 11.8464C34.9667 11.356 34.5859 11.0057 34.032 10.7605C33.755 10.6554 33.4088 10.5503 33.0972 10.4803C32.751 10.4102 32.4394 10.3402 31.9893 10.2701C31.1931 10.13 30.3622 9.91982 29.5313 9.56954C29.1158 9.3944 28.7004 9.1492 28.3196 8.83394C27.9387 8.51868 27.5925 8.13337 27.3502 7.74805C27.281 7.64297 27.2117 7.53788 27.1771 7.4328C27.1079 7.32771 27.0732 7.22263 27.004 7.11754C26.9001 6.9424 26.8309 6.76726 26.7617 6.62714C26.6232 6.34691 26.4501 6.17177 26.3116 6.06668C26.0346 5.85651 25.6192 5.85651 24.8921 6.06668C24.2344 6.24183 23.6458 6.52206 23.265 6.90737C22.8842 7.29268 22.6764 7.81811 22.4341 8.58874C22.3648 8.76388 22.2956 9.00908 22.2264 9.18423L22.0186 9.74468C21.8802 10.13 21.7417 10.5153 21.534 10.9006C21.1531 11.6713 20.5992 12.4419 19.8722 13.0023C19.526 13.2826 19.1451 13.5278 18.7643 13.7029C18.5566 13.808 18.3835 13.8781 18.1758 13.9831C18.0027 14.0532 17.8296 14.1233 17.6565 14.1933C16.3063 14.7888 15.0599 15.5945 13.9521 16.5752C12.8442 17.556 11.8402 18.712 10.9055 19.938C10.4208 20.5335 10.0053 21.164 9.55526 21.8295C9.10519 22.46 8.62051 23.0906 8.1012 23.686C7.06258 24.877 5.92011 26.033 4.53529 26.8036C3.84288 27.1889 3.11585 27.5042 2.31957 27.6443C1.55792 27.8194 0.761651 27.8194 0 27.8895C0.761651 27.7494 1.5233 27.6443 2.25033 27.3991C2.97736 27.1539 3.66977 26.8386 4.25832 26.3832C5.50466 25.5075 6.50866 24.3516 7.40879 23.1256C7.85886 22.4951 8.2743 21.8646 8.68975 21.234C9.10519 20.6035 9.48602 19.903 9.93609 19.2374C10.8016 17.9063 11.8056 16.6453 12.9481 15.5244C14.0905 14.4035 15.4754 13.4577 16.9294 12.7221C17.1025 12.617 17.2756 12.547 17.4834 12.4769C17.6565 12.4069 17.7949 12.3368 17.9334 12.2317C18.2104 12.0566 18.522 11.8814 18.7643 11.6713C19.249 11.2509 19.6298 10.7255 19.9068 10.095C20.0453 9.77971 20.1838 9.46445 20.2876 9.07914L20.4607 8.51868C20.53 8.34354 20.5646 8.20343 20.5992 7.99325C20.7031 7.64297 20.8069 7.1876 21.0146 6.76726C21.1877 6.34691 21.4647 5.89154 21.8455 5.54126C22.5726 4.80566 23.4381 4.42034 24.2344 4.17514C24.4421 4.10509 24.6152 4.07006 24.8575 4C25.2383 4.10509 25.4807 4.07006 25.7577 4.07006C26.277 4.07006 26.9001 4.21017 27.3848 4.56046C28.3888 5.26103 28.6312 6.34691 28.9427 6.73223C29.2543 7.22263 29.7044 7.57291 30.2929 7.81811C30.8815 8.09834 31.5739 8.27348 32.3009 8.4136C32.6471 8.48365 33.0626 8.55371 33.478 8.6588C33.8935 8.76388 34.3089 8.86897 34.7244 9.07914C35.1398 9.25428 35.5899 9.49948 35.9707 9.84977C36.3515 10.2001 36.6631 10.6204 36.8708 11.0758C37.2863 11.9865 37.3901 12.8622 37.4594 13.7029C37.494 14.1583 37.494 14.4735 37.5286 14.7538C37.5632 15.069 37.6671 15.3142 37.771 15.5244C37.9095 15.7346 38.0479 15.8747 38.2557 16.0148C38.4634 16.1549 38.775 16.225 39.0865 16.295C39.7443 16.4351 40.506 16.4702 41.3369 16.6103C42.1332 16.7504 42.964 16.9255 43.7603 17.2758C44.5566 17.6261 45.3182 18.1165 45.9068 18.8171C46.4953 19.5176 46.8762 20.3934 46.98 21.234C47.0146 21.4442 47.0493 21.6544 47.0493 21.8646C47.0493 21.9696 47.0493 22.0747 47.0493 22.1798V22.46C47.0493 22.7753 47.1185 23.1256 47.2224 23.4408C47.4301 24.1064 47.8109 24.7369 48.2956 25.2974C48.7803 25.8578 49.3342 26.4183 49.9228 26.8736C50.2344 27.1188 50.5459 27.329 50.8575 27.5042C51.273 27.7494 51.6192 27.9595 52 27.9946Z" fill="white"/>
</svg>
