<svg width="52" height="32" viewBox="0 0 52 32" fill="none" xmlns="http://www.w3.org/2000/svg">
<path fill-rule="evenodd" clip-rule="evenodd" d="M6.57628 3.2038H0V4.81656L0.936066 5.02037C1.43985 5.12949 1.57335 5.44402 1.57335 5.95112V15.2041C1.57335 15.671 1.40489 15.9519 0.905871 16.0722L0.0174817 16.2873V17.9H6.1742V16.2873L4.83924 16.0722C4.34181 15.992 4.23374 15.7143 4.23374 15.2041V12.744H6.57628C9.26369 12.744 11.6063 11.2853 11.6063 7.98272C11.6063 4.68016 9.28434 3.2038 6.57628 3.2038ZM6.32995 10.7028H4.24645V5.2322H6.32995C7.82858 5.2322 8.74397 6.15973 8.74397 7.96828C8.74397 9.77682 7.8254 10.7044 6.32995 10.7044V10.7028Z" fill="white"/>
<path fill-rule="evenodd" clip-rule="evenodd" d="M38.3881 15.058C37.2773 15.5475 36.1028 15.8459 35.0205 15.8459C32.7114 15.8459 30.8265 14.5012 30.8265 10.5728C30.8265 7.70831 31.3764 5.12308 34.2037 5.12308C34.8314 5.12308 35.491 5.25626 36.2919 5.55154L36.7163 7.69387H38.6774L39 4.16344C37.3059 3.22627 36.017 3 34.7027 3C29.8523 3 27.9659 6.42773 27.9659 10.714C27.9659 16.1332 30.9998 18.0653 34.2561 18.0653C35.8724 18.0653 37.3297 17.7122 38.776 17.0254L38.3881 15.0564V15.058Z" fill="white"/>
<path fill-rule="evenodd" clip-rule="evenodd" d="M19.6701 18.1022C22.963 18.1022 25.0862 16.3258 25.0862 13.1628V5.79706C25.0862 5.31885 25.3373 5.10221 25.6837 5.02679L26.6611 4.81656V3.2038H20.8175V4.81656L21.7996 5.02679C22.1413 5.099 22.394 5.33009 22.394 5.79706V12.8387C22.394 15.3052 21.0384 15.9615 19.6701 15.9615C18.3017 15.9615 16.9476 15.3084 16.9476 12.8387V5.79706C16.9476 5.32848 17.1988 5.10061 17.5404 5.02679L18.5226 4.81656V3.2038H12.6774V4.81656L13.6547 5.02679C14.0028 5.10221 14.2539 5.31885 14.2539 5.79706V13.1644C14.2539 16.3258 16.3772 18.1038 19.6701 18.1038V18.1022Z" fill="white"/>
<path fill-rule="evenodd" clip-rule="evenodd" d="M35.6101 21.4674C33.5203 21.4674 32.2202 23.0946 32.2202 25.253C32.2202 27.5686 33.3629 29 35.6101 29C37.6984 29 38.9984 27.4129 38.9984 25.253C38.9984 22.9373 37.8589 21.4674 35.6101 21.4674ZM35.6101 27.9361C34.291 27.9361 33.7014 26.8753 33.7014 25.253C33.7014 23.6306 34.3276 22.5313 35.6101 22.5313C36.8927 22.5313 37.5188 23.6306 37.5188 25.253C37.5188 26.8753 36.9292 27.9361 35.6101 27.9361Z" fill="white"/>
<path fill-rule="evenodd" clip-rule="evenodd" d="M28.2297 28.8989V28.095L28.6795 27.9875C28.9273 27.928 29.0132 27.7868 29.0132 27.5542V22.9405C29.0132 22.6886 28.9433 22.5313 28.6954 22.4767L28.2313 22.3741V21.5701H31.0522V22.3741L30.5882 22.4767C30.3402 22.5313 30.2703 22.6918 30.2703 22.9405V27.5542C30.2703 27.7836 30.3561 27.928 30.6025 27.9875L31.0522 28.095V28.8989H28.2297Z" fill="white"/>
<path fill-rule="evenodd" clip-rule="evenodd" d="M27.1204 27.9425C26.8677 27.9425 26.6404 27.7563 26.3337 27.3519L25.493 26.2414C25.2896 25.9719 25.0608 25.8723 24.8224 25.8306C25.3563 25.7391 26.5451 25.2994 26.5451 23.7894C26.5451 22.2793 25.5201 21.5732 23.9832 21.5732H20.9033V22.3772L21.3674 22.4799C21.6184 22.5345 21.6852 22.695 21.6852 22.9437V27.5573C21.6852 27.7852 21.5962 27.9329 21.3515 27.9906L20.9033 28.0981V28.9021H23.9785V28.0981L23.3126 27.9906C23.071 27.9521 23.0075 27.8125 23.0075 27.5878L23.0043 26.0649H23.4652C23.7496 26.0649 23.9308 26.2607 24.0484 26.4212L25.3071 28.1463C25.6885 28.6678 26.1843 29 26.7342 29C27.0092 29 27.2952 28.9278 27.5813 28.7689L27.5844 27.8606C27.5034 27.9007 27.2714 27.9425 27.1204 27.9425ZM23.8927 25.0459H23.0138V22.589H23.8927C24.5887 22.589 25.1656 23.0207 25.1656 23.7878C25.1656 24.5548 24.7365 25.0443 23.8927 25.0443V25.0459Z" fill="white"/>
</svg>
