<svg width="44" height="32" viewBox="0 0 44 32" fill="none" xmlns="http://www.w3.org/2000/svg">
<path d="M19.8573 16.7778C19.8321 17.3299 19.7786 17.7917 19.6998 18.1562C19.6179 18.5208 19.5107 18.8299 19.3721 19.0799C19.2492 19.2917 19.0696 19.4444 18.8396 19.5312C18.6096 19.6215 18.1905 19.6632 17.5823 19.6632H16.0037V16.3368H16.3598C16.7725 16.3368 17.053 16.4514 17.1979 16.6736C17.3429 16.8958 17.4248 17.3819 17.4437 18.1319H18.5465V13.2569H17.4437V13.3507C17.4437 13.9444 17.3618 14.3576 17.1979 14.5868C17.0341 14.8194 16.7505 14.9375 16.3472 14.9375H16.0037V12.0035H17.4185C17.9542 12.0035 18.3449 12.0451 18.5844 12.1319C18.827 12.2153 19.0286 12.3611 19.1988 12.566C19.3437 12.7431 19.4698 12.9757 19.5706 13.2674C19.6714 13.559 19.7691 13.9653 19.8605 14.4826H21.2627V10.5H11.9484V12H12.3801C12.6984 12 12.8937 12.0486 12.9788 12.1458C13.067 12.2431 13.1111 12.5 13.1111 12.9167V18.8229C13.1111 19.2153 13.0639 19.4549 12.9725 19.5382C12.8811 19.6215 12.6889 19.6597 12.3959 19.6597H11.9516V21.1771H21.3162V16.7778H19.8573Z" fill="white"/>
<path d="M4.96907 21.5C6.28617 21.5 7.29133 21.2049 7.97824 20.6111C8.662 20.0174 9.0023 19.1528 9.0023 18.0104V12.8646C9.0023 12.4792 9.04641 12.2396 9.13149 12.1458C9.21972 12.0486 9.41823 12.0035 9.73017 12.0035H10.1366V10.5035H6.02149V12.0035H6.47208C6.78402 12.0035 6.98253 12.0521 7.06761 12.1424C7.15584 12.2361 7.1968 12.4896 7.1968 12.9132V17.75C7.1968 18.4931 7.06761 19.0278 6.80608 19.3542C6.54455 19.6806 6.11287 19.8437 5.51103 19.8437C5.00373 19.8437 4.64452 19.6806 4.4334 19.3507C4.22229 19.0174 4.11516 18.441 4.11516 17.6181V12.9132C4.11516 12.5104 4.15927 12.2569 4.2475 12.1563C4.33573 12.0521 4.54054 12.0035 4.85879 12.0035H5.35034V10.5035H0V12.0035H0.450588C0.765684 12.0035 0.964192 12.0556 1.05872 12.1563C1.14695 12.2535 1.19422 12.5069 1.19422 12.9132V18.1458C1.19422 19.2118 1.52192 20.0417 2.18047 20.6285C2.83902 21.2118 3.76855 21.5 4.96907 21.5Z" fill="white"/>
<path d="M34.2604 18.1632H33.3592C33.3592 18.2049 33.3624 18.2674 33.3655 18.3542C33.3687 18.434 33.3718 18.4965 33.3718 18.5312C33.3718 18.8993 33.3403 19.1771 33.2836 19.3576C33.2269 19.5417 33.1386 19.6285 33.0189 19.6285C32.8929 19.6285 32.8046 19.5555 32.7511 19.4062C32.6975 19.2604 32.6723 18.993 32.6723 18.6111C32.6723 17.3403 32.5652 16.5278 32.3509 16.1736C32.1366 15.8229 31.7302 15.5972 31.1252 15.5104C31.727 15.3646 32.1871 15.0833 32.5148 14.6701C32.8425 14.2639 33.0063 13.7569 33.0063 13.1597C33.0063 12.2674 32.7416 11.6007 32.2091 11.1597C31.6766 10.7187 30.8731 10.5 29.7923 10.5H23.6858V12.0139H24.13C24.4451 12.0139 24.6437 12.0625 24.7319 12.1597C24.8201 12.2569 24.8611 12.5104 24.8611 12.9201V18.7396C24.8611 19.1562 24.817 19.4167 24.7287 19.5139C24.6405 19.6146 24.4388 19.6632 24.13 19.6632H23.6858V21.1805H29.0203V19.6632H28.5193C28.2137 19.6632 28.0183 19.6111 27.927 19.5139C27.8387 19.4167 27.7946 19.1597 27.7946 18.7396V16.3542H28.5855C29.0834 16.3542 29.4111 16.4514 29.5655 16.6458C29.7262 16.8368 29.8018 17.2917 29.8018 18V18.8958C29.8018 19.7812 29.9845 20.4236 30.3532 20.8298C30.7187 21.2326 31.3079 21.4375 32.1083 21.4375C32.8645 21.4375 33.4128 21.2118 33.7531 20.7604C34.0934 20.309 34.2635 19.5833 34.2635 18.5868C34.2635 18.5417 34.2604 18.4722 34.2572 18.375C34.2635 18.2778 34.2604 18.2083 34.2604 18.1632ZM29.6946 14.5868C29.4741 14.7951 29.0897 14.9028 28.5477 14.9028H27.7726V12.0833H28.6422C29.1558 12.0833 29.515 12.191 29.7167 12.4062C29.9215 12.625 30.0255 13 30.0255 13.5382C30.0255 14.0312 29.9152 14.3785 29.6946 14.5868Z" fill="white"/>
<path d="M40.9656 21.25C41.4288 21.0833 41.8132 20.8264 42.1252 20.4826C42.3962 20.1875 42.5884 19.8299 42.705 19.4097C42.8215 18.9896 42.8783 18.3889 42.8783 17.6007V12.8333C42.8783 12.4444 42.9255 12.2049 43.0137 12.1215C43.102 12.0382 43.2942 12 43.5872 12H44V10.5H38.7064V12H39.2011C39.5162 12 39.7147 12.0486 39.7998 12.1424C39.888 12.2396 39.929 12.4931 39.929 12.9132V17.4444C39.929 18.4028 39.8344 19.0417 39.6454 19.3646C39.4563 19.6805 39.1192 19.8368 38.6339 19.8368C38.3944 19.8368 38.1865 19.7743 38.01 19.6458C37.8336 19.5174 37.6918 19.3194 37.5846 19.0625C37.654 19.0799 37.717 19.0903 37.7768 19.0972C37.8399 19.1042 37.8966 19.1076 37.9533 19.1076C38.2905 19.1076 38.5583 18.9792 38.7663 18.7187C38.9742 18.4583 39.075 18.1146 39.075 17.691C39.075 17.243 38.9616 16.8819 38.7316 16.618C38.5047 16.3507 38.1959 16.2187 37.8021 16.2187C37.279 16.2187 36.8505 16.4271 36.5259 16.8437C36.1982 17.2604 36.0344 17.8056 36.0344 18.4757C36.0344 19.3646 36.34 20.0868 36.9513 20.6528C37.5657 21.2187 38.3598 21.4965 39.3397 21.4965C39.9573 21.5 40.5024 21.4201 40.9656 21.25Z" fill="white"/>
</svg>
