<svg width="80" height="80" viewBox="0 0 80 80" fill="none" xmlns="http://www.w3.org/2000/svg">
<path fill-rule="evenodd" clip-rule="evenodd" d="M68 55.5924H64.1325V57.4197H60.3667V59.653H56.3974V61.4803H52.2246V63.5106H48.357V65.4394H44.3877V67.6727H40.4184V69.5H40.378V67.6727H36.4087V65.4394H32.5412V63.5106H28.4701V61.4803H24.6026V59.653H20.6333V57.4197H16.7658V55.5924H13V27H68V55.5924ZM72 59.5924H68.1325V61.4197H64.3667V63.653H60.3974V65.4803H56.2246V67.5106H52.357V69.4394H48.3877V71.6727H44.4184V73.5H36.378V71.6727H32.4087V69.4394H28.5412V67.5106H24.4701V65.4803H20.6026V63.653H16.6333V61.4197H12.7658V59.5924H9V23H72V59.5924Z" fill="url(#paint0_linear_172_24)"/>
<path d="M12.7658 26.1939H9V20.2045H12.7658V18.3773H16.6333V16.347H20.6026V14.5197H24.4701V12.4894H28.5412V10.4591H32.4087V8.5303H36.378V6.5H44.4184V8.5303H48.3877V10.4591H52.357V12.4894H56.2246V14.5197H60.3974V16.347H64.3667V18.3773H68.1325V20.2045H72V26.1939H68.1325V28.2242H64.3667V30.153H60.3974V32.1833H56.2246V34.2136H52.357V36.1424H48.3877V38.1727H44.4184V40H36.378V38.1727H32.4087V36.1424H28.5412V34.2136H24.4701V32.1833H20.6026V30.153H16.6333V28.2242H12.7658V26.1939Z" fill="url(#paint1_linear_172_24)"/>
<defs>
<linearGradient id="paint0_linear_172_24" x1="9" y1="40" x2="72" y2="40" gradientUnits="userSpaceOnUse">
<stop stop-color="#3298CB"/>
<stop offset="1" stop-color="#38BFC3"/>
</linearGradient>
<linearGradient id="paint1_linear_172_24" x1="9" y1="40" x2="72" y2="40" gradientUnits="userSpaceOnUse">
<stop stop-color="#3298CB"/>
<stop offset="1" stop-color="#38BFC3"/>
</linearGradient>
</defs>
</svg>
