<svg width="32" height="32" viewBox="0 0 32 32" fill="none" xmlns="http://www.w3.org/2000/svg">
<path d="M30.303 20.5046C30.2552 19.5534 30.0245 18.5684 29.6022 17.6105C26.884 11.6235 21.0883 7.67205 15.1794 5.6681C14.3219 5.40376 13.4339 5.17784 12.5307 5.01517C13.0639 4.5814 13.608 4.19055 14.1608 3.85392C17.7323 1.44556 22.9599 0.808454 25.9916 4.44132C27.452 6.14028 28.1615 8.46956 28.316 10.8011C28.6033 5.73361 25.4606 1.00953 20.2808 0.84912C16.7398 0.81975 13.4209 2.3583 10.6786 4.78021C9.03111 4.66951 7.37923 4.83217 5.82312 5.45121C5.64684 5.5235 5.48578 5.6071 5.32473 5.69295C5.75348 5.17106 6.2214 4.67177 6.73067 4.19733C9.6579 1.43878 13.7081 -0.0319865 17.778 0.169087C13.7495 -0.470281 9.39456 0.718083 6.1474 3.48792C-0.799602 9.188 -1.43293 20.3961 4.77846 26.9751C7.73398 30.1674 11.9736 32.081 16.2415 31.9974C16.2415 31.9974 16.2545 31.9974 16.261 31.9974C20.7596 31.9477 25.2299 29.8262 28.0548 26.1821C30.8972 22.6509 32.1269 17.7731 31.1867 13.2953C31.4718 15.7511 31.1366 18.225 30.303 20.5046ZM14.7789 6.95587C19.4211 8.65482 23.7565 11.5964 26.7991 15.6359C28.3138 17.8116 29.9592 21.0513 28.1941 23.5049C27.6609 24.2075 26.9449 24.6729 26.1549 24.9824C26.1984 24.5938 26.2223 24.2075 26.218 23.8324C26.218 22.7186 26.0918 21.6206 25.8676 20.543C25.9786 20.3193 26.0939 20.0934 26.1962 19.8675C26.5227 19.1513 27.0515 17.6918 27.0515 17.6918C26.7512 18.3583 26.416 19.0248 26.0482 19.68C25.9612 19.8336 25.8676 19.985 25.7784 20.1386C25.206 17.685 24.1112 15.3648 22.714 13.3111C23.4474 15.2925 24.4921 18.6091 24.7598 21.7313C23.8066 23.0982 22.7097 24.3702 21.4887 25.4749C20.1981 25.3642 18.9119 25.0976 17.6387 24.7407C15.8323 24.2188 14.0651 23.5003 12.361 22.6238C13.9454 23.7127 15.6517 24.639 17.458 25.3213C18.4766 25.7121 19.5278 26.0194 20.6029 26.2295C19.4625 27.14 18.2285 27.8968 16.9161 28.4458C15.4558 27.759 14.0607 26.7672 12.7854 25.8454C13.6189 26.9095 14.6527 27.9827 15.8214 28.848C14.7289 29.1936 13.5884 29.4015 12.4088 29.4218C12.3762 29.4218 12.3501 29.4354 12.3196 29.4399C11.473 29.4196 10.6395 29.2479 9.85596 28.9451C8.95493 28.4797 8.12356 27.9352 7.36835 27.323C7.21818 27.1694 7.07019 27.0135 6.93308 26.8463C2.4345 20.7147 6.03205 11.2078 11.3729 6.04539C12.5481 6.22839 13.719 6.54468 14.7811 6.95813L14.7789 6.95587ZM16.2393 30.5582C15.6517 30.5469 15.0662 30.4972 14.4851 30.4159C15.3426 30.2284 16.1718 29.9528 16.9705 29.6003C17.5233 29.9166 18.1001 30.1719 18.6921 30.3617C17.8803 30.495 17.0598 30.5627 16.2393 30.5582ZM21.9653 29.0626C20.7052 29.4512 19.4516 29.3473 18.2307 28.9632C19.4581 28.2696 20.6007 27.4021 21.6389 26.399C22.0742 26.4554 22.5138 26.4984 22.9556 26.521C23.38 26.5323 23.8327 26.5255 24.2897 26.5006C23.8523 27.6348 23.1166 28.543 21.9653 29.0626ZM23.3103 25.5246C23.2799 25.5201 23.1406 25.5246 23.1079 25.5246C22.899 25.5314 22.6922 25.5314 22.4833 25.5269C23.3473 24.5803 24.1221 23.541 24.8055 22.4453C24.8534 23.4845 24.8012 24.4876 24.6118 25.3958C24.1787 25.4659 23.7413 25.5066 23.3103 25.5246ZM2.68043 10.4735C2.74137 11.5828 3.09394 12.7305 3.70768 13.7991C2.9416 11.7229 2.87848 10.1233 3.29417 8.92367C3.44434 8.6006 3.60539 8.27979 3.7795 7.96349C4.88946 6.38202 7.11372 5.79461 9.5382 5.87143C5.68819 9.85674 3.25064 15.611 3.43781 20.8457C3.4574 21.4557 3.51616 22.0702 3.61627 22.6802C1.70106 18.9705 1.3289 14.5063 2.68043 10.4735ZM25.5934 27.2484C25.7196 26.9321 25.8262 26.6068 25.9133 26.277C26.0504 26.2453 26.1919 26.2205 26.3246 26.1798C26.5466 26.1166 26.7555 26.0443 26.9579 25.9629C26.5292 26.4215 26.0743 26.8485 25.5934 27.2484Z" fill="white"/>
</svg>
