<svg width="56" height="32" viewBox="0 0 56 32" fill="none" xmlns="http://www.w3.org/2000/svg">
<path d="M29.803 20.5046C29.7552 19.5534 29.5245 18.5684 29.1022 17.6105C26.384 11.6235 20.5883 7.67205 14.6794 5.6681C13.8219 5.40376 12.9339 5.17784 12.0307 5.01517C12.5639 4.5814 13.108 4.19055 13.6608 3.85392C17.2323 1.44556 22.4599 0.808454 25.4916 4.44132C26.952 6.14028 27.6615 8.46956 27.816 10.8011C28.1033 5.73361 24.9606 1.00953 19.7808 0.84912C16.2398 0.81975 12.9209 2.3583 10.1786 4.78021C8.53111 4.66951 6.87923 4.83217 5.32312 5.45121C5.14684 5.5235 4.98578 5.6071 4.82473 5.69295C5.25348 5.17106 5.7214 4.67177 6.23067 4.19733C9.1579 1.43878 13.2081 -0.0319865 17.278 0.169087C13.2495 -0.470281 8.89456 0.718083 5.6474 3.48792C-1.2996 9.188 -1.93293 20.3961 4.27846 26.9751C7.23398 30.1674 11.4736 32.081 15.7415 31.9974C15.7415 31.9974 15.7545 31.9974 15.761 31.9974C20.2596 31.9477 24.7299 29.8262 27.5548 26.1821C30.3972 22.6509 31.6269 17.7731 30.6867 13.2953C30.9718 15.7511 30.6366 18.225 29.803 20.5046ZM14.2789 6.95587C18.9211 8.65482 23.2565 11.5964 26.2991 15.6359C27.8138 17.8116 29.4592 21.0513 27.6941 23.5049C27.1609 24.2075 26.4449 24.6729 25.6549 24.9824C25.6984 24.5938 25.7223 24.2075 25.718 23.8324C25.718 22.7186 25.5918 21.6206 25.3676 20.543C25.4786 20.3193 25.5939 20.0934 25.6962 19.8675C26.0227 19.1513 26.5515 17.6918 26.5515 17.6918C26.2512 18.3583 25.916 19.0248 25.5482 19.68C25.4612 19.8336 25.3676 19.985 25.2784 20.1386C24.706 17.685 23.6112 15.3648 22.214 13.3111C22.9474 15.2925 23.9921 18.6091 24.2598 21.7313C23.3066 23.0982 22.2097 24.3702 20.9887 25.4749C19.6981 25.3642 18.4119 25.0976 17.1387 24.7407C15.3323 24.2188 13.5651 23.5003 11.861 22.6238C13.4454 23.7127 15.1517 24.639 16.958 25.3213C17.9766 25.7121 19.0278 26.0194 20.1029 26.2295C18.9625 27.14 17.7285 27.8968 16.4161 28.4458C14.9558 27.759 13.5607 26.7672 12.2854 25.8454C13.1189 26.9095 14.1527 27.9827 15.3214 28.848C14.2289 29.1936 13.0884 29.4015 11.9088 29.4218C11.8762 29.4218 11.8501 29.4354 11.8196 29.4399C10.973 29.4196 10.1395 29.2479 9.35596 28.9451C8.45493 28.4797 7.62356 27.9352 6.86835 27.323C6.71818 27.1694 6.57019 27.0135 6.43308 26.8463C1.9345 20.7147 5.53205 11.2078 10.8729 6.04539C12.0481 6.22839 13.219 6.54468 14.2811 6.95813L14.2789 6.95587ZM15.7393 30.5582C15.1517 30.5469 14.5662 30.4972 13.9851 30.4159C14.8426 30.2284 15.6718 29.9528 16.4705 29.6003C17.0233 29.9166 17.6001 30.1719 18.1921 30.3617C17.3803 30.495 16.5598 30.5627 15.7393 30.5582ZM21.4653 29.0626C20.2052 29.4512 18.9516 29.3473 17.7307 28.9632C18.9581 28.2696 20.1007 27.4021 21.1389 26.399C21.5742 26.4554 22.0138 26.4984 22.4556 26.521C22.88 26.5323 23.3327 26.5255 23.7897 26.5006C23.3523 27.6348 22.6166 28.543 21.4653 29.0626ZM22.8103 25.5246C22.7799 25.5201 22.6406 25.5246 22.6079 25.5246C22.399 25.5314 22.1922 25.5314 21.9833 25.5269C22.8473 24.5803 23.6221 23.541 24.3055 22.4453C24.3534 23.4845 24.3012 24.4876 24.1118 25.3958C23.6787 25.4659 23.2413 25.5066 22.8103 25.5246ZM2.18043 10.4735C2.24137 11.5828 2.59394 12.7305 3.20768 13.7991C2.4416 11.7229 2.37848 10.1233 2.79417 8.92367C2.94434 8.6006 3.10539 8.27979 3.2795 7.96349C4.38946 6.38202 6.61372 5.79461 9.0382 5.87143C5.18819 9.85674 2.75064 15.611 2.93781 20.8457C2.9574 21.4557 3.01616 22.0702 3.11627 22.6802C1.20106 18.9705 0.828898 14.5063 2.18043 10.4735ZM25.0934 27.2484C25.2196 26.9321 25.3262 26.6068 25.4133 26.277C25.5504 26.2453 25.6919 26.2205 25.8246 26.1798C26.0466 26.1166 26.2555 26.0443 26.4579 25.9629C26.0292 26.4215 25.5743 26.8485 25.0934 27.2484Z" fill="white"/>
</svg>
