<svg width="80" height="80" viewBox="0 0 80 80" fill="none" xmlns="http://www.w3.org/2000/svg">
<path d="M15.3067 13.8031C33.44 14.2276 42.5067 22.6643 42.5067 39.1663C42.5067 47.4439 40.16 53.8112 35.52 58.2684C30.88 62.7255 23.9467 65.0602 14.8267 65.0602H1.38667C0.48 65.0602 0 64.5827 0 63.6275V14.9704C0 14.4929 0.106667 14.1745 0.266667 14.0153C0.426667 13.8031 0.8 13.75 1.33333 13.75C7.94667 13.75 12.5867 13.75 15.3067 13.8031ZM10.2933 22.0276V56.8888C10.2933 57.2071 10.3467 57.4194 10.5067 57.5255C10.6667 57.6316 10.88 57.6847 11.2 57.6847H12.96C19.4667 57.6847 24.2667 56.252 27.2533 53.3867C30.24 50.5214 31.7333 45.799 31.7333 39.1663C31.7333 34.8684 31.1467 31.4724 29.92 28.9255C28.6933 26.3786 26.9333 24.4684 24.5333 23.301C22.1333 22.0806 19.04 21.3908 15.2 21.2316L10.9867 21.0724C10.5067 21.0724 10.2933 21.3908 10.2933 22.0276ZM69.28 34.4969C67.7867 33.7541 66.08 33.3827 64.16 33.3827C62.1333 33.3827 60.4267 33.8071 59.1467 34.6031C57.8133 35.452 57.1733 36.5133 57.1733 37.8398C57.1733 38.6357 57.4933 39.3255 58.1333 39.9622C58.7733 40.599 59.9467 41.1296 61.6533 41.6071L69.92 43.8357C73.3867 44.7378 75.9467 46.0643 77.5467 47.8684C79.1467 49.6725 80 51.7949 80 54.2888C80 56.6235 79.3067 58.6929 77.9733 60.3908C76.5867 62.1418 74.72 63.4684 72.2667 64.3704C69.8133 65.2724 67.04 65.75 63.9467 65.75C60.1067 65.75 56.7467 65.0602 53.8667 63.6275C50.9867 62.1949 48.96 60.3908 47.7333 58.1092C47.5733 57.7908 47.4667 57.5255 47.4667 57.3663C47.4667 57.101 47.6267 56.8357 47.8933 56.6765L52 54.6071C52.32 54.3949 52.5867 54.3418 52.8533 54.3418C53.0133 54.3418 53.2267 54.448 53.4933 54.7133C54.6133 56.3051 55.9467 57.5255 57.5467 58.4275C59.1467 59.3296 61.2267 59.8071 63.7867 59.8071C66.1333 59.8071 68.1067 59.3827 69.6 58.5867C71.0933 57.7908 71.84 56.6765 71.84 55.2439C71.84 54.2888 71.4133 53.4398 70.6133 52.8031C69.8133 52.1133 68.4267 51.5296 66.4 51.052L59.3067 49.4071C55.7867 48.5582 53.2267 47.3378 51.5733 45.6929C49.8667 43.9949 49.0667 41.8724 49.0667 39.2724C49.0667 36.9908 49.7067 35.0275 50.9333 33.2765C52.16 31.5255 53.92 30.1459 56.2133 29.1908C58.5067 28.2357 61.1733 27.7582 64.2667 27.7582C67.5733 27.7582 70.4533 28.3949 73.0133 29.6153C75.5733 30.8357 77.44 32.3745 78.6667 34.2847C78.88 34.6561 79.04 34.9745 79.04 35.1867C79.04 35.399 78.9333 35.6112 78.6667 35.7173L74.3467 37.8398C74.08 37.9459 73.92 37.999 73.8667 37.999C73.4933 37.999 73.1733 37.8398 72.96 37.5214C72 36.248 70.7733 35.2398 69.28 34.4969Z" fill="url(#paint0_linear_43_117)"/>
<defs>
<linearGradient id="paint0_linear_43_117" x1="0" y1="39.7493" x2="80" y2="39.7493" gradientUnits="userSpaceOnUse">
<stop stop-color="#3298CB"/>
<stop offset="1" stop-color="#38BFC3"/>
</linearGradient>
</defs>
</svg>
