<svg width="268" height="56" viewBox="0 0 268 56" fill="none" xmlns="http://www.w3.org/2000/svg">
<path d="M81.5122 17.3952V18.726H69.4952V27.0712H81.4014V28.3466H69.4952V37.274H81.5675V38.6048H68V17.3952H81.5122Z" fill="white"/>
<path d="M85.8818 17.1179L95.296 36.0541L104.904 17.1179H105.264V38.6048H103.852V22.3025L95.4067 38.8821H95.0745L86.9617 22.4134V38.6048H85.5218V17.1179H85.8818Z" fill="white"/>
<path d="M117.56 17.1179L126.891 38.6048H125.285L122.128 31.2577H112.548L109.392 38.6048H107.841L117.172 17.1179H117.56ZM112.991 30.2041H121.685L117.338 20.0568L112.991 30.2041Z" fill="white"/>
<path d="M129.849 17.1179L144.911 35.2778V17.3952H146.351V38.8821H146.019L130.928 20.6945V38.6048H129.489V17.1179H129.849Z" fill="white"/>
<path d="M152.015 17.3952V30.1487C152.015 31.2947 152.117 32.3297 152.32 33.2539C152.541 34.1596 152.892 34.9359 153.372 35.5828C153.87 36.2112 154.516 36.701 155.31 37.0522C156.104 37.3849 157.082 37.5513 158.245 37.5513C160.423 37.5513 162.011 36.9413 163.008 35.7214C164.023 34.5015 164.53 32.6439 164.53 30.1487V17.3952H165.97V30.121C165.97 33.1153 165.306 35.324 163.977 36.7473C162.648 38.1705 160.737 38.8821 158.245 38.8821C155.605 38.8821 153.658 38.1335 152.403 36.6364C151.166 35.1392 150.548 32.9766 150.548 30.1487V17.3952H152.015Z" fill="white"/>
<path d="M183.669 17.3952V18.726H171.652V27.0712H183.558V28.3466H171.652V37.274H183.724V38.6048H170.157V17.3952H183.669Z" fill="white"/>
<path d="M189.174 17.3952V37.274H200V38.6048H187.678V17.3952H189.174Z" fill="white"/>
<path d="M13.5042 17.3918V20.2406H2.90354V26.2394H13.3946V28.9512H2.90354V35.4979H13.559V38.3466H0V17.3918H13.5042Z" fill="white"/>
<path d="M25.47 17.3918C26.4561 17.3918 27.3052 17.5562 28.0174 17.8849C28.7296 18.2136 29.314 18.6519 29.7705 19.1997C30.2453 19.7475 30.5922 20.3867 30.8114 21.1171C31.0488 21.8293 31.1675 22.578 31.1675 23.3633C31.1675 24.5503 30.8936 25.6551 30.3457 26.6777C29.8161 27.6821 28.9853 28.4125 27.8531 28.869L33.2219 38.3466H29.9896L25.0317 29.2799H20.2107V38.3466H17.3072V17.3918H25.47ZM20.2107 27.116H25.0591C25.6252 27.116 26.1091 27.0247 26.5109 26.842C26.9126 26.6412 27.2413 26.3855 27.497 26.0751C27.7709 25.7646 27.9718 25.3994 28.0996 24.9794C28.2274 24.5594 28.2913 24.1211 28.2913 23.6646C28.2913 23.2081 28.2274 22.7789 28.0996 22.3772C27.9718 21.9572 27.7709 21.5919 27.497 21.2815C27.2413 20.9528 26.9126 20.6971 26.5109 20.5145C26.1091 20.3319 25.6252 20.2406 25.0591 20.2406H20.2107V27.116Z" fill="white"/>
<path d="M38.6414 17.3918V38.3466H35.7378V17.3918H38.6414Z" fill="white"/>
<path d="M58.0278 22.3772C57.206 21.6832 56.3204 21.108 55.3708 20.6515C54.4212 20.1949 53.3438 19.9667 52.1385 19.9667C51.1342 19.9667 50.2028 20.1402 49.3446 20.4871C48.4863 20.8341 47.7376 21.3363 47.0984 21.9937C46.4775 22.6511 45.9845 23.4728 45.6193 24.4589C45.2723 25.4268 45.0988 26.5407 45.0988 27.8008C45.0988 29.079 45.2814 30.2112 45.6467 31.1973C46.0119 32.1835 46.5049 33.0143 47.1258 33.69C47.765 34.3657 48.5045 34.8861 49.3446 35.2514C50.2028 35.5983 51.1159 35.7718 52.0837 35.7718C52.6864 35.7718 53.2707 35.7079 53.8368 35.5801C54.4029 35.434 54.9416 35.224 55.4529 34.95C55.9643 34.6761 56.4208 34.3292 56.8225 33.9091C57.2425 33.4891 57.5895 33.0052 57.8634 32.4574L60 34.2105C59.6165 34.9592 59.1326 35.6166 58.5482 36.1827C57.9821 36.7305 57.3521 37.187 56.6582 37.5523C55.9643 37.9175 55.2247 38.1823 54.4394 38.3466C53.6725 38.5292 52.8872 38.6206 52.0837 38.6206C50.6594 38.6206 49.3446 38.3649 48.1393 37.8536C46.9341 37.324 45.8932 36.5844 45.0166 35.6348C44.1401 34.6852 43.4462 33.5439 42.9349 32.2108C42.4418 30.8595 42.1953 29.3621 42.1953 27.7186C42.1953 26.0751 42.4418 24.605 42.9349 23.3085C43.4279 21.9937 44.1127 20.8797 44.9892 19.9667C45.884 19.0536 46.9432 18.3506 48.1667 17.8575C49.3902 17.3644 50.7233 17.1179 52.1659 17.1179C53.7364 17.1179 55.1608 17.3918 56.4391 17.9397C57.7173 18.4693 58.8404 19.1723 59.8083 20.0489L58.0278 22.3772Z" fill="white"/>
<path d="M240 0C224.536 0 212 12.5362 212 28C212 43.4638 224.536 56 240 56C255.464 56 268 43.4638 268 28C268 12.5362 255.464 0 240 0ZM223.706 18.1568H240.64L239.375 23.0237H222.441L223.706 18.1568ZM219.711 25.5659H233.321L232.069 30.4328H218.456L219.711 25.5659ZM235.406 37.8419H218.472L219.738 32.9751H236.672L235.406 37.8419ZM240.615 25.5659H254.225L252.973 30.4328H239.36L240.615 25.5659ZM256.31 37.8419H239.376L240.642 32.9751H257.576L256.31 37.8419ZM243.345 23.0237L244.61 18.1568H261.544L260.279 23.0237H243.345Z" fill="white"/>
</svg>
