<svg width="24" height="24" viewBox="0 0 24 24" fill="none" xmlns="http://www.w3.org/2000/svg">
<path fill-rule="evenodd" clip-rule="evenodd" d="M5.69995 6.49096C5.69995 4.56296 7.2587 3 9.18151 3H14.8184C16.7412 3 18.3 4.56296 18.3 6.49096C18.3 7.61033 17.7745 8.60666 16.9575 9.24549C17.7745 9.88435 18.3 10.8807 18.3 12.0001C18.3 13.9281 16.7412 15.491 14.8184 15.491H14.747C13.9972 15.491 13.3027 15.2533 12.7344 14.849V17.4733C12.7344 19.4272 11.1356 21 9.19923 21C7.28258 21 5.69995 19.4432 5.69995 17.509C5.69995 16.3897 6.22536 15.3934 7.04237 14.7546C6.22535 14.1157 5.69995 13.1194 5.69995 12.0001C5.69995 10.8807 6.22537 9.88435 7.04241 9.24549C6.22537 8.60666 5.69995 7.61033 5.69995 6.49096ZM9.18151 8.50903C8.06996 8.50903 7.16888 7.60551 7.16888 6.49096C7.16888 5.37642 8.06996 4.4729 9.18151 4.4729H11.2655V8.50903H9.18151ZM11.2655 9.98193H9.18151C8.06999 9.98193 7.16888 10.8855 7.16888 12.0001C7.16888 13.1146 8.06996 14.0181 9.18151 14.0181H11.2655V9.98193ZM11.2655 15.491H9.18151C8.06994 15.491 7.16888 16.3945 7.16888 17.509C7.16888 18.6174 8.08153 19.5271 9.19923 19.5271C10.3366 19.5271 11.2655 18.6014 11.2655 17.4733V15.491ZM14.8184 9.98193L14.747 9.98201C13.6355 9.98201 12.7344 10.8855 12.7344 12.0001C12.7344 13.1146 13.6355 14.0181 14.747 14.0181H14.8184C15.9299 14.0181 16.831 13.1146 16.831 12.0001C16.831 10.8856 15.9301 9.98216 14.8188 9.98193C14.8187 9.98193 14.8185 9.98193 14.8184 9.98193ZM12.7344 8.50903V4.4729H14.8184C15.9299 4.4729 16.831 5.37642 16.831 6.49096C16.831 7.60551 15.9299 8.50903 14.8184 8.50903H12.7344Z" fill="white"/>
</svg>
