<svg width="80" height="80" viewBox="0 0 80 80" fill="none" xmlns="http://www.w3.org/2000/svg">
<g clip-path="url(#clip0_43_121)">
<path d="M50.0879 79.9467C55.7403 70.8328 51.5277 58.5743 41.7159 52.9247C42.3558 55.3764 41.5559 61.7722 37.1833 65.7695C38.1431 61.6123 35.7435 59.054 35.7435 59.054C35.7435 59.054 34.9437 62.7848 31.7975 66.569C28.9713 70.0866 26.9983 73.6576 30.6244 80C8.22795 74.4037 -2.6503 61.2925 0.549182 48.9274C2.78882 39.8135 11.2675 32.4051 11.9607 23.2911C15.1602 28.0346 15.5334 31.5523 15.9067 36.6156C26.0917 26.3291 36.6501 12.525 34.4104 0C34.4104 0 53.714 4.9567 61.3927 29.4204C65.9787 26.0093 65.5521 19.0273 63.2591 14.9234C69.978 19.0806 103.946 63.2112 50.0879 79.9467Z" fill="url(#paint0_linear_43_121)"/>
</g>
<defs>
<linearGradient id="paint0_linear_43_121" x1="40" y1="78.189" x2="40" y2="1.66817" gradientUnits="userSpaceOnUse">
<stop stop-color="#3298CB"/>
<stop offset="1" stop-color="#38BFC3"/>
</linearGradient>
<clipPath id="clip0_43_121">
<rect width="80" height="80" fill="white"/>
</clipPath>
</defs>
</svg>
