<svg width="80" height="80" viewBox="0 0 80 80" fill="none" xmlns="http://www.w3.org/2000/svg">
<g clip-path="url(#clip0_42_105)">
<path d="M12.0373 21.7988C12.6764 21.7988 13.3688 21.2125 13.3688 20.5197V19.5603C13.3688 19.3471 13.6352 19.0273 13.9547 18.9207C14.221 18.7608 14.5406 18.7075 14.8069 18.5476C14.9667 18.4943 15.0732 18.3877 15.233 18.3877C15.4461 18.3877 15.6591 18.441 15.8189 18.6009L16.5646 19.3471C16.8309 19.6136 17.1505 19.7735 17.5233 19.7735C17.8961 19.7735 18.1625 19.6136 18.482 19.3471L19.7071 18.1213C20.2397 17.5883 20.2397 16.7355 19.7071 16.2558L18.9614 15.5097C18.6418 15.2965 18.6418 14.9234 18.8016 14.6569C18.9614 14.3904 19.0679 14.0706 19.1744 13.8041C19.281 13.5376 19.6005 13.2179 19.8136 13.2179H20.8256C21.4647 13.2179 22.1571 12.6316 22.1571 11.8321V10.0733C22.1571 9.43371 21.5712 8.79414 20.8256 8.79414H19.8136C19.6005 8.79414 19.281 8.52765 19.1744 8.20786C19.0146 7.94137 18.9614 7.62159 18.8016 7.3551C18.7483 7.08861 18.7483 6.60893 18.9614 6.50233L19.7071 5.75616C19.9734 5.48967 20.1332 5.16989 20.1332 4.7968C20.1332 4.42372 19.9734 4.15723 19.7071 3.83744L18.482 2.61159C18.2157 2.3451 17.8961 2.18521 17.5233 2.18521C17.1505 2.18521 16.8842 2.3451 16.5646 2.61159L15.8189 3.25117C15.6591 3.30446 15.4461 3.46436 15.233 3.46436C15.0732 3.46436 14.9667 3.41106 14.8069 3.30446C14.5406 3.14457 14.221 3.03797 13.9547 2.93138C13.6884 2.87808 13.3688 2.505 13.3688 2.29181V1.27915C13.3688 0.639574 12.783 0 11.984 0H10.2264C9.48069 0 8.84155 0.586276 8.84155 1.27915V2.29181C8.84155 2.505 8.57523 2.82478 8.25566 2.93138C7.98935 3.09127 7.66977 3.19787 7.40346 3.35776C7.24367 3.41106 7.13715 3.51765 6.97736 3.51765C6.76431 3.51765 6.55127 3.46436 6.39148 3.35776L5.64581 2.61159C5.37949 2.3451 5.05992 2.18521 4.68708 2.18521C4.31425 2.18521 4.04794 2.3451 3.78162 2.61159L2.55659 3.83744C2.02397 4.37042 2.02397 5.22318 2.55659 5.70286L3.30226 6.44903C3.56858 6.66223 3.56858 7.03531 3.46205 7.3018C3.30226 7.56829 3.19574 7.88807 3.08921 8.15456C3.03595 8.42105 2.66312 8.74084 2.45007 8.74084H1.38482C0.639148 8.74084 0.0532623 9.32712 0 10.1266V11.7788H0.159787C0.159787 12.4184 0.745672 13.058 1.54461 13.058H2.55659C2.76964 13.058 3.08921 13.3245 3.19574 13.6442C3.35553 13.9107 3.40879 14.2305 3.56858 14.497C3.62184 14.7635 3.62184 15.2432 3.40879 15.3498L2.66312 16.1492C2.13049 16.6822 2.13049 17.535 2.66312 18.0147L3.88815 19.2405C4.20772 19.5603 4.47403 19.7202 4.84687 19.7202C5.21971 19.7202 5.48602 19.5603 5.80559 19.2938L6.55127 18.5476C6.71105 18.4943 6.9241 18.3344 7.13715 18.3344C7.29694 18.3344 7.40346 18.3344 7.50999 18.4943C7.7763 18.6542 8.09587 18.7608 8.36218 18.8674C8.6285 18.9207 8.94807 19.2938 8.94807 19.507V20.5197C8.94807 21.1592 9.53395 21.7988 10.3329 21.7988H12.0373ZM7.82956 11.0326C7.88282 9.27382 9.26764 7.83478 11.0253 7.83478C12.783 7.83478 14.221 9.27382 14.221 11.0326C14.221 12.7915 12.783 14.2305 11.0253 14.2305C9.26764 14.2305 7.82956 12.7382 7.82956 11.0326ZM75.6325 37.7881H72.277C71.4248 37.7881 70.4128 36.9887 69.9334 36.0293C69.5606 35.07 69.1878 34.2172 68.7617 33.2578C68.229 32.2985 68.4953 31.0193 69.1877 30.433L71.5845 28.0346C72.3835 27.2352 72.8096 26.1692 72.8096 24.9967C72.8096 23.8241 72.3835 22.7582 71.5845 21.9587L67.6431 18.068C67.004 17.2685 65.8855 16.8421 64.767 16.8421C63.5952 16.8421 62.53 17.2685 61.731 18.068L59.3342 20.4664C58.9081 20.8927 58.269 21.0526 57.5766 21.0526C57.0439 21.0526 56.7776 20.9993 56.3515 20.8394C55.3928 20.3065 54.5406 20.0933 53.5819 19.6669C52.6232 19.2938 51.8242 18.2811 51.8242 17.3218V13.964C51.8242 11.5656 49.9601 9.7002 47.5633 9.7002H42.0772C39.6804 9.7002 37.8162 11.5656 37.8162 13.964V17.3218C37.8162 18.1745 37.0173 19.1872 36.0586 19.6669C35.0999 20.04 34.2477 20.4131 33.2889 20.8394C32.8629 20.9993 32.49 21.0526 32.0639 21.0526C31.4248 21.0526 30.7324 20.8394 30.3063 20.4664L27.9095 18.068C27.1105 17.2685 26.0453 16.8421 24.8735 16.8421C23.7017 16.8421 22.6365 17.2685 21.8375 18.068L17.8429 21.9587C16.0852 23.7175 16.0852 26.3824 17.8429 28.1412L20.2397 30.5396C20.8788 31.1259 21.0919 32.4051 20.6658 33.3644C20.1332 34.3238 19.9201 35.1765 19.494 36.1359C19.1744 37.042 18.1624 37.8414 17.2037 37.8414H13.8482C11.4514 37.8414 9.58722 39.7069 9.58722 42.1053V47.5949C9.58722 49.94 11.4514 51.8055 13.8482 51.8055H17.2037C18.0559 51.8055 19.0679 52.6049 19.5473 53.5643C19.9201 54.5236 20.2929 55.3764 20.719 56.3358C21.1451 57.2951 20.9854 58.5743 20.2929 59.1606L17.8961 61.559C16.1385 63.3178 16.1385 65.9827 17.8961 67.7415L21.8375 71.6322C22.6365 72.4317 23.7017 72.8581 24.8735 72.8581C26.0453 72.8581 27.1105 72.4317 27.9095 71.6322L30.3063 69.2338C30.7324 68.8075 31.3715 68.6476 32.0639 68.6476C32.5965 68.6476 32.8629 68.7009 33.2889 68.8608C34.2477 69.3937 35.0999 69.6069 36.0586 70.0333C37.0173 70.4064 37.8162 71.4191 37.8162 72.3784V75.7362C37.8162 78.1346 39.6804 80 42.0772 80H47.6165C50.0133 80 51.8775 78.1346 51.8775 75.7362V72.3784C51.8775 71.5257 52.6764 70.513 53.6352 70.0333C54.5939 69.6602 55.4461 69.2871 56.4048 68.8608C56.8309 68.7009 57.2037 68.6476 57.6298 68.6476C58.3755 68.6476 58.9614 68.8608 59.3875 69.2338L61.7843 71.6322C62.5832 72.4317 63.6485 72.8581 64.8202 72.8581C65.992 72.8581 67.0573 72.4317 67.8562 71.6322L71.7976 67.7415C73.5553 65.9827 73.5553 63.3178 71.7976 61.559L69.4008 59.1606C68.7617 58.5743 68.5486 57.2951 68.9747 56.3358C69.5073 55.3764 69.7204 54.5236 70.1465 53.5643C70.5193 52.6049 71.5313 51.8055 72.49 51.8055H75.739C78.1358 51.8055 80 49.94 80 47.5416V42.052C79.8935 39.6536 78.0293 37.7881 75.6325 37.7881ZM44.8469 55.1632C39.2011 55.1632 34.4607 50.5263 34.4607 44.8234C34.4607 39.1206 39.2011 34.4837 44.8469 34.4837C50.4927 34.4837 55.233 39.1739 55.233 44.8234C55.233 50.473 50.4927 55.1632 44.8469 55.1632Z" fill="url(#paint0_linear_42_105)"/>
</g>
<defs>
<linearGradient id="paint0_linear_42_105" x1="78.33" y1="78.9539" x2="1.0616" y2="0.607247" gradientUnits="userSpaceOnUse">
<stop stop-color="#3298CB"/>
<stop offset="1" stop-color="#38BFC3"/>
</linearGradient>
<clipPath id="clip0_42_105">
<rect width="80" height="80" fill="white"/>
</clipPath>
</defs>
</svg>
