<svg width="80" height="80" viewBox="0 0 80 80" fill="none" xmlns="http://www.w3.org/2000/svg">
<g clip-path="url(#clip0_44_157)">
<path d="M30.7882 74.0908H54.5768C55.2733 74.0908 55.8626 74.6775 55.8626 75.3709C55.8626 76.0643 55.2733 76.651 54.5768 76.651H30.7882V77.131C30.7882 77.8244 31.0561 78.6245 31.6454 79.1579C32.1276 79.7446 32.9313 80.0113 33.6814 80.0113H59.3452C60.0417 80.0113 60.8454 79.7446 61.3812 79.1579C61.9705 78.6778 62.2384 77.8778 62.2384 77.131V76.651H59.0237C58.3272 76.651 57.7379 76.0643 57.7379 75.3709C57.7379 74.6775 58.3272 74.0908 59.0237 74.0908H62.2384V68.9704H30.7882V74.0908ZM69.6321 21.0735C67.7033 10.086 58.6487 1.44536 47.5581 0.165262C40.2715 -0.634798 33.0921 1.71204 27.6271 6.5124C22.2693 11.2061 19.2154 18.0333 19.0547 25.0205L10 42.8885H18.9475V54.5693H30.681V66.4102H42.3074V53.3959C42.3074 52.8092 42.1467 52.4358 41.8252 52.0625C41.5038 51.6891 40.968 51.4758 40.4858 51.4758C39.575 51.4758 38.6641 51.1024 38.0212 50.409C37.3247 49.7156 36.9497 48.8089 36.9497 47.9022V47.4221C35.4495 47.0488 34.3243 45.7153 34.3243 44.1152C34.3243 42.2484 35.8245 40.7016 37.7533 40.7016C39.6285 40.7016 41.1823 42.1951 41.1823 44.1152C41.1823 45.7153 40.0572 47.0488 38.557 47.4221V47.9022C38.557 48.4889 38.7177 48.8623 39.0392 49.2356C39.4142 49.6623 39.8964 49.8223 40.3786 49.8223C41.2895 49.8223 42.2003 50.1957 42.8432 50.8891C43.5397 51.5825 43.9148 52.4892 43.9148 53.3959V66.5169H45.6293V39.1015C44.1291 38.7282 43.0575 37.3947 43.0575 35.7946C43.0575 33.9278 44.5577 32.381 46.4865 32.381C48.4153 32.381 49.9155 33.8745 49.9155 35.7946C49.9155 37.3947 48.7904 38.7282 47.3438 39.1015V66.4102H49.1654V53.3959C49.1654 52.4359 49.594 51.5825 50.237 50.8891C50.8799 50.249 51.7907 49.8223 52.7015 49.8223C53.2909 49.8223 53.6659 49.609 54.041 49.2356C54.416 48.8623 54.5232 48.3822 54.5232 47.9022V47.4221C53.023 47.0488 51.8979 45.7153 51.8979 44.1152C51.8979 42.2484 53.3981 40.7016 55.3269 40.7016C57.2021 40.7016 58.7558 42.1951 58.7558 44.1152C58.7558 45.7153 57.6307 47.0488 56.1305 47.4221V47.9022C56.1305 48.8623 55.7019 49.7156 55.059 50.409C54.416 51.0491 53.5052 51.4758 52.5944 51.4758C52.005 51.4758 51.63 51.6891 51.2549 52.0625C50.8799 52.4358 50.7727 52.9159 50.7727 53.3959V66.3569H62.1312V53.3426C62.1312 47.7955 63.4707 42.8351 65.9888 38.8348C69.4178 33.6078 70.7037 27.3673 69.6321 21.0735ZM37.8605 42.4084C38.8249 42.4084 39.6285 43.2085 39.6285 44.1686C39.6285 45.1286 38.8249 45.9287 37.8605 45.9287C36.8961 45.9287 36.0924 45.1286 36.0924 44.1686C36.0924 43.2085 36.8961 42.4084 37.8605 42.4084ZM55.3269 42.4084C56.2913 42.4084 57.0949 43.2085 57.0949 44.1686C57.0949 45.1286 56.2913 45.9287 55.3269 45.9287C54.3625 45.9287 53.5588 45.1286 53.5588 44.1686C53.5588 43.2085 54.3625 42.4084 55.3269 42.4084ZM46.5401 34.1411C47.5045 34.1411 48.3082 34.9412 48.3082 35.9013C48.3082 36.8614 47.5045 37.6614 46.5401 37.6614C45.5757 37.6614 44.772 36.8614 44.772 35.9013C44.772 34.9412 45.5757 34.1411 46.5401 34.1411Z" fill="url(#paint0_linear_44_157)"/>
</g>
<defs>
<linearGradient id="paint0_linear_44_157" x1="68.036" y1="78.203" x2="11.8701" y2="1.8195" gradientUnits="userSpaceOnUse">
<stop stop-color="#3298CB"/>
<stop offset="1" stop-color="#38BFC3"/>
</linearGradient>
<clipPath id="clip0_44_157">
<rect width="80" height="80" fill="white"/>
</clipPath>
</defs>
</svg>
