<svg width="40" height="32" viewBox="0 0 40 32" fill="none" xmlns="http://www.w3.org/2000/svg">
<g clip-path="url(#clip0_437_286)">
<path fill-rule="evenodd" clip-rule="evenodd" d="M7.07628 3.2038H0.5V4.81656L1.43607 5.02037C1.93985 5.12949 2.07335 5.44402 2.07335 5.95112V15.2041C2.07335 15.671 1.90489 15.9519 1.40587 16.0722L0.517482 16.2873V17.9H6.6742V16.2873L5.33924 16.0722C4.84181 15.992 4.73374 15.7143 4.73374 15.2041V12.744H7.07628C9.76369 12.744 12.1063 11.2853 12.1063 7.98272C12.1063 4.68016 9.78434 3.2038 7.07628 3.2038ZM6.82995 10.7028H4.74645V5.2322H6.82995C8.32858 5.2322 9.24397 6.15973 9.24397 7.96828C9.24397 9.77682 8.3254 10.7044 6.82995 10.7044V10.7028Z" fill="white"/>
<path fill-rule="evenodd" clip-rule="evenodd" d="M38.8881 15.058C37.7773 15.5475 36.6028 15.8459 35.5205 15.8459C33.2114 15.8459 31.3265 14.5012 31.3265 10.5728C31.3265 7.70831 31.8764 5.12308 34.7037 5.12308C35.3314 5.12308 35.991 5.25626 36.7919 5.55154L37.2163 7.69387H39.1774L39.5 4.16344C37.8059 3.22627 36.517 3 35.2027 3C30.3523 3 28.4659 6.42773 28.4659 10.714C28.4659 16.1332 31.4998 18.0653 34.7561 18.0653C36.3724 18.0653 37.8297 17.7122 39.276 17.0254L38.8881 15.0564V15.058Z" fill="white"/>
<path fill-rule="evenodd" clip-rule="evenodd" d="M20.1701 18.1022C23.463 18.1022 25.5862 16.3258 25.5862 13.1628V5.79706C25.5862 5.31885 25.8373 5.10221 26.1837 5.02679L27.1611 4.81656V3.2038H21.3175V4.81656L22.2996 5.02679C22.6413 5.099 22.894 5.33009 22.894 5.79706V12.8387C22.894 15.3052 21.5384 15.9615 20.1701 15.9615C18.8017 15.9615 17.4476 15.3084 17.4476 12.8387V5.79706C17.4476 5.32848 17.6988 5.10061 18.0404 5.02679L19.0226 4.81656V3.2038H13.1774V4.81656L14.1547 5.02679C14.5028 5.10221 14.7539 5.31885 14.7539 5.79706V13.1644C14.7539 16.3258 16.8772 18.1038 20.1701 18.1038V18.1022Z" fill="white"/>
<path fill-rule="evenodd" clip-rule="evenodd" d="M36.1101 21.4674C34.0203 21.4674 32.7202 23.0946 32.7202 25.253C32.7202 27.5686 33.8629 29 36.1101 29C38.1984 29 39.4984 27.4129 39.4984 25.253C39.4984 22.9373 38.3589 21.4674 36.1101 21.4674ZM36.1101 27.9361C34.791 27.9361 34.2014 26.8753 34.2014 25.253C34.2014 23.6306 34.8276 22.5313 36.1101 22.5313C37.3927 22.5313 38.0188 23.6306 38.0188 25.253C38.0188 26.8753 37.4292 27.9361 36.1101 27.9361Z" fill="white"/>
<path fill-rule="evenodd" clip-rule="evenodd" d="M28.7297 28.8989V28.095L29.1795 27.9875C29.4273 27.928 29.5132 27.7868 29.5132 27.5542V22.9405C29.5132 22.6886 29.4433 22.5313 29.1954 22.4767L28.7313 22.3741V21.5701H31.5522V22.3741L31.0882 22.4767C30.8402 22.5313 30.7703 22.6918 30.7703 22.9405V27.5542C30.7703 27.7836 30.8561 27.928 31.1025 27.9875L31.5522 28.095V28.8989H28.7297Z" fill="white"/>
<path fill-rule="evenodd" clip-rule="evenodd" d="M27.6204 27.9425C27.3677 27.9425 27.1404 27.7563 26.8337 27.3519L25.993 26.2414C25.7896 25.9719 25.5608 25.8723 25.3224 25.8306C25.8563 25.7391 27.0451 25.2994 27.0451 23.7894C27.0451 22.2793 26.0201 21.5732 24.4832 21.5732H21.4033V22.3772L21.8674 22.4799C22.1184 22.5345 22.1852 22.695 22.1852 22.9437V27.5573C22.1852 27.7852 22.0962 27.9329 21.8515 27.9906L21.4033 28.0981V28.9021H24.4785V28.0981L23.8126 27.9906C23.571 27.9521 23.5075 27.8125 23.5075 27.5878L23.5043 26.0649H23.9652C24.2496 26.0649 24.4308 26.2607 24.5484 26.4212L25.8071 28.1463C26.1885 28.6678 26.6843 29 27.2342 29C27.5092 29 27.7952 28.9278 28.0813 28.7689L28.0844 27.8606C28.0034 27.9007 27.7714 27.9425 27.6204 27.9425ZM24.3927 25.0459H23.5138V22.589H24.3927C25.0887 22.589 25.6656 23.0207 25.6656 23.7878C25.6656 24.5548 25.2365 25.0443 24.3927 25.0443V25.0459Z" fill="white"/>
</g>
<defs>
<clipPath id="clip0_437_286">
<rect width="39" height="32" fill="white" transform="translate(0.5)"/>
</clipPath>
</defs>
</svg>
