<svg width="320" height="160" viewBox="0 0 320 160" fill="none" xmlns="http://www.w3.org/2000/svg">
<g opacity="0.2" clip-path="url(#clip0_18_2)">
<path d="M269.704 47.1488C274.897 46.4778 281.606 46.7889 287.146 49.2139C290.153 50.5302 292.8 52.4624 294.685 55.1842C296.566 57.9009 297.709 61.4363 297.661 66.0013C297.446 70.4967 295.51 73.9368 293.268 76.3776C291.56 78.2378 289.686 79.5041 288.291 80.2042C288.47 79.6761 288.586 79.0952 288.591 78.4805C288.602 77.2837 288.196 75.9937 287.094 74.7624L287.094 74.7623L287.086 74.7542C285.105 72.636 281.845 72.9407 278.967 74.5975C276.237 76.1691 273.663 79.0372 272.398 82.6915C270.583 81.1762 268.852 80.6071 267.226 80.787C265.442 80.9842 263.907 82.0696 262.623 83.5079C260.264 86.1524 258.588 90.1809 257.633 93.0107C254.715 90.6714 252.272 89.1126 250.224 88.1548C248.048 87.1367 246.288 86.784 244.863 86.9232C242.295 87.1741 241.011 88.9813 240.384 90.8071C239.383 90.0313 237.999 89.3636 236.52 88.9863C234.708 88.5244 232.67 88.4771 230.949 89.283C229.218 90.0939 228.06 91.6872 227.811 93.4823C227.595 95.042 228.07 96.7203 229.388 98.1423C227.83 98.3973 225.252 98.3615 222.379 97.636C218.91 96.7604 215.086 94.8972 212.191 91.4223C209.374 87.7989 208.062 84.3314 207.841 81.0887C207.619 77.8434 208.488 74.7821 210.1 71.9695C213.083 66.7665 218.596 62.4473 224.322 59.5034C223.294 61.4244 222.249 63.8439 221.858 66.1316C221.61 67.5836 221.617 69.0304 222.103 70.274C222.598 71.5402 223.571 72.5485 225.15 73.1255C226.755 73.7121 228.498 73.4873 230.194 72.8136C231.89 72.1397 233.584 70.9998 235.131 69.6814C237.914 67.3091 240.305 64.288 241.45 62.16C243.618 64.2451 246.568 64.5601 249.158 63.6739C251.708 62.8016 253.965 60.7508 254.871 57.9987C258.407 60.9213 264.651 63.0377 271.047 60.1516L271.049 60.1507C272.836 59.3344 274.063 58.3267 274.747 57.1676C275.44 55.9953 275.548 54.7173 275.188 53.44C274.562 51.2257 272.534 49.0138 269.704 47.1488Z" stroke="#73AFD7" stroke-miterlimit="10"/>
<path d="M65.5715 82.3151L66.243 82.5593L65.9157 81.5776L65.8757 81.4577L65.532 80.4264L65.1054 81.1373C64.6637 81.0658 64.1655 81.0747 63.651 81.1341C62.9167 81.2188 62.0976 81.4128 61.264 81.6796C59.5989 82.2124 57.8249 83.0521 56.4811 83.9617L56.3701 84.0369L56.3116 84.1575C55.9398 84.9236 55.6619 86.2836 55.4994 87.9491C55.3349 89.6356 55.2834 91.6968 55.3971 93.9065C55.5468 96.8183 55.9846 100.015 56.8431 102.965C51.1194 93.2417 52.8231 85.5904 54.0001 82.0796C54.4567 81.6087 55.4301 80.8081 56.6569 79.998C57.9468 79.1463 59.474 78.3127 60.9138 77.852L63.0463 77.1696L60.8261 76.88C59.8613 76.7541 57.9091 76.6948 55.8561 76.9444C53.8207 77.1919 51.5794 77.7547 50.1242 78.9493L50.0141 79.0397L49.9681 79.1745C47.7491 85.6886 47.7443 96.5967 51.15 107.981C42.9266 92.4959 45.488 81.5557 47.4435 76.9469C51.4162 74.2609 56.4211 72.8746 60.8058 72.8358L65.0677 72.798L60.9128 71.8483C60.2496 71.6967 57.2272 70.7477 53.837 69.4345C50.5705 68.1693 47.0452 66.5969 44.9853 65.1159C45.1485 64.2873 45.5988 62.8482 46.3158 61.0518C47.1181 59.0415 48.2386 56.6233 49.6166 54.1869C51.4728 50.9052 53.7681 47.6417 56.3493 45.2816C51.1112 51.5873 49.2212 58.8698 48.7457 62.4703L48.7134 62.7149L48.8878 62.8893C49.1095 63.111 49.4333 63.3319 49.8074 63.5484C50.1884 63.7688 50.6502 64.0008 51.1691 64.2389C52.2071 64.7154 53.4982 65.228 54.879 65.7351C57.6419 66.7498 60.7929 67.7533 63.0612 68.4157L66.2397 69.344L63.477 67.5186C61.3072 66.085 57.577 62.933 55.4851 59.8208C55.9935 56.7495 58.3536 52.1536 61.7932 48.2094C64.5833 45.0101 68.0143 42.319 71.6356 41.2045C68.1203 43.5143 65.3423 46.6191 63.3031 49.6144C60.7943 53.2993 59.3637 56.8782 59.0679 58.6954L59.0363 58.8895L59.1454 59.0531C59.3018 59.2877 59.5679 59.5614 59.886 59.8482C60.2125 60.1424 60.6226 60.4757 61.0927 60.8305C62.0333 61.5404 63.2306 62.3489 64.514 63.1195C65.797 63.8898 67.1745 64.6272 68.4749 65.1913C69.7655 65.7512 71.0196 66.1581 72.0443 66.2344L72.9349 66.3007L72.5259 65.5068C72.2461 64.9637 72.1198 64.112 72.2266 63.1298C72.3323 62.1578 72.6614 61.1112 73.2304 60.2008C73.7978 59.2929 74.5964 58.5311 75.6422 58.0977C76.6847 57.6656 78.0132 57.5429 79.6732 57.9791L65.5715 82.3151ZM65.5715 82.3151C60.9409 90.4328 61.0447 101.549 66.6623 108.759C71.1293 107.364 74.5754 104.05 76.8786 99.8743C79.2374 95.5981 80.3783 90.4493 80.1818 85.6362L80.1565 85.017L80.7671 85.1232C81.336 85.2221 81.9462 85.5447 82.54 85.9699C83.1427 86.4014 83.7691 86.9683 84.3743 87.6068C85.583 88.8821 86.7427 90.4811 87.4874 91.9497L87.5477 92.0687L87.5407 92.2021C87.4958 93.0563 87.0864 94.3833 86.4301 95.922C85.7656 97.4795 84.8239 99.3089 83.6672 101.188C82.135 103.677 80.2114 106.276 78.0362 108.449C87.7249 102.733 89.8826 95.2059 90.53 91.5575C90.3579 90.9396 89.8911 89.7675 89.2037 88.4582C88.4798 87.0793 87.5347 85.5935 86.4786 84.4798L84.8464 82.7586L87.0345 83.6746C87.9297 84.0493 89.6633 84.9481 91.3447 86.1658C93.011 87.3726 94.7091 88.9514 95.4244 90.7071L95.4787 90.8402L95.454 90.9818C94.2738 97.7408 89.111 107.295 80.6896 115.597C95.2562 106.044 98.2592 95.2173 98.7304 90.2341C96.5299 85.9435 92.8368 82.3028 88.9919 80.0891L85.4593 78.0552L89.3788 79.175C90.0453 79.3655 93.1383 80.0117 96.7217 80.5208C100.174 81.0112 103.998 81.3614 106.512 81.0783C106.768 80.2746 107.063 78.7947 107.294 76.8698C107.554 74.7141 107.729 72.0441 107.686 69.2333C107.63 65.4683 107.185 61.508 106.068 58.1944C107.621 66.2476 105.796 73.526 104.509 76.9134L104.421 77.1444L104.184 77.215C103.883 77.3046 103.493 77.3417 103.062 77.3497C102.623 77.358 102.107 77.3362 101.538 77.2918C100.4 77.2028 99.0216 77.0206 97.5679 76.7896C94.6593 76.3274 91.4181 75.6651 89.1302 75.1433L85.8908 74.4044L89.2042 74.1572C91.8006 73.9634 96.5648 73.0421 99.8768 71.3428C100.893 68.4111 101.018 63.2357 99.8881 58.1033C98.9697 53.933 97.2447 49.8943 94.5951 47.1517M65.5715 82.3151L94.5951 47.1517M94.5951 47.1517C96.5707 50.8991 97.5265 54.9822 97.884 58.6067C98.3229 63.0568 97.8666 66.8903 97.231 68.6276L97.1668 68.803L97.0033 68.8934C96.7515 69.0325 96.3848 69.1487 95.9696 69.2487C95.5429 69.3515 95.0245 69.4464 94.4439 69.53C93.2822 69.6974 91.8486 69.8225 90.3575 69.8705C88.8668 69.9185 87.3086 69.8898 85.8995 69.7463C84.5008 69.6039 83.2069 69.3447 82.2705 68.9091L81.4668 68.5353L82.2025 68.0408C82.7095 67.7 83.2487 67.0188 83.6541 66.1165C84.0555 65.2228 84.3041 64.1591 84.2716 63.096C84.2393 62.0367 83.9292 60.989 83.2252 60.0975C82.5226 59.2077 81.3986 58.4368 79.6743 57.9794L94.5951 47.1517Z" stroke="#73AFD7" stroke-miterlimit="10"/>
<path d="M41.2821 117.983L40.1911 117.609L40.6643 118.661C41.129 119.694 41.0851 121.581 40.3417 123.292C39.6088 124.978 38.2557 126.361 36.2318 126.558L34.6738 126.71L36.0313 127.489L36.2803 127.056C36.0313 127.489 36.0313 127.489 36.0314 127.489L36.0316 127.49L36.0323 127.49L36.0349 127.491L36.0443 127.497L36.0799 127.517C36.111 127.535 36.1565 127.56 36.2151 127.593C36.3322 127.658 36.5014 127.751 36.7115 127.864C37.1315 128.089 37.7162 128.393 38.375 128.707C39.587 129.285 41.1083 129.928 42.3184 130.15C42.6022 130.759 42.5183 131.461 42.2136 132.066C42.0467 132.398 41.8232 132.678 41.5896 132.872C41.4042 133.026 41.2335 133.109 41.095 133.141C36.9497 130.98 22.8161 125.004 19.7996 123.789C19.7772 123.083 19.8953 122.322 20.1096 121.679C20.2318 121.312 20.3801 121 20.5388 120.765C20.6146 120.653 20.6874 120.567 20.7545 120.502C22.3005 121.551 24.0775 122.301 25.0836 122.542L25.973 122.755L25.6725 121.892C25.2378 120.642 25.3006 118.961 25.8513 117.413C26.4015 115.867 27.4077 114.537 28.7694 113.91L29.6292 113.514L28.8175 113.027C27.9075 112.481 26.7783 111.856 25.8254 111.362C25.3492 111.115 24.9125 110.898 24.5666 110.74C24.4583 110.69 24.3568 110.645 24.2643 110.607C24.4435 109.904 24.7467 109.161 25.0334 108.547C25.2037 108.182 25.3644 107.871 25.4822 107.651C25.4992 107.619 25.5153 107.589 25.5304 107.562C26.5468 107.77 27.933 108.301 29.5691 109.041C31.3513 109.848 33.3806 110.88 35.4724 111.951C35.6384 112.036 35.8048 112.121 35.9715 112.206C39.869 114.203 43.9522 116.295 46.8931 117.183C47.0546 117.753 47.0231 118.521 46.8718 119.214C46.7881 119.598 46.6749 119.924 46.5637 120.145C46.5481 120.176 46.5333 120.204 46.5195 120.228C46.422 120.183 46.3027 120.128 46.1657 120.065C45.7696 119.884 45.2255 119.637 44.6335 119.374C43.458 118.851 42.0671 118.251 41.2821 117.983ZM46.4182 120.369C46.4182 120.368 46.4201 120.366 46.4241 120.363C46.4201 120.367 46.4181 120.369 46.4182 120.369Z" stroke="#73AFD7" stroke-miterlimit="10"/>
<path d="M34.7403 116.026V116.057L35.032 116.19C36.3536 116.796 37.0813 117.702 37.3951 118.661C37.7126 119.632 37.619 120.696 37.2212 121.618C36.4662 123.368 33.9492 124.377 31.735 123.324L31.735 123.324L31.7261 123.32C30.6412 122.83 29.9531 121.889 29.6267 120.864C29.2958 119.826 29.3595 118.775 29.6875 118.119C29.9604 117.574 30.554 116.721 31.4459 116.19C32.253 115.71 33.3358 115.472 34.7403 116.026Z" stroke="#73AFD7" stroke-miterlimit="10"/>
<path d="M136.767 120.468C136.879 122.947 136.396 125.536 135.464 127.719C135.457 127.714 135.45 127.709 135.442 127.703C135.193 127.528 134.871 127.293 134.496 127.01C133.746 126.445 132.79 125.699 131.791 124.888C129.976 123.412 128.06 121.75 126.981 120.575C127.318 120.266 127.717 119.894 128.161 119.481C129.975 117.793 132.525 115.419 134.496 113.894C135.93 115.6 136.653 117.954 136.767 120.468Z" stroke="#73AFD7" stroke-miterlimit="10"/>
<path d="M122.963 136.829C120.126 137.162 116.644 136.512 112.113 133.967C112.187 133.858 112.277 133.73 112.38 133.586C112.75 133.07 113.301 132.345 114.019 131.513C115.414 129.898 117.432 127.893 119.981 126.237C121.858 127.284 124.034 128.946 125.943 130.517C126.938 131.335 127.855 132.123 128.611 132.778C128.73 132.881 128.845 132.98 128.956 133.077C129.295 133.371 129.597 133.632 129.85 133.848C127.842 135.301 125.661 136.513 122.963 136.829Z" stroke="#73AFD7" stroke-miterlimit="10"/>
<path d="M105.879 128.762C102.675 125.844 100.68 119.231 106.206 113.218C107.16 114.2 108.927 116.027 110.541 117.698C111.466 118.656 112.341 119.562 112.985 120.229L113.697 120.966C110.2 124.395 107.097 127.463 105.879 128.762Z" stroke="#73AFD7" stroke-miterlimit="10"/>
<path d="M120.719 115.169L111.672 106.703C112.402 106.459 113.389 106.256 114.553 106.119C116.121 105.933 117.964 105.872 119.841 105.965C121.719 106.059 123.618 106.308 125.301 106.739C126.701 107.097 127.925 107.575 128.862 108.175C127.231 109.457 124.358 111.729 120.719 115.169Z" stroke="#73AFD7" stroke-miterlimit="10"/>
<path d="M117.381 97.7604V97.7959H117.881C124.727 97.7959 132.237 99.9789 137.914 103.859C143.588 107.737 147.367 113.258 146.942 119.944C146.507 126.779 144.268 132.966 140.005 137.405C135.751 141.834 129.433 144.574 120.729 144.436C111.974 144.297 104.985 142.222 100.266 138.498C95.5658 134.79 93.0666 129.408 93.3407 122.516C93.8849 108.832 103.512 98.0145 117.381 97.7604Z" stroke="#73AFD7" stroke-miterlimit="10"/>
<path d="M133.53 56.7952C139.259 60.9077 145.766 65.4383 149.415 67.5097L139.876 73.5163C136.736 70.122 133.187 67.0776 130.399 64.8649C128.962 63.7242 127.725 62.8025 126.846 62.1656C126.406 61.8471 126.056 61.5997 125.816 61.4316C125.696 61.3476 125.603 61.2833 125.54 61.24L125.468 61.1907L125.449 61.178L125.444 61.1747L125.443 61.1738L125.443 61.1736C125.443 61.1735 125.442 61.1734 125.162 61.5875L125.442 61.1734L124.619 60.6162L124.663 61.6093L125.596 82.9861L117.417 87.9481L114.92 53.1469L122.33 48.6034C122.486 48.7198 122.707 48.884 122.985 49.0906C123.579 49.5321 124.435 50.1668 125.484 50.9396C127.581 52.4852 130.448 54.5837 133.53 56.7952Z" stroke="#73AFD7" stroke-miterlimit="10"/>
<path d="M134.993 87.4797C138.611 85.6513 149.757 79.4539 153.649 76.7482C154.868 76.7174 157.585 76.9087 161.162 77.2658C164.911 77.6401 169.563 78.1918 174.323 78.8411C183.682 80.1179 193.386 81.7624 197.514 83.1636C198.375 85.9574 200.858 90.2002 203.468 94.1513C205.942 97.8961 208.575 101.447 210.168 103.372C207.718 104.635 199.253 109.27 190.486 114.174C181.216 119.361 171.535 124.89 168.207 127.098C167.115 125.277 164.81 122.385 161.932 118.995C158.771 115.269 154.875 110.892 151.029 106.573L150.8 106.317C147.03 102.083 143.322 97.9197 140.403 94.4845C138.915 92.7321 137.636 91.1741 136.661 89.8962C135.885 88.8792 135.321 88.0643 134.993 87.4797Z" stroke="#73AFD7" stroke-miterlimit="10"/>
<path d="M186.173 87.6928C186.028 88.1612 185.836 88.6029 185.628 88.9626C184.614 87.7359 183.029 86.5794 181.67 85.7096C181.442 85.5636 181.218 85.4245 181.003 85.2935L186.427 86.0943C186.443 86.5442 186.353 87.1111 186.173 87.6928Z" stroke="#73AFD7" stroke-miterlimit="10"/>
<path d="M192.699 95.9698C192.901 93.0084 193.68 90.5302 194.496 88.9531C196.404 91.7544 201.692 99.2742 203.068 101.183C202.924 101.356 202.712 101.564 202.424 101.802C201.994 102.158 201.434 102.551 200.777 102.966C199.464 103.795 197.797 104.691 196.081 105.526C194.367 106.361 192.615 107.13 191.135 107.707C190.05 108.131 189.142 108.438 188.508 108.599C188.67 106.557 188.889 103.601 187.112 100.803C185.128 97.6772 180.752 94.8704 171.518 93.4818C169.777 93.1964 168.133 93.0011 166.648 92.8246C166.562 92.8144 166.477 92.8043 166.393 92.7942C164.833 92.6087 163.469 92.441 162.337 92.2062C161.196 91.9695 160.354 91.6764 159.804 91.2764C159.288 90.9009 159.02 90.4282 159.02 89.7357C159.02 89.1831 159.175 88.3709 159.869 87.6936C160.564 87.0159 161.878 86.3957 164.36 86.3957C164.532 86.3957 164.724 86.3934 164.935 86.3909C166.608 86.3708 169.442 86.3367 172.651 87.3428C176.247 88.4702 180.326 90.9109 183.699 96.2044L183.846 96.4357H184.12H192.2H192.667L192.699 95.9698Z" stroke="#73AFD7" stroke-miterlimit="10"/>
<path d="M149.385 88.5484C148.153 90.9624 147.89 93.4722 147.96 95.6512C147.65 95.3037 147.342 94.962 147.04 94.6266C146.988 94.5685 146.936 94.5107 146.884 94.453C146.203 93.6968 145.554 92.9738 144.967 92.2784C143.916 91.0315 143.1 89.9136 142.659 88.9039C144.001 88.0831 145.2 87.3213 146.298 86.624C148.413 85.2804 150.15 84.1766 151.803 83.3533C153.606 82.4552 155.275 81.9112 157.166 81.7951C153.067 83.5833 150.694 85.9847 149.385 88.5484Z" stroke="#73AFD7" stroke-miterlimit="10"/>
<path d="M170.801 119.669C170.516 119.801 170.283 119.906 170.114 119.981L170.093 119.96C169.926 119.791 169.686 119.549 169.394 119.255C168.811 118.666 168.021 117.869 167.196 117.034C166.203 116.029 165.162 114.973 164.37 114.161C165.75 114.5 167.754 114.95 169.951 115.28C172.541 115.669 175.46 115.902 177.961 115.556C176.417 116.675 174.736 117.658 173.295 118.424C172.3 118.954 171.425 119.378 170.801 119.669Z" stroke="#73AFD7" stroke-miterlimit="10"/>
<path d="M157.869 107.429L154.191 102.917C157.142 103.675 160.004 103.352 162.809 102.935C163.122 102.889 163.435 102.841 163.747 102.794C166.788 102.33 169.766 101.876 172.896 102.545C174.752 102.941 175.79 103.614 176.287 104.281C176.768 104.926 176.782 105.612 176.491 106.206C175.894 107.424 173.904 108.363 171.632 107.173C169.067 105.828 166.266 105.322 163.746 105.472C161.451 105.608 159.35 106.293 157.869 107.429Z" stroke="#73AFD7" stroke-miterlimit="10"/>
<mask id="path-17-inside-1_18_2" fill="white">
<path d="M9.21601 3.89584C9.77601 8.01584 10.096 10.7358 9.93601 14.6958C13.976 12.6558 19.216 10.7758 24.256 10.1758C18.216 -8.86417 7.29601 -52.0642 4.85601 -55.8242C0.176006 -56.5042 -6.70399 -55.0642 -8.10399 -54.0242C-9.78399 -40.1442 -15.264 8.49583 -25.344 40.9358C-22.864 41.2158 -10.344 40.9358 -10.344 40.9358C-9.224 29.2558 -4.26399 6.89584 -4.26399 6.89584L10.736 3.57584L14.656 -5.10416L7.65601 -9.54417C6.57601 -6.82417 -3.424 -2.26416 -3.424 -2.26416L0.416004 -28.3842C0.416004 -28.3842 4.05601 -19.8242 6.85601 -8.38417"/>
</mask>
<path d="M9.93601 14.6958L8.93682 14.6555L8.86814 16.3553L10.3868 15.5885L9.93601 14.6958ZM24.256 10.1758L24.3742 11.1688L25.5748 11.0259L25.2092 9.87346L24.256 10.1758ZM4.85601 -55.8242L5.69486 -56.3685L5.4482 -56.7486L4.9998 -56.8138L4.85601 -55.8242ZM-8.10399 -54.0242L-8.70032 -54.8269L-9.04513 -54.5708L-9.09675 -54.1443L-8.10399 -54.0242ZM-25.344 40.9358L-26.299 40.6391L-26.6578 41.7939L-25.4562 41.9295L-25.344 40.9358ZM-10.344 40.9358L-10.3216 41.9356L-9.43337 41.9157L-9.34856 41.0313L-10.344 40.9358ZM-4.26399 6.89584L-4.48009 5.91946L-5.10226 6.05717L-5.24026 6.67928L-4.26399 6.89584ZM10.736 3.57584L10.9521 4.55221L11.4412 4.44395L11.6474 3.98742L10.736 3.57584ZM14.656 -5.10416L15.5674 -4.69258L15.9246 -5.48368L15.1916 -5.94862L14.656 -5.10416ZM7.65601 -9.54417L8.19163 -10.3886L7.17212 -11.0353L6.72659 -9.9132L7.65601 -9.54417ZM-3.424 -2.26416L-4.41336 -2.40961L-4.68056 -0.59211L-3.0091 -1.3543L-3.424 -2.26416ZM0.416004 -28.3842L1.33626 -28.7755L-0.0559082 -32.0494L-0.57336 -28.5296L0.416004 -28.3842ZM8.22512 4.03052C8.78342 8.13805 9.09314 10.7867 8.93682 14.6555L10.9352 14.7362C11.0989 10.685 10.7686 7.89362 10.2069 3.76115L8.22512 4.03052ZM10.3868 15.5885C14.3525 13.586 19.4792 11.7516 24.3742 11.1688L24.1378 9.18285C18.9528 9.8001 13.5996 11.7257 9.48526 13.8032L10.3868 15.5885ZM25.2092 9.87346C22.1964 0.376083 17.9635 -15.1573 14.1696 -28.8217C12.2747 -35.6461 10.4897 -42.0027 9.02517 -46.89C8.29314 -49.3328 7.63831 -51.4181 7.08784 -53.0154C6.55408 -54.5643 6.07937 -55.776 5.69486 -56.3685L4.01715 -55.2798C4.24264 -54.9323 4.64294 -53.9715 5.19698 -52.3638C5.73433 -50.8046 6.38012 -48.7493 7.10934 -46.3159C8.5673 -41.4506 10.3473 -35.1123 12.2425 -28.2866C16.0285 -14.651 20.2756 0.935585 23.3028 10.4782L25.2092 9.87346ZM4.9998 -56.8138C2.51909 -57.1742 -0.483137 -56.9696 -3.01516 -56.5561C-4.28853 -56.3481 -5.46784 -56.0833 -6.43011 -55.7987C-7.34971 -55.5267 -8.1953 -55.2021 -8.70032 -54.8269L-7.50767 -53.2214C-7.31269 -53.3663 -6.77328 -53.6116 -5.86287 -53.8809C-4.99515 -54.1375 -3.89946 -54.3852 -2.69282 -54.5822C-0.264849 -54.9787 2.51292 -55.1541 4.71222 -54.8346L4.9998 -56.8138ZM-9.09675 -54.1443C-10.7808 -40.2312 -16.2519 8.30511 -26.299 40.6391L-24.389 41.2326C-14.2761 8.68655 -8.78723 -40.0571 -7.11124 -53.904L-9.09675 -54.1443ZM-25.4562 41.9295C-24.1387 42.0783 -20.3083 42.0754 -16.9038 42.0408C-15.1804 42.0232 -13.5351 41.9969 -12.321 41.975C-11.7138 41.9641 -11.2142 41.9542 -10.8663 41.9471C-10.6924 41.9435 -10.5564 41.9407 -10.4637 41.9387C-10.4174 41.9377 -10.382 41.9369 -10.3581 41.9364C-10.3461 41.9361 -10.337 41.9359 -10.3309 41.9358C-10.3279 41.9357 -10.3256 41.9357 -10.324 41.9356C-10.3232 41.9356 -10.3227 41.9356 -10.3223 41.9356C-10.3221 41.9356 -10.3219 41.9356 -10.3218 41.9356C-10.3217 41.9356 -10.3216 41.9356 -10.344 40.9358C-10.3664 39.9361 -10.3664 39.9361 -10.3665 39.9361C-10.3666 39.9361 -10.3667 39.9361 -10.3669 39.9361C-10.3672 39.9361 -10.3678 39.9361 -10.3685 39.9361C-10.37 39.9362 -10.3722 39.9362 -10.3752 39.9363C-10.3812 39.9364 -10.3901 39.9366 -10.4019 39.9369C-10.4255 39.9374 -10.4607 39.9381 -10.5067 39.9391C-10.5987 39.9411 -10.734 39.944 -10.9073 39.9475C-11.2538 39.9546 -11.7517 39.9644 -12.357 39.9754C-13.5679 39.9972 -15.2076 40.0234 -16.9242 40.0409C-20.3997 40.0762 -24.0693 40.0734 -25.2318 39.9421L-25.4562 41.9295ZM-9.34856 41.0313C-8.79374 35.2453 -7.28273 26.7785 -5.90262 19.7279C-5.21384 16.2092 -4.55992 13.0544 -4.07818 10.7792C-3.83734 9.64177 -3.63959 8.72445 -3.50211 8.09177C-3.43337 7.77544 -3.37971 7.53027 -3.34326 7.36435C-3.32503 7.28139 -3.31112 7.21825 -3.30177 7.17592C-3.2971 7.15475 -3.29357 7.13879 -3.29122 7.12816C-3.29004 7.12285 -3.28916 7.11887 -3.28857 7.11623C-3.28828 7.11492 -3.28806 7.11394 -3.28792 7.1133C-3.28785 7.11298 -3.2878 7.11275 -3.28777 7.11259C-3.28773 7.11245 -3.28772 7.1124 -4.26399 6.89584C-5.24026 6.67928 -5.24029 6.67939 -5.24033 6.67959C-5.24037 6.67977 -5.24043 6.68006 -5.24051 6.68042C-5.24067 6.68114 -5.24091 6.6822 -5.24122 6.68359C-5.24184 6.68639 -5.24276 6.69053 -5.24397 6.69601C-5.24639 6.70697 -5.24999 6.72326 -5.25474 6.74475C-5.26423 6.78775 -5.2783 6.85159 -5.29668 6.93525C-5.33344 7.10257 -5.38743 7.34921 -5.4565 7.66709C-5.59465 8.30285 -5.79315 9.22365 -6.0348 10.3649C-6.51807 12.6473 -7.17415 15.8125 -7.86537 19.3437C-9.24525 26.3931 -10.7743 34.9464 -11.3394 40.8404L-9.34856 41.0313ZM-4.04789 7.87221L10.9521 4.55221L10.5199 2.59946L-4.48009 5.91946L-4.04789 7.87221ZM11.6474 3.98742L15.5674 -4.69258L13.7446 -5.51575L9.82464 3.16425L11.6474 3.98742ZM15.1916 -5.94862L8.19163 -10.3886L7.12038 -8.69971L14.1204 -4.25971L15.1916 -5.94862ZM6.72659 -9.9132C6.66293 -9.75286 6.49395 -9.49604 6.15516 -9.14987C5.82759 -8.81517 5.39274 -8.44851 4.87245 -8.06165C3.83224 -7.2882 2.52271 -6.48701 1.22129 -5.75605C-0.0755825 -5.02763 -1.34229 -4.38124 -2.28642 -3.91628C-2.75793 -3.68407 -3.14769 -3.49776 -3.41888 -3.36981C-3.55446 -3.30585 -3.66032 -3.25651 -3.73188 -3.22335C-3.76765 -3.20678 -3.79484 -3.19425 -3.81287 -3.18596C-3.82189 -3.18182 -3.82861 -3.17874 -3.83297 -3.17674C-3.83515 -3.17574 -3.83674 -3.17501 -3.83773 -3.17456C-3.83823 -3.17434 -3.83857 -3.17418 -3.83877 -3.17409C-3.83887 -3.17405 -3.8389 -3.17403 -3.83895 -3.17401C-3.83894 -3.17401 -3.8389 -3.17403 -3.424 -2.26416C-3.0091 -1.3543 -3.00898 -1.35435 -3.00882 -1.35442C-3.00871 -1.35447 -3.00852 -1.35456 -3.00831 -1.35466C-3.0079 -1.35484 -3.00733 -1.3551 -3.00661 -1.35543C-3.00518 -1.35608 -3.00315 -1.35701 -3.00051 -1.35822C-2.99525 -1.36063 -2.98762 -1.36413 -2.97768 -1.36869C-2.9578 -1.37783 -2.92871 -1.39124 -2.89098 -1.40872C-2.81552 -1.44369 -2.70549 -1.49498 -2.56551 -1.56102C-2.28562 -1.69307 -1.88568 -1.88425 -1.40282 -2.12205C-0.438206 -2.59709 0.862593 -3.2607 2.20072 -4.01228C3.53431 -4.76132 4.92727 -5.61013 6.06581 -6.45669C6.6349 -6.87983 7.15849 -7.31566 7.58451 -7.75097C7.99931 -8.1748 8.37909 -8.65548 8.58542 -9.17513L6.72659 -9.9132ZM-2.43463 -2.11871L1.40537 -28.2387L-0.57336 -28.5296L-4.41336 -2.40961L-2.43463 -2.11871ZM0.416004 -28.3842C-0.50425 -27.9928 -0.504274 -27.9929 -0.504286 -27.9929C-0.504271 -27.9929 -0.504269 -27.9929 -0.50424 -27.9928C-0.504181 -27.9927 -0.504066 -27.9924 -0.503899 -27.992C-0.503559 -27.9912 -0.503002 -27.9899 -0.502228 -27.9881C-0.500677 -27.9844 -0.498255 -27.9787 -0.494982 -27.9709C-0.488432 -27.9554 -0.478468 -27.9317 -0.465225 -27.8999C-0.43874 -27.8365 -0.399145 -27.7411 -0.347532 -27.615C-0.244305 -27.363 -0.0930176 -26.9885 0.0975952 -26.5027C0.478848 -25.531 1.01726 -24.1143 1.64301 -22.3413C2.89493 -18.7942 4.49439 -13.8267 5.88468 -8.14643L7.82734 -8.62191C6.41762 -14.3816 4.79708 -19.4141 3.529 -23.007C2.89475 -24.804 2.34816 -26.2424 1.95941 -27.2332C1.76503 -27.7286 1.61006 -28.1122 1.50329 -28.373C1.4499 -28.5033 1.40856 -28.603 1.38036 -28.6705C1.36626 -28.7043 1.35544 -28.7301 1.34804 -28.7476C1.34435 -28.7564 1.3415 -28.7631 1.33953 -28.7678C1.33855 -28.7701 1.33778 -28.7719 1.33723 -28.7732C1.33696 -28.7738 1.33674 -28.7743 1.33658 -28.7747C1.3365 -28.7749 1.33642 -28.7751 1.33638 -28.7752C1.33631 -28.7754 1.33626 -28.7755 0.416004 -28.3842Z" fill="#73AFD7" mask="url(#path-17-inside-1_18_2)"/>
<mask id="path-19-inside-2_18_2" fill="white">
<path d="M14.176 -25.2642C22.296 -24.6242 31.256 -15.9442 31.256 -1.70417C31.256 12.5358 20.536 25.0958 2.33603 25.0958C-1.22397 25.0958 -4.66397 24.9358 -7.82397 24.4958"/>
</mask>
<path d="M14.0975 -24.2673C21.581 -23.6774 30.256 -15.5477 30.256 -1.70417H32.256C32.256 -16.3407 23.011 -25.5709 14.2546 -26.2611L14.0975 -24.2673ZM30.256 -1.70417C30.256 11.9769 19.9904 24.0958 2.33603 24.0958V26.0958C21.0816 26.0958 32.256 13.0948 32.256 -1.70417H30.256ZM2.33603 24.0958C-1.1974 24.0958 -4.58773 23.9368 -7.68606 23.5054L-7.96188 25.4863C-4.74022 25.9349 -1.25055 26.0958 2.33603 26.0958V24.0958Z" fill="#73AFD7" mask="url(#path-19-inside-2_18_2)"/>
<path d="M181.361 4.13582C181.847 4.25554 181.847 4.2555 181.847 4.25541L181.847 4.255L181.847 4.25339L181.849 4.24697L181.855 4.22157L181.879 4.12241L181.972 3.74524L182.306 2.39263C182.584 1.26958 182.956 -0.236526 183.336 -1.76885C184.002 -4.45358 184.686 -7.20094 184.927 -8.12553C188.316 -8.93012 194.817 -10.8795 199.882 -13.0615C198.279 -8.13694 193.519 -5.68277 188.739 -4.2635L188.466 -4.18252L188.396 -3.90662L184.628 11.0129L176.943 7.20774L176.368 6.92308L176.232 7.55009L174.562 15.2689L159.484 8.55901L159.216 8.4396L158.981 8.61582L159.281 9.01582L158.981 8.61585L158.981 8.61592L158.981 8.61622L158.979 8.61741L158.973 8.62208L158.948 8.64035L158.855 8.7103L158.516 8.96562C158.23 9.18015 157.84 9.47415 157.42 9.79196C156.586 10.4223 155.627 11.1509 155.139 11.5369C153.204 12.9326 150.7 13.0191 148.478 12.4371C147.371 12.1472 146.357 11.6963 145.551 11.1824C144.99 10.8246 144.551 10.4492 144.249 10.0931C145.967 9.37988 147.669 8.31055 149.426 7.20658C149.773 6.98849 150.123 6.76904 150.475 6.55072C152.79 5.11481 155.264 3.69659 158.154 2.86862C159.714 3.62603 162.977 5.19043 165.895 6.58684C167.41 7.31189 168.833 7.99194 169.877 8.49071L171.123 9.08591L171.465 9.24962L171.555 9.29241L171.578 9.30334L171.584 9.30611L171.585 9.3068L171.586 9.30698C171.586 9.30701 171.586 9.30703 171.801 8.85582L171.586 9.30703L172.212 9.60604L172.297 8.91734L173.397 0.0503006L181.108 4.56726L181.686 4.90569L181.847 4.25554L181.361 4.13582Z" stroke="#73AFD7" stroke-miterlimit="10"/>
<path d="M144.552 5.18251L144.552 5.1825L144.549 5.18431C142.149 6.58879 140.558 6.68998 139.407 6.13972C138.34 5.62965 137.507 4.49924 136.76 2.88502C137.698 2.68742 138.825 2.28797 139.923 1.84447C141.312 1.28384 142.713 0.628611 143.733 0.148861C147.215 -1.4641 149.628 -1.68374 151.258 -1.32112C152.568 -1.02945 153.412 -0.352304 153.93 0.35612C151.131 1.42923 146.997 3.77472 144.552 5.18251Z" stroke="#73AFD7" stroke-miterlimit="10"/>
<path d="M178.711 -3.30217C178.624 -2.88951 178.546 -2.53927 178.483 -2.26254L170.29 -8.07205L169.588 -8.56993L169.504 -7.71335L168.573 1.70084L156.261 -4.11325C156.26 -4.11378 156.259 -4.1143 156.258 -4.11483C152.277 -6.06247 147.592 -6.02078 143.652 -3.98855L143.642 -3.98363L143.633 -3.9783C143.348 -3.81531 143.093 -3.67045 142.844 -3.56375L142.825 -3.55537L142.806 -3.54536C137.775 -0.862286 134.793 -1.08553 132.953 -2.2198C131.229 -3.2832 130.339 -5.23542 129.755 -6.94056C131.48 -7.51697 134.483 -8.78707 137.668 -10.197C141.198 -11.7589 144.991 -13.5105 147.612 -14.7309L147.614 -14.7318C149.498 -15.6183 151.676 -15.4707 153.411 -14.3634C155.224 -13.1948 157.14 -12.0957 158.873 -11.2317C160.595 -10.373 162.173 -9.72836 163.299 -9.49461L164.032 -9.34252L163.892 -10.0777C163.821 -10.454 163.751 -11.4715 163.691 -12.8401C163.631 -14.1891 163.581 -15.8329 163.541 -17.4267C163.501 -19.02 163.471 -20.5612 163.451 -21.7042C163.446 -21.9968 163.441 -22.2634 163.438 -22.4979L172.381 -14.1781L172.876 -13.7167L173.171 -14.3266C174.377 -16.8207 175.148 -20.8395 174.617 -24.968C174.404 -26.6379 175.292 -28.2016 176.812 -28.7543L176.816 -28.7559C180.368 -30.0857 184.59 -32.1459 188.593 -34.099C189.016 -34.3058 189.437 -34.5113 189.855 -34.7146C193.955 -36.7105 197.681 -38.4768 200.154 -39.1642C200.572 -36.2684 200.214 -33.9506 199.328 -32.0332C198.387 -29.9945 196.829 -28.3651 194.879 -26.9653C192.927 -25.5632 190.602 -24.406 188.15 -23.3033C187.287 -22.9153 186.404 -22.5325 185.518 -22.1482C183.906 -21.4489 182.282 -20.7444 180.742 -19.9936L180.442 -19.8476L180.462 -19.515C180.679 -15.8121 180.146 -11.3265 179.553 -7.74593C179.257 -5.96003 178.947 -4.4077 178.711 -3.30217Z" stroke="#73AFD7" stroke-miterlimit="10"/>
<path d="M124.078 10.6425L129.767 13.7753L124.041 24.4596L123.865 24.7868L124.128 25.0493L124.481 24.6958C124.128 25.0493 124.128 25.0494 124.128 25.0495L124.128 25.0497L124.129 25.0502L124.13 25.0518L124.135 25.0569L124.154 25.0748C124.169 25.0901 124.192 25.112 124.222 25.1399C124.28 25.1956 124.366 25.2751 124.476 25.3734C124.697 25.57 125.017 25.842 125.418 26.1483C126.159 26.7133 127.187 27.4019 128.39 27.9465C128.367 28.1694 128.285 28.451 128.138 28.7843C127.934 29.2452 127.636 29.7378 127.319 30.1974C127.005 30.6547 126.682 31.0667 126.436 31.3651C126.384 31.4294 126.334 31.4883 126.29 31.5411L122.845 29.6191L122.403 29.3728L122.162 29.8171L118.754 36.0915C118.676 36.0954 118.574 36.0917 118.444 36.0743C118.201 36.042 117.906 35.969 117.572 35.8607C116.903 35.6443 116.127 35.3046 115.38 34.9412C114.637 34.5793 113.936 34.2004 113.419 33.9114C113.257 33.8203 113.113 33.7383 112.992 33.6688L116.801 26.6544L117.038 26.218L116.603 25.978L105.878 20.058L107.83 16.4621L124.078 10.6425Z" stroke="#73AFD7" stroke-miterlimit="10"/>
<path d="M118.123 21.3337L113.695 18.8774L120.822 16.3604L118.123 21.3337Z" stroke="#73AFD7" stroke-miterlimit="10"/>
<path d="M124.758 5.05279L124.759 5.05334C127.354 6.48815 131.604 9.58462 134.273 14.0091C136.924 18.402 138.027 24.1129 134.362 30.898C131.663 35.8642 127.851 38.6756 123.365 39.5092C118.86 40.3463 113.6 39.2029 108.004 36.0986L108.003 36.0982C102.468 33.0383 99.9208 28.4756 99.1391 23.9507C98.3538 19.4044 99.3531 14.8983 100.921 12.0146C102.475 9.156 106.003 6.0468 110.388 4.34181C114.757 2.64272 119.917 2.36088 124.758 5.05279Z" stroke="#73AFD7" stroke-miterlimit="10"/>
<path d="M62.8816 -30.0107L63.8448 -30.1677L63.8147 -30.1978C74.0299 -31.6137 81.3108 -28.5265 86.3708 -23.2675C91.614 -17.8182 94.5163 -9.98951 95.7474 -2.26547L95.7476 -2.26403C96.9763 5.30338 94.0206 11.8587 89.0188 16.8261C84.0092 21.8012 76.967 25.1577 70.1201 26.2824C56.5105 28.518 42.4108 19.7405 39.7749 3.21706C37.1352 -13.3301 46.7323 -27.3781 62.8816 -30.0107Z" stroke="#73AFD7" stroke-miterlimit="10"/>
<path d="M59.2767 -24.738C59.4543 -23.5852 59.7781 -21.3821 60.1981 -18.5256C60.8458 -14.1204 61.7219 -8.16127 62.6418 -2.10409C64.1894 8.08516 65.8659 18.5866 66.7773 22.3204C62.6157 22.8244 57.7096 21.2983 53.5425 18.1518C49.202 14.8745 45.7122 9.87383 44.735 3.69769L44.7349 3.69717C43.8087 -2.11653 44.5013 -8.61495 46.9704 -13.9801C49.3666 -19.1871 53.4197 -23.3002 59.2767 -24.738Z" stroke="#73AFD7" stroke-miterlimit="10"/>
<path d="M85.5928 13.5159C82.3251 17.5445 78.154 20.2118 75.1396 20.9041L68.2033 -26.3178C73.1701 -26.9056 78.1126 -24.2887 82.1323 -19.8966C86.2755 -15.3696 89.3628 -9.02963 90.3875 -2.66469C91.3988 3.61697 89.0306 9.2776 85.5928 13.5159Z" stroke="#73AFD7" stroke-miterlimit="10"/>
<path d="M48.8329 -2.0453C48.6712 -2.40274 48.5371 -2.7306 48.4326 -3.02087C48.7162 -2.90563 49.055 -2.76756 49.436 -2.61148C50.6066 -2.13199 52.1756 -1.48292 53.7703 -0.804112C55.366 -0.124874 56.9831 0.582297 58.2516 1.17836C58.8866 1.47672 59.4282 1.74444 59.8339 1.96509C60.0255 2.06927 60.1815 2.16007 60.3003 2.23632C60.1839 2.49388 59.9756 2.75203 59.6658 3.00454C59.2451 3.34755 58.6678 3.65385 57.9829 3.9068C56.6536 4.39776 54.9984 4.65876 53.5102 4.63864C53.087 4.35594 52.5724 3.84314 52.018 3.16058C51.4244 2.42987 50.8148 1.54199 50.2585 0.626225C49.7023 -0.289199 49.2047 -1.22381 48.8329 -2.0453Z" stroke="#73AFD7" stroke-miterlimit="10"/>
<path d="M84.5417 -8.93335C84.5291 -8.62433 84.5014 -8.27273 84.458 -7.88689C84.3567 -6.98503 84.1752 -5.93774 83.9339 -4.89151C83.6925 -3.84473 83.3935 -2.80858 83.0598 -1.9268C82.7475 -1.10175 82.4192 -0.451367 82.1032 -0.0485411C80.7037 0.443782 79.0638 0.722732 77.6559 0.681052C76.9309 0.659588 76.2893 0.55366 75.7817 0.363294C75.4097 0.223802 75.1288 0.0466585 74.933 -0.159796C75.0233 -0.271605 75.1444 -0.409032 75.2949 -0.570413C75.6129 -0.91118 76.0444 -1.33948 76.5545 -1.82619C77.5734 -2.79861 78.8868 -3.98636 80.1879 -5.14007C81.4881 -6.29305 82.7725 -7.40896 83.7321 -8.23683C84.0385 -8.50115 84.3117 -8.73605 84.5417 -8.93335Z" stroke="#73AFD7" stroke-miterlimit="10"/>
<mask id="path-32-inside-3_18_2" fill="white">
<path d="M207.561 44.7758C208.361 47.1758 208.841 48.7358 209.201 51.0958C211.361 49.4158 214.281 47.6958 217.201 46.7358C211.441 36.0958 200.041 11.6958 198.161 9.73584C195.321 9.89584 191.361 11.5358 190.641 12.2958C191.201 20.7358 193.481 50.2958 191.161 70.7758C192.681 70.6558 200.081 69.0158 200.081 69.0158C199.401 61.9358 199.841 48.0558 199.841 48.0558L208.401 44.3358L209.761 38.7358L205.081 36.8958C204.721 38.6158 199.321 42.4958 199.321 42.4958L198.641 26.5358C198.641 26.5358 201.761 31.2158 204.721 37.6958"/>
</mask>
<path d="M209.201 51.0958L208.212 51.2466L208.469 52.9317L209.815 51.8852L209.201 51.0958ZM217.201 46.7358L217.513 47.6858L218.65 47.3121L218.08 46.2598L217.201 46.7358ZM198.161 9.73584L198.882 9.04361L198.564 8.71154L198.105 8.73742L198.161 9.73584ZM190.641 12.2958L189.915 11.6081L189.614 11.9256L189.643 12.362L190.641 12.2958ZM191.161 70.7758L190.167 70.6633L190.031 71.8682L191.239 71.7727L191.161 70.7758ZM200.081 69.0158L200.297 69.9921L201.161 69.8008L201.076 68.9202L200.081 69.0158ZM199.841 48.0558L199.442 47.1387L198.861 47.3911L198.841 48.0242L199.841 48.0558ZM208.401 44.3358L208.799 45.253L209.255 45.0549L209.372 44.5718L208.401 44.3358ZM209.761 38.7358L210.732 38.9718L210.938 38.1243L210.127 37.8052L209.761 38.7358ZM205.081 36.8958L205.447 35.9652L204.345 35.5319L204.102 36.691L205.081 36.8958ZM199.321 42.4958L198.322 42.5384L198.4 44.3884L199.904 43.3079L199.321 42.4958ZM198.641 26.5358L199.473 25.9811L197.489 23.0061L197.642 26.5784L198.641 26.5358ZM206.612 45.0921C207.407 47.4766 207.865 48.9722 208.212 51.2466L210.189 50.945C209.816 48.4995 209.315 46.8751 208.509 44.4596L206.612 45.0921ZM209.815 51.8852C211.905 50.2593 214.725 48.6025 217.513 47.6858L216.888 45.7859C213.837 46.7892 210.816 48.5724 208.587 50.3065L209.815 51.8852ZM218.08 46.2598C215.211 40.9604 210.933 32.225 207.122 24.5367C205.219 20.6997 203.434 17.125 202.006 14.3854C201.292 13.0164 200.662 11.847 200.15 10.9539C199.662 10.1052 199.218 9.39375 198.882 9.04361L197.439 10.4281C197.573 10.5679 197.897 11.0478 198.415 11.9501C198.908 12.8082 199.523 13.9497 200.232 15.3101C201.65 18.0292 203.427 21.5869 205.33 25.425C209.128 33.0867 213.43 41.8713 216.321 47.2119L218.08 46.2598ZM198.105 8.73742C196.547 8.82515 194.744 9.3097 193.262 9.85172C192.514 10.1253 191.825 10.422 191.266 10.7065C190.747 10.9709 190.224 11.2813 189.915 11.6081L191.367 12.9836C191.366 12.9846 191.37 12.9803 191.38 12.9709C191.391 12.9616 191.406 12.9491 191.426 12.9333C191.467 12.9013 191.523 12.8615 191.596 12.8145C191.743 12.7201 191.936 12.6099 192.174 12.4889C192.649 12.2472 193.262 11.9814 193.949 11.73C195.338 11.222 196.934 10.8065 198.217 10.7343L198.105 8.73742ZM189.643 12.362C190.205 20.8385 192.475 50.2934 190.167 70.6633L192.154 70.8884C194.487 50.2983 192.196 20.6332 191.639 12.2296L189.643 12.362ZM191.239 71.7727C192.08 71.7064 194.39 71.2474 196.395 70.8298C197.418 70.6166 198.394 70.4072 199.113 70.2512C199.472 70.1732 199.768 70.1085 199.974 70.0633C200.077 70.0407 200.158 70.0229 200.213 70.0108C200.24 70.0047 200.261 70.0001 200.275 69.997C200.283 69.9954 200.288 69.9942 200.292 69.9934C200.293 69.993 200.295 69.9927 200.296 69.9925C200.296 69.9924 200.296 69.9923 200.297 69.9922C200.297 69.9922 200.297 69.9922 200.297 69.9922C200.297 69.9922 200.297 69.9921 200.081 69.0158C199.864 68.0395 199.864 68.0395 199.864 68.0395C199.864 68.0396 199.864 68.0396 199.864 68.0396C199.864 68.0396 199.864 68.0397 199.863 68.0398C199.862 68.04 199.861 68.0403 199.859 68.0407C199.856 68.0414 199.85 68.0426 199.844 68.0441C199.83 68.0472 199.809 68.0518 199.782 68.0578C199.728 68.0697 199.648 68.0873 199.545 68.1098C199.341 68.1547 199.047 68.2191 198.689 68.2967C197.973 68.4519 197.003 68.6601 195.987 68.8719C193.911 69.3043 191.762 69.7253 191.082 69.7789L191.239 71.7727ZM201.076 68.9202C200.742 65.4363 200.681 60.2422 200.706 55.8866C200.718 53.7157 200.752 51.7649 200.782 50.3569C200.798 49.653 200.812 49.085 200.823 48.6933C200.828 48.4974 200.832 48.3456 200.836 48.243C200.837 48.1917 200.838 48.1526 200.839 48.1265C200.839 48.1135 200.84 48.1036 200.84 48.0971C200.84 48.0938 200.84 48.0914 200.84 48.0898C200.84 48.089 200.84 48.0884 200.84 48.088C200.84 48.0878 200.84 48.0877 200.84 48.0876C200.84 48.0875 200.84 48.0875 199.841 48.0558C198.841 48.0242 198.841 48.0242 198.841 48.0244C198.841 48.0245 198.841 48.0247 198.841 48.0249C198.841 48.0254 198.841 48.0261 198.841 48.0269C198.841 48.0287 198.841 48.0313 198.841 48.0348C198.841 48.0416 198.84 48.0518 198.84 48.0652C198.839 48.0921 198.838 48.1318 198.836 48.1839C198.833 48.288 198.829 48.4414 198.824 48.6389C198.813 49.0339 198.798 49.6056 198.783 50.3135C198.752 51.7293 198.718 53.691 198.706 55.8751C198.681 60.2295 198.74 65.5154 199.085 69.1114L201.076 68.9202ZM200.239 48.973L208.799 45.253L208.002 43.4187L199.442 47.1387L200.239 48.973ZM209.372 44.5718L210.732 38.9718L208.789 38.4998L207.429 44.0998L209.372 44.5718ZM210.127 37.8052L205.447 35.9652L204.715 37.8265L209.395 39.6665L210.127 37.8052ZM204.102 36.691C204.096 36.7213 204.053 36.8442 203.9 37.0721C203.756 37.2865 203.551 37.5384 203.293 37.8196C202.776 38.3817 202.102 38.9977 201.418 39.5787C200.738 40.1564 200.067 40.6838 199.563 41.0678C199.312 41.2594 199.104 41.4144 198.96 41.5211C198.888 41.5744 198.831 41.6156 198.793 41.6432C198.774 41.657 198.76 41.6674 198.75 41.6742C198.746 41.6776 198.742 41.6802 198.74 41.6817C198.739 41.6825 198.738 41.6831 198.738 41.6834C198.737 41.6836 198.737 41.6837 198.737 41.6838C198.737 41.6838 198.737 41.6838 198.737 41.6838C198.737 41.6838 198.737 41.6837 199.321 42.4958C199.904 43.3079 199.904 43.3079 199.904 43.3078C199.905 43.3078 199.905 43.3077 199.905 43.3076C199.905 43.3074 199.905 43.3071 199.906 43.3068C199.907 43.3062 199.908 43.3054 199.909 43.3043C199.912 43.3022 199.917 43.2991 199.922 43.2951C199.933 43.2871 199.949 43.2755 199.97 43.2605C200.011 43.2304 200.071 43.1866 200.147 43.1305C200.299 43.0183 200.516 42.8567 200.777 42.6577C201.297 42.2604 201.998 41.7103 202.713 41.103C203.424 40.4989 204.168 39.8224 204.765 39.1733C205.063 38.8489 205.34 38.5155 205.56 38.1885C205.771 37.8749 205.976 37.5004 206.06 37.1007L204.102 36.691ZM200.32 42.4533L199.64 26.4933L197.642 26.5784L198.322 42.5384L200.32 42.4533ZM198.641 26.5358C197.809 27.0905 197.809 27.0905 197.809 27.0904C197.809 27.0904 197.809 27.0904 197.809 27.0904C197.809 27.0905 197.809 27.0906 197.809 27.0907C197.809 27.0911 197.809 27.0917 197.81 27.0926C197.811 27.0945 197.813 27.0974 197.816 27.1015C197.821 27.1097 197.83 27.1223 197.841 27.1393C197.863 27.1733 197.897 27.2249 197.941 27.2933C198.03 27.43 198.161 27.6341 198.327 27.8997C198.661 28.4312 199.137 29.2089 199.706 30.1881C200.844 32.1474 202.348 34.9079 203.811 38.1113L205.63 37.2803C204.134 34.0038 202.597 31.1843 201.435 29.1836C200.854 28.1827 200.366 27.3855 200.022 26.8369C199.85 26.5626 199.713 26.3504 199.62 26.2059C199.573 26.1337 199.537 26.0783 199.512 26.0406C199.5 26.0218 199.49 26.0074 199.484 25.9974C199.48 25.9924 199.478 25.9886 199.476 25.9859C199.475 25.9845 199.474 25.9834 199.474 25.9826C199.474 25.9823 199.473 25.9819 199.473 25.9817C199.473 25.9816 199.473 25.9814 199.473 25.9814C199.473 25.9812 199.473 25.9811 198.641 26.5358Z" fill="#73AFD7" mask="url(#path-32-inside-3_18_2)"/>
<mask id="path-34-inside-4_18_2" fill="white">
<path d="M192.081 58.0958C187.961 56.5758 184.921 53.0158 183.601 46.0558C181.401 34.6158 191.641 27.7758 191.641 27.7758"/>
</mask>
<path d="M183.601 46.0558L184.583 45.8695L184.583 45.867L183.601 46.0558ZM192.427 57.1577C188.726 55.7923 185.858 52.5901 184.583 45.8695L182.618 46.2422C183.984 53.4415 187.196 57.3594 191.735 59.034L192.427 57.1577ZM184.583 45.867C183.551 40.501 185.426 36.2083 187.604 33.2142C188.695 31.7161 189.853 30.5563 190.738 29.7719C191.18 29.3804 191.552 29.0844 191.81 28.8885C191.939 28.7906 192.039 28.7178 192.105 28.6707C192.139 28.6472 192.163 28.6301 192.178 28.6195C192.186 28.6142 192.192 28.6106 192.195 28.6085C192.196 28.6075 192.197 28.6069 192.197 28.6067C192.197 28.6066 192.197 28.6066 192.197 28.6068C192.197 28.6068 192.197 28.607 192.197 28.607C192.197 28.6072 192.196 28.6074 191.641 27.7758C191.085 26.9443 191.085 26.9446 191.084 26.9448C191.084 26.945 191.084 26.9453 191.083 26.9456C191.083 26.9461 191.082 26.9467 191.081 26.9475C191.078 26.9489 191.076 26.9508 191.072 26.9531C191.065 26.9578 191.056 26.9641 191.044 26.9721C191.021 26.9881 190.989 27.0108 190.947 27.0402C190.865 27.0989 190.747 27.1842 190.6 27.2957C190.307 27.5185 189.896 27.8463 189.412 28.2748C188.446 29.1304 187.182 30.3956 185.987 32.0374C183.596 35.3234 181.451 40.1707 182.619 46.2447L184.583 45.867Z" fill="#73AFD7" mask="url(#path-34-inside-4_18_2)"/>
<mask id="path-36-inside-5_18_2" fill="white">
<path d="M207.201 26.8558C212.081 26.2958 218.401 30.4158 220.041 38.8958C221.681 47.3758 216.721 56.0558 205.881 58.1758C203.761 58.5758 201.721 58.8958 199.761 59.0158"/>
</mask>
<path d="M205.881 58.1758L206.066 59.1585L206.073 59.1573L205.881 58.1758ZM207.315 27.8493C211.558 27.3624 217.494 30.9932 219.059 39.0857L221.023 38.706C219.308 29.8384 212.604 25.2292 207.087 25.8624L207.315 27.8493ZM219.059 39.0857C220.592 47.0123 216 55.1779 205.689 57.1944L206.073 59.1573C217.442 56.9338 222.77 47.7393 221.023 38.706L219.059 39.0857ZM205.695 57.1932C203.59 57.5903 201.598 57.9015 199.7 58.0177L199.822 60.014C201.844 59.8902 203.931 59.5614 206.066 59.1585L205.695 57.1932Z" fill="#73AFD7" mask="url(#path-36-inside-5_18_2)"/>
<path d="M18.5728 44.4632L11.3886 40.8886L35.256 22.9206L41.8779 26.1948C41.8659 26.3598 41.8496 26.5829 41.8299 26.8579C41.7839 27.4983 41.7188 28.4203 41.6425 29.5477C41.4899 31.8022 41.2923 34.8782 41.1122 38.1634C40.7809 44.2046 40.5058 50.9996 40.6871 54.674L32.1087 50.5436C33.0929 46.6903 33.6482 42.6936 33.9589 39.6313C34.1197 38.0456 34.2152 36.7072 34.2705 35.7645C34.2982 35.2931 34.3159 34.9205 34.3266 34.6652C34.332 34.5375 34.3356 34.4392 34.3379 34.3725L34.3404 34.2965L34.341 34.2768L34.3412 34.2716L34.3412 34.2702L34.3412 34.2698C34.3412 34.2697 34.3412 34.2696 33.8414 34.2558L34.3412 34.2696L34.3689 33.2692L33.5523 33.8479L18.5728 44.4632Z" stroke="#73AFD7" stroke-miterlimit="10"/>
<path d="M158.472 49.1127L159.163 48.641L158.082 48.3707L157.922 48.3307L156.969 48.0924L157.266 48.8278C157.128 48.9931 157.004 49.1809 156.892 49.3761C156.671 49.76 156.473 50.2191 156.304 50.7066C155.965 51.6798 155.725 52.814 155.662 53.7832L155.653 53.921L155.716 54.0439C155.959 54.5179 156.509 55.1382 157.216 55.7908C157.938 56.457 158.87 57.1975 159.926 57.9102C160.872 58.5481 161.928 59.1709 163.033 59.6992C161.039 59.2985 159.458 58.618 158.208 57.8498C156.233 56.6359 155.061 55.1874 154.393 54.2208C154.337 53.8675 154.306 53.1816 154.355 52.3659C154.409 51.4806 154.554 50.5007 154.833 49.7004L155.601 47.5003L153.998 49.1919C153.609 49.6019 152.896 50.5042 152.287 51.5672C151.687 52.6145 151.136 53.9081 151.181 55.0753L151.187 55.2173L151.266 55.3352C153.28 58.3238 157.511 61.664 162.973 64.0171C154.686 62.2102 151.107 57.8741 149.787 55.5753C149.933 52.8499 151.003 50.122 152.486 48.0685L155.06 44.5044L151.752 47.3995C151.462 47.6531 149.999 48.7262 148.232 49.8543C146.583 50.9067 144.74 51.9614 143.39 52.4398C143.082 52.0739 142.628 51.429 142.109 50.566C141.471 49.5073 140.758 48.1587 140.125 46.6836C139.761 45.8334 139.427 44.9504 139.149 44.0633C140.431 46.9566 142.167 49.0894 143.247 50.1693L143.424 50.3461L143.672 50.3107C143.879 50.2811 144.113 50.1976 144.346 50.0961C144.587 49.9913 144.859 49.8527 145.15 49.691C145.732 49.3676 146.417 48.9383 147.127 48.4675C148.549 47.525 150.097 46.3984 151.183 45.574L153.793 43.5926L150.711 44.7055C149.349 45.1974 146.706 45.8311 144.625 45.7649C143.455 44.4822 142.217 41.8736 141.615 38.9742C141.257 37.247 141.136 35.4701 141.365 33.8541C141.462 35.6506 141.845 37.361 142.341 38.8536C143.159 41.3118 144.31 43.2498 145.082 44.0443L145.222 44.1874L145.421 44.1954C145.611 44.2029 145.85 44.1673 146.095 44.116C146.35 44.0624 146.651 43.9831 146.979 43.8837C147.637 43.6849 148.426 43.3999 149.226 43.0612C150.025 42.7226 150.844 42.3266 151.557 41.904C152.261 41.4869 152.9 41.0221 153.305 40.5358L153.863 39.8659L153.003 39.7226C152.714 39.6743 152.318 39.4686 151.924 39.0983C151.537 38.735 151.191 38.2485 150.983 37.7025C150.776 37.1593 150.709 36.5687 150.858 35.9788C151.006 35.3918 151.378 34.7655 152.117 34.1634C152.855 33.5618 153.534 33.3348 154.123 33.3193C154.715 33.3038 155.263 33.5013 155.737 33.8277C156.214 34.1558 156.605 34.607 156.867 35.0691C157.135 35.5405 157.243 35.9731 157.222 36.2601L157.157 37.1697L157.959 36.7354C158.514 36.4347 159.1 35.8996 159.653 35.2902C160.215 34.6727 160.773 33.9455 161.272 33.2254C161.771 32.505 162.216 31.7836 162.547 31.1744C162.713 30.87 162.854 30.5889 162.959 30.3469C163.06 30.115 163.144 29.8851 163.175 29.6947L163.205 29.5061L163.102 29.3454C162.506 28.4184 160.887 26.8607 158.686 25.5188C157.305 24.6765 155.669 23.9039 153.877 23.4219C155.537 23.5095 157.286 24.0139 158.929 24.7609C161.596 25.9734 163.844 27.7624 164.834 29.2053C164.45 31.2858 163.289 33.7829 162.503 34.9814L160.543 37.9673L163.248 35.6343C164.274 34.7484 165.693 33.4605 166.908 32.2558C167.515 31.6539 168.076 31.0673 168.514 30.5589C168.733 30.3048 168.925 30.0651 169.078 29.849C169.227 29.6395 169.357 29.4264 169.43 29.2294L169.516 28.9971L169.383 28.7878C168.555 27.4836 166.882 25.2999 164.358 23.4061C165.142 23.8654 165.912 24.3781 166.646 24.9144C167.936 25.8574 169.089 26.8537 169.978 27.7135C170.709 28.4192 171.241 29.0124 171.531 29.3991C170.791 30.6226 169.375 32.2164 167.999 33.6208C166.527 35.1221 165.168 36.3411 164.857 36.5786L161.419 39.2081L165.366 37.4317C167.637 36.4098 170.514 35.981 173.173 36.4049C175.102 38.1867 178.538 42.6876 178.493 51.2417C177.385 45.3396 175.043 40.4339 172.606 37.8338L172.505 37.7264L172.362 37.6907C171.259 37.4149 169.905 37.6842 168.772 38.0499C167.621 38.4216 166.595 38.9276 166.101 39.2287L164.068 40.4658L166.427 40.1514C167.261 40.0401 168.239 40.1037 169.109 40.2397C169.907 40.3646 170.568 40.5431 170.908 40.6755C172.192 42.074 174.491 45.1321 174.35 50.4731C174.073 49.2451 173.69 48.0432 173.267 46.9505C172.804 45.7524 172.289 44.6711 171.802 43.8133C171.325 42.9736 170.847 42.2958 170.444 41.9545L170.337 41.8633L170.198 41.8417C169.248 41.694 168.102 41.6844 167.085 41.8095C166.576 41.8722 166.086 41.9702 165.663 42.1078C165.249 42.2423 164.855 42.4285 164.577 42.6933L164.13 43.1176L164.637 43.4674C169.078 46.5303 172.173 52.3328 170.485 57.3653C165.496 57.4192 160.607 53.8462 158.472 49.1127Z" stroke="#73AFD7" stroke-miterlimit="10"/>
<path d="M30.9039 76.1262L30.9038 76.1274C30.0735 84.667 27.0323 90.0528 22.5146 93.2162C17.9777 96.393 11.8609 97.3935 4.75208 96.9567C-2.36192 96.5195 -8.57803 94.7929 -12.7352 91.3602C-16.8569 87.9568 -19.0224 82.8201 -17.9437 75.3674C-17.0336 69.1158 -14.5931 62.6657 -10.3745 57.9074C-6.16984 53.165 -0.185606 50.0844 7.89201 50.5549C19.7698 51.263 32.3883 61.2038 30.9039 76.1262Z" stroke="#73AFD7" stroke-miterlimit="10"/>
<path d="M-2.15442 64.5276C0.622481 62.3993 4.25565 61.3885 7.65622 61.5531L7.65617 61.5551C11.0998 61.7292 14.0676 63.0604 16.1375 65.3926C18.2072 67.7247 19.418 71.1019 19.2617 75.4377C19.1087 79.6851 17.0819 82.1131 14.4574 83.5416C11.7947 84.9909 8.49851 85.4173 5.85514 85.5564C3.22831 85.6947 0.0431714 85.4496 -2.47126 83.9001C-4.94231 82.3773 -6.85858 79.5354 -6.85858 74.2557C-6.85858 69.9017 -4.92947 66.6545 -2.15442 64.5276Z" stroke="#73AFD7" stroke-miterlimit="10"/>
<path d="M7.09594 64.0297L8.476 69.6157L8.56848 69.99L8.95402 69.9957L15.6694 70.0949L10.6513 74.0636L10.36 74.2939L10.4963 74.6393L12.9483 80.851L6.10204 76.669L5.79804 76.4834L5.52324 76.71L-0.35828 81.5615L1.28481 75.3435L1.36686 75.033L1.1186 74.8292L-3.76853 70.8184L3.45818 69.9925L3.71005 69.9637L3.83568 69.7435L7.09594 64.0297Z" stroke="#73AFD7" stroke-miterlimit="10"/>
<path d="M350.904 76.1262L350.904 76.1274C350.074 84.667 347.032 90.0528 342.515 93.2162C337.978 96.393 331.861 97.3935 324.752 96.9567C317.638 96.5195 311.422 94.7929 307.265 91.3602C303.143 87.9568 300.978 82.8201 302.056 75.3674C302.966 69.1158 305.407 62.6657 309.626 57.9075C313.83 53.165 319.814 50.0844 327.892 50.5549C339.77 51.263 352.388 61.2038 350.904 76.1262Z" stroke="#73AFD7" stroke-miterlimit="10"/>
<path d="M317.846 64.5276C320.623 62.3993 324.256 61.3885 327.656 61.5531L327.656 61.5551C331.1 61.7292 334.068 63.0604 336.138 65.3926C338.207 67.7247 339.418 71.1019 339.262 75.4377C339.109 79.6851 337.082 82.1131 334.457 83.5416C331.795 84.9909 328.499 85.4173 325.855 85.5564C323.228 85.6947 320.043 85.4496 317.529 83.9001C315.058 82.3773 313.141 79.5354 313.141 74.2557C313.141 69.9017 315.071 66.6545 317.846 64.5276Z" stroke="#73AFD7" stroke-miterlimit="10"/>
<path d="M327.096 64.0297L328.476 69.6157L328.569 69.99L328.954 69.9957L335.637 70.0949L330.65 74.0646L330.362 74.294L330.496 74.6372L332.916 80.8518L326.103 76.6696L325.799 76.4828L325.523 76.71L319.642 81.5615L321.285 75.3435L321.367 75.033L321.119 74.8292L316.232 70.8184L323.458 69.9925L323.71 69.9637L323.836 69.7435L327.096 64.0297Z" stroke="#73AFD7" stroke-miterlimit="10"/>
<path d="M231.147 123.648C233.645 120.426 240.998 109.987 243.279 105.929C244.341 105.371 246.842 104.36 250.187 103.122C253.687 101.827 258.07 100.299 262.593 98.8108C271.482 95.8854 280.84 93.1371 285.124 92.5836C287.096 94.7227 291.118 97.4344 295.125 99.8253C298.916 102.087 302.764 104.102 305.008 105.129C304.25 106.115 302.724 108.209 300.772 110.927C298.323 114.34 295.18 118.77 291.987 123.324C285.916 131.981 279.635 141.12 277.601 144.537C275.848 143.387 272.565 141.812 268.562 140.041C264.158 138.093 258.824 135.883 253.558 133.704L253.28 133.589C248.106 131.448 243.015 129.341 238.943 127.541C236.87 126.625 235.067 125.791 233.654 125.074C232.535 124.507 231.688 124.026 231.147 123.648Z" stroke="#73AFD7" stroke-miterlimit="10"/>
<path d="M276.872 101.588C276.941 102.066 276.956 102.537 276.917 102.94C275.484 102.277 273.568 101.931 271.98 101.744C271.763 101.719 271.55 101.696 271.344 101.676L276.419 100.052C276.626 100.457 276.786 101.001 276.872 101.588Z" stroke="#73AFD7" stroke-miterlimit="10"/>
<path d="M278.256 110.36L278.492 110.507L278.741 110.385L285.941 106.865L286.356 106.662L286.186 106.232C285.101 103.485 284.757 100.898 284.808 99.1168C286.608 100.163 290.476 102.321 293.584 104.056C295.399 105.069 296.955 105.937 297.691 106.356C297.635 106.573 297.532 106.85 297.374 107.188C297.139 107.691 296.804 108.284 296.392 108.94C295.568 110.249 294.458 111.774 293.279 113.266C292.101 114.757 290.862 116.207 289.786 117.366C289.001 118.211 288.325 118.878 287.829 119.298C287.106 117.404 286.047 114.679 283.275 112.956C280.172 111.027 275.067 110.422 266.216 113.177C264.509 113.682 262.931 114.228 261.509 114.721C261.455 114.739 261.402 114.758 261.349 114.776C259.878 115.285 258.589 115.728 257.478 116.011C256.358 116.298 255.483 116.404 254.825 116.291C254.211 116.184 253.781 115.887 253.494 115.284C253.27 114.799 253.061 114.012 253.391 113.107C253.722 112.2 254.63 111.071 256.86 109.985C257.013 109.911 257.184 109.826 257.372 109.732C260.522 108.155 268.415 104.204 278.256 110.36Z" stroke="#73AFD7" stroke-miterlimit="10"/>
<path d="M248.455 108.921C245.561 112.308 244.473 115.485 244.402 118.343C244.334 121.062 245.187 123.437 246.185 125.364C245.809 125.211 245.438 125.062 245.073 124.915C243.995 124.481 242.966 124.067 242.011 123.639C240.543 122.983 239.343 122.335 238.527 121.619C239.41 120.252 240.182 119.008 240.886 117.872C242.175 115.795 243.237 114.081 244.343 112.646C245.568 111.055 246.821 109.843 248.455 108.921Z" stroke="#73AFD7" stroke-miterlimit="10"/>
<path d="M276.762 136.856C276.566 137.096 276.404 137.29 276.286 137.429L276.265 137.422L275.342 137.092C274.572 136.818 273.53 136.445 272.44 136.055C271.169 135.6 269.835 135.123 268.794 134.748C270.173 134.448 272.127 133.983 274.196 133.333C276.647 132.562 279.317 131.515 281.388 130.141C280.481 131.788 279.408 133.372 278.458 134.665C277.794 135.569 277.195 136.326 276.762 136.856Z" stroke="#73AFD7" stroke-miterlimit="10"/>
<path d="M271.321 120.621L271.322 120.621C273.15 120.166 274.362 120.312 275.088 120.686C275.789 121.046 276.092 121.642 276.086 122.291C276.074 123.629 274.699 125.331 272.172 125.276C269.317 125.214 266.599 125.989 264.411 127.22C262.42 128.34 260.832 129.859 259.997 131.511L254.768 129.085C257.736 128.489 260.159 126.95 262.489 125.353C262.749 125.175 263.008 124.996 263.266 124.818C265.782 123.079 268.245 121.377 271.321 120.621Z" stroke="#73AFD7" stroke-miterlimit="10"/>
<mask id="path-52-inside-6_18_2" fill="white">
<path d="M329.176 3.89584C329.736 8.01584 330.056 10.7358 329.896 14.6958C333.936 12.6558 339.176 10.7758 344.216 10.1758C338.136 -8.86417 327.256 -52.0642 324.816 -55.8242C320.136 -56.5042 313.256 -55.0642 311.856 -54.0242C310.176 -40.1442 304.696 8.49583 294.616 40.9358C297.096 41.2158 309.616 40.9358 309.616 40.9358C310.736 29.2558 315.696 6.89584 315.696 6.89584L330.696 3.57584L334.616 -5.10416L327.616 -9.54417C326.536 -6.82417 316.536 -2.26416 316.536 -2.26416L320.376 -28.3842C320.376 -28.3842 324.016 -19.8242 326.816 -8.38417"/>
</mask>
<path d="M329.896 14.6958L328.897 14.6555L328.828 16.3553L330.347 15.5885L329.896 14.6958ZM344.216 10.1758L344.334 11.1688L345.537 11.0256L345.169 9.87164L344.216 10.1758ZM324.816 -55.8242L325.655 -56.3685L325.408 -56.7486L324.96 -56.8138L324.816 -55.8242ZM311.856 -54.0242L311.26 -54.8269L310.915 -54.5708L310.863 -54.1443L311.856 -54.0242ZM294.616 40.9358L293.661 40.6391L293.302 41.7939L294.504 41.9295L294.616 40.9358ZM309.616 40.9358L309.638 41.9356L310.527 41.9157L310.611 41.0313L309.616 40.9358ZM315.696 6.89584L315.48 5.91946L314.858 6.05717L314.72 6.67928L315.696 6.89584ZM330.696 3.57584L330.912 4.55221L331.401 4.44395L331.607 3.98742L330.696 3.57584ZM334.616 -5.10416L335.527 -4.69258L335.885 -5.48368L335.152 -5.94862L334.616 -5.10416ZM327.616 -9.54417L328.152 -10.3886L327.132 -11.0353L326.687 -9.9132L327.616 -9.54417ZM316.536 -2.26416L315.547 -2.40961L315.279 -0.59211L316.951 -1.3543L316.536 -2.26416ZM320.376 -28.3842L321.296 -28.7755L319.904 -32.0494L319.387 -28.5296L320.376 -28.3842ZM328.185 4.03052C328.743 8.13805 329.053 10.7867 328.897 14.6555L330.895 14.7362C331.059 10.685 330.729 7.89362 330.167 3.76115L328.185 4.03052ZM330.347 15.5885C334.312 13.586 339.439 11.7516 344.334 11.1688L344.098 9.18285C338.913 9.8001 333.56 11.7257 329.445 13.8032L330.347 15.5885ZM345.169 9.87164C342.136 0.375549 337.904 -15.157 334.115 -28.8214C332.222 -35.6456 330.441 -42.0022 328.98 -46.8894C328.249 -49.3322 327.596 -51.4176 327.046 -53.0149C326.514 -54.5637 326.04 -55.7757 325.655 -56.3685L323.977 -55.2798C324.202 -54.9326 324.602 -53.9722 325.155 -52.3644C325.692 -50.8051 326.336 -48.7499 327.064 -46.3164C328.518 -41.4511 330.295 -35.1128 332.187 -28.287C335.968 -14.6514 340.216 0.936119 343.263 10.48L345.169 9.87164ZM324.96 -56.8138C322.479 -57.1742 319.477 -56.9696 316.945 -56.5561C315.671 -56.3481 314.492 -56.0833 313.53 -55.7987C312.61 -55.5267 311.765 -55.2021 311.26 -54.8269L312.452 -53.2214C312.647 -53.3663 313.187 -53.6116 314.097 -53.8809C314.965 -54.1375 316.061 -54.3852 317.267 -54.5822C319.695 -54.9787 322.473 -55.1541 324.672 -54.8346L324.96 -56.8138ZM310.863 -54.1443C309.179 -40.2312 303.708 8.30511 293.661 40.6391L295.571 41.2326C305.684 8.68655 311.173 -40.0571 312.849 -53.904L310.863 -54.1443ZM294.504 41.9295C295.821 42.0783 299.652 42.0754 303.056 42.0408C304.78 42.0232 306.425 41.9969 307.639 41.975C308.246 41.9641 308.746 41.9542 309.094 41.9471C309.268 41.9435 309.404 41.9407 309.496 41.9387C309.543 41.9377 309.578 41.9369 309.602 41.9364C309.614 41.9361 309.623 41.9359 309.629 41.9358C309.632 41.9357 309.634 41.9357 309.636 41.9356C309.637 41.9356 309.637 41.9356 309.638 41.9356C309.638 41.9356 309.638 41.9356 309.638 41.9356C309.638 41.9356 309.638 41.9356 309.616 40.9358C309.594 39.9361 309.594 39.9361 309.594 39.9361C309.593 39.9361 309.593 39.9361 309.593 39.9361C309.593 39.9361 309.592 39.9361 309.591 39.9361C309.59 39.9362 309.588 39.9362 309.585 39.9363C309.579 39.9364 309.57 39.9366 309.558 39.9369C309.534 39.9374 309.499 39.9381 309.453 39.9391C309.361 39.9411 309.226 39.944 309.053 39.9475C308.706 39.9546 308.208 39.9644 307.603 39.9754C306.392 39.9972 304.752 40.0234 303.036 40.0409C299.56 40.0762 295.891 40.0734 294.728 39.9421L294.504 41.9295ZM310.611 41.0313C311.166 35.2453 312.677 26.7785 314.057 19.7279C314.746 16.2092 315.4 13.0544 315.882 10.7792C316.123 9.64177 316.32 8.72445 316.458 8.09177C316.527 7.77543 316.58 7.53027 316.617 7.36435C316.635 7.28139 316.649 7.21825 316.658 7.17591C316.663 7.15475 316.666 7.13879 316.669 7.12816C316.67 7.12285 316.671 7.11887 316.671 7.11623C316.672 7.11492 316.672 7.11394 316.672 7.1133C316.672 7.11298 316.672 7.11275 316.672 7.11259C316.672 7.11245 316.672 7.1124 315.696 6.89584C314.72 6.67928 314.72 6.67939 314.72 6.67959C314.72 6.67977 314.72 6.68006 314.719 6.68042C314.719 6.68114 314.719 6.6822 314.719 6.68359C314.718 6.68639 314.717 6.69053 314.716 6.69601C314.714 6.70697 314.71 6.72326 314.705 6.74475C314.696 6.78775 314.682 6.85159 314.663 6.93525C314.627 7.10257 314.573 7.34921 314.504 7.66709C314.365 8.30285 314.167 9.22365 313.925 10.3649C313.442 12.6473 312.786 15.8125 312.095 19.3437C310.715 26.3931 309.186 34.9464 308.621 40.8404L310.611 41.0313ZM315.912 7.87221L330.912 4.55221L330.48 2.59946L315.48 5.91946L315.912 7.87221ZM331.607 3.98742L335.527 -4.69258L333.705 -5.51575L329.785 3.16425L331.607 3.98742ZM335.152 -5.94862L328.152 -10.3886L327.08 -8.69971L334.08 -4.25971L335.152 -5.94862ZM326.687 -9.9132C326.623 -9.75286 326.454 -9.49604 326.115 -9.14987C325.788 -8.81517 325.353 -8.44851 324.832 -8.06165C323.792 -7.2882 322.483 -6.48701 321.181 -5.75605C319.884 -5.02763 318.618 -4.38124 317.674 -3.91628C317.202 -3.68407 316.812 -3.49776 316.541 -3.36981C316.406 -3.30585 316.3 -3.25651 316.228 -3.22335C316.192 -3.20678 316.165 -3.19425 316.147 -3.18596C316.138 -3.18182 316.131 -3.17873 316.127 -3.17674C316.125 -3.17574 316.123 -3.17501 316.122 -3.17456C316.122 -3.17434 316.121 -3.17418 316.121 -3.17409C316.121 -3.17405 316.121 -3.17403 316.121 -3.17401C316.121 -3.17401 316.121 -3.17403 316.536 -2.26416C316.951 -1.3543 316.951 -1.35435 316.951 -1.35442C316.951 -1.35447 316.952 -1.35456 316.952 -1.35466C316.952 -1.35484 316.953 -1.3551 316.953 -1.35543C316.955 -1.35609 316.957 -1.35702 316.96 -1.35822C316.965 -1.36063 316.972 -1.36413 316.982 -1.36869C317.002 -1.37783 317.031 -1.39124 317.069 -1.40872C317.145 -1.44369 317.255 -1.49498 317.395 -1.56102C317.674 -1.69307 318.074 -1.88425 318.557 -2.12205C319.522 -2.5971 320.823 -3.2607 322.161 -4.01228C323.494 -4.76132 324.887 -5.61013 326.026 -6.45669C326.595 -6.87983 327.119 -7.31566 327.545 -7.75097C327.959 -8.1748 328.339 -8.65548 328.545 -9.17513L326.687 -9.9132ZM317.525 -2.11871L321.365 -28.2387L319.387 -28.5296L315.547 -2.40961L317.525 -2.11871ZM320.376 -28.3842C319.456 -27.9928 319.456 -27.9929 319.456 -27.9929C319.456 -27.9929 319.456 -27.9929 319.456 -27.9928C319.456 -27.9927 319.456 -27.9924 319.456 -27.992C319.456 -27.9912 319.457 -27.9899 319.458 -27.9881C319.459 -27.9844 319.462 -27.9787 319.465 -27.9709C319.472 -27.9554 319.482 -27.9317 319.495 -27.8999C319.521 -27.8365 319.561 -27.7411 319.613 -27.615C319.716 -27.363 319.867 -26.9885 320.058 -26.5027C320.439 -25.531 320.977 -24.1143 321.603 -22.3413C322.855 -18.7942 324.454 -13.8267 325.845 -8.14643L327.787 -8.62191C326.378 -14.3816 324.757 -19.4141 323.489 -23.007C322.855 -24.804 322.308 -26.2424 321.919 -27.2332C321.725 -27.7286 321.57 -28.1122 321.463 -28.373C321.41 -28.5033 321.369 -28.603 321.34 -28.6705C321.326 -28.7043 321.315 -28.7301 321.308 -28.7476C321.304 -28.7564 321.302 -28.7631 321.3 -28.7678C321.299 -28.7701 321.298 -28.7719 321.297 -28.7732C321.297 -28.7738 321.297 -28.7743 321.297 -28.7747C321.297 -28.7749 321.296 -28.7751 321.296 -28.7752C321.296 -28.7754 321.296 -28.7755 320.376 -28.3842Z" fill="#73AFD7" mask="url(#path-52-inside-6_18_2)"/>
<mask id="path-54-inside-7_18_2" fill="white">
<path d="M299.976 20.6158C293.776 16.8158 289.976 10.0958 289.976 -1.58417C289.976 -20.8242 308.656 -28.7042 308.656 -28.7042"/>
</mask>
<path d="M300.499 19.7632C294.675 16.1941 290.976 9.85337 290.976 -1.58417H288.976C288.976 10.3383 292.877 17.4376 299.453 21.4684L300.499 19.7632ZM290.976 -1.58417C290.976 -10.8448 295.462 -17.3782 300 -21.6294C302.27 -23.7561 304.543 -25.3005 306.248 -26.3123C307.099 -26.8177 307.806 -27.1888 308.297 -27.4319C308.543 -27.5535 308.734 -27.6429 308.861 -27.7012C308.925 -27.7303 308.973 -27.7516 309.004 -27.7651C309.019 -27.7719 309.031 -27.7768 309.038 -27.7797C309.041 -27.7812 309.043 -27.7822 309.044 -27.7827C309.045 -27.7829 309.045 -27.7831 309.045 -27.7831C309.045 -27.7831 309.045 -27.783 309.045 -27.783C309.045 -27.7829 309.045 -27.7828 308.656 -28.7042C308.267 -29.6255 308.267 -29.6253 308.266 -29.6251C308.266 -29.625 308.265 -29.6247 308.265 -29.6245C308.264 -29.624 308.262 -29.6235 308.261 -29.6228C308.257 -29.6213 308.253 -29.6194 308.247 -29.617C308.236 -29.6123 308.221 -29.6055 308.201 -29.5968C308.161 -29.5794 308.104 -29.5541 308.031 -29.5208C307.885 -29.4542 307.675 -29.3556 307.409 -29.2241C306.879 -28.9611 306.127 -28.5662 305.227 -28.0322C303.429 -26.9654 301.032 -25.3373 298.632 -23.0889C293.83 -18.5901 288.976 -11.5635 288.976 -1.58417H290.976Z" fill="#73AFD7" mask="url(#path-54-inside-7_18_2)"/>
<mask id="path-56-inside-8_18_2" fill="white">
<path d="M334.136 -25.2642C342.256 -24.6242 351.216 -15.9442 351.216 -1.70417C351.216 12.5358 340.496 25.0958 322.296 25.0958C318.736 25.0958 315.296 24.9358 312.136 24.4958"/>
</mask>
<path d="M334.057 -24.2673C341.541 -23.6774 350.216 -15.5477 350.216 -1.70417H352.216C352.216 -16.3407 342.971 -25.5709 334.215 -26.2611L334.057 -24.2673ZM350.216 -1.70417C350.216 11.9769 339.95 24.0958 322.296 24.0958V26.0958C341.042 26.0958 352.216 13.0948 352.216 -1.70417H350.216ZM322.296 24.0958C318.763 24.0958 315.372 23.9368 312.274 23.5054L311.998 25.4863C315.22 25.9349 318.709 26.0958 322.296 26.0958V24.0958Z" fill="#73AFD7" mask="url(#path-56-inside-8_18_2)"/>
<path d="M248.346 32.9646L247.216 33.1798L248.144 33.8592C248.617 34.2056 249.092 34.8144 249.473 35.6069C249.851 36.3935 250.122 37.3296 250.212 38.2968C250.391 40.2349 249.841 42.2192 248.075 43.445L246.781 44.3429L248.356 44.3558L248.36 43.8558C248.356 44.3558 248.356 44.3558 248.356 44.3558L248.356 44.3558L248.357 44.3558L248.36 44.3558L248.371 44.3559L248.414 44.356C248.452 44.3561 248.506 44.3561 248.577 44.3557C248.717 44.355 248.919 44.3529 249.169 44.3476C249.669 44.3368 250.359 44.3128 251.124 44.2596C252.538 44.1613 254.27 43.9598 255.502 43.5304C256.076 43.9438 256.357 44.642 256.385 45.3748C256.4 45.7741 256.338 46.1578 256.222 46.4688C256.129 46.7168 256.014 46.892 255.901 47.0007C250.989 47.1561 234.888 49.0264 231.524 49.4774C231.136 48.8432 230.854 48.068 230.727 47.3491C230.655 46.9422 230.637 46.5704 230.669 46.2656C230.686 46.0998 230.717 45.9665 230.755 45.8621C232.717 46.0132 234.765 45.7798 235.81 45.4986L236.701 45.2586L236.013 44.6432C234.976 43.7154 234.179 42.1385 233.898 40.4297C233.618 38.7234 233.865 36.97 234.805 35.6685L235.353 34.9101L234.418 34.8761C233.303 34.8356 231.951 34.8458 230.822 34.8861C230.257 34.9063 229.744 34.9341 229.341 34.9675C229.198 34.9793 229.067 34.9921 228.95 35.0057C228.756 34.2698 228.659 33.4237 228.614 32.7042C228.587 32.2805 228.578 31.9101 228.577 31.6461C228.576 31.6057 228.576 31.5679 228.576 31.5328C229.622 31.2002 231.16 30.9707 233.023 30.8025C235.073 30.6175 237.464 30.5104 239.931 30.4053C240.089 30.3986 240.247 30.3919 240.405 30.3852C245.041 30.1884 249.914 29.9816 253.099 29.2437C253.546 29.6983 253.91 30.4303 254.126 31.1495C254.245 31.5465 254.309 31.9074 254.321 32.1723C254.323 32.222 254.323 32.2655 254.322 32.3032C254.207 32.3127 254.064 32.3247 253.898 32.3389C253.443 32.3777 252.819 32.4329 252.142 32.4981C250.797 32.6276 249.213 32.7995 248.346 32.9646ZM254.3 32.4722C254.3 32.472 254.301 32.4695 254.303 32.465C254.302 32.4702 254.301 32.4724 254.3 32.4722Z" stroke="#73AFD7" stroke-miterlimit="10"/>
<path d="M246.462 38.378L246.461 38.378L246.462 38.3864C246.669 40.4235 244.845 42.6204 242.231 42.8782C240.986 43.0009 239.873 42.4866 239.048 41.7073C238.213 40.9186 237.734 39.916 237.699 39.1577C237.682 38.5123 237.796 37.4165 238.348 36.4608C238.883 35.5331 239.85 34.7003 241.64 34.5541L241.823 34.5392L241.861 34.5014C243.303 34.4208 244.383 34.8645 245.131 35.5535C245.918 36.2784 246.371 37.3065 246.462 38.378Z" stroke="#73AFD7" stroke-miterlimit="10"/>
<path d="M218.602 -22.7642H218.77L218.904 -22.8664L223.555 -26.4063L225.624 -6.17336L225.711 -5.32684L226.408 -5.81447L231.158 -9.13552C232.071 -5.7728 232.697 0.119694 232.922 6.11946C233.121 11.44 233.001 16.7695 232.506 20.413L226.759 1.90748L226.556 1.25503L225.996 1.64547L222.2 4.28926L219.818 -15.7233L219.716 -16.5786L219.024 -16.0661L214.613 -12.7999C214.773 -19.8183 213.87 -28.2972 212.907 -35.1241C212.597 -37.3159 212.282 -39.3402 211.992 -41.0948L218.088 -23.1038L218.203 -22.7642H218.562H218.602Z" stroke="#73AFD7" stroke-miterlimit="10"/>
<mask id="path-61-inside-9_18_2" fill="white">
<path d="M224.161 -25.2642C231.801 -26.8642 241.441 -21.3042 244.401 -15.2642C247.081 -9.74423 248.682 1.21577 233.482 10.0958"/>
</mask>
<path d="M244.401 -15.2642L245.301 -15.701L245.299 -15.7043L244.401 -15.2642ZM224.366 -24.2855C227.891 -25.0237 231.972 -24.1183 235.575 -22.2423C239.181 -20.3641 242.144 -17.5987 243.504 -14.8242L245.299 -15.7043C243.699 -18.9697 240.362 -22.0044 236.498 -24.0162C232.631 -26.0301 228.072 -27.1048 223.957 -26.243L224.366 -24.2855ZM243.502 -14.8275C244.77 -12.216 245.768 -8.34231 244.678 -4.09278C243.594 0.132294 240.402 4.89468 232.977 9.23232L233.986 10.9592C241.761 6.41686 245.369 1.25925 246.615 -3.59567C247.855 -8.42615 246.713 -12.7925 245.301 -15.701L243.502 -14.8275Z" fill="#73AFD7" mask="url(#path-61-inside-9_18_2)"/>
<mask id="path-63-inside-10_18_2" fill="white">
<path d="M229.281 11.5758C219.881 13.8158 208.082 12.2558 204.522 2.65577C200.962 -6.94423 208.682 -16.5042 213.962 -20.1442"/>
</mask>
<path d="M229.05 10.603C224.474 11.6933 219.354 11.8463 214.987 10.5945C210.643 9.34927 207.103 6.73989 205.459 2.30807L203.584 3.00347C205.5 8.17165 209.64 11.1423 214.436 12.5171C219.209 13.8852 224.689 13.6982 229.513 12.5485L229.05 10.603ZM205.459 2.30807C203.809 -2.14125 204.75 -6.62669 206.81 -10.5107C208.874 -14.4039 212.012 -17.5855 214.529 -19.3209L213.394 -20.9675C210.631 -19.063 207.269 -15.6446 205.043 -11.4477C202.813 -7.24177 201.674 -2.14721 203.584 3.00347L205.459 2.30807Z" fill="#73AFD7" mask="url(#path-63-inside-10_18_2)"/>
<path d="M262.631 25.5509L262.561 25.0558L262.631 25.5509L262.631 25.5509L262.632 25.5507L262.636 25.5501L262.653 25.5478L262.717 25.5388L262.962 25.5043L263.839 25.3809C264.567 25.2784 265.543 25.1409 266.536 25.0009C268.159 24.7719 269.832 24.5354 270.529 24.435C271.773 26.1856 274.264 29.3538 276.614 31.7754C273.606 31.8097 271.25 29.7029 269.353 27.3056L269.176 27.0812L268.892 27.1205L259.43 28.4347L259.859 23.1765L259.912 22.5331L259.276 22.6431L254.565 23.4577L254.981 13.0758L254.992 12.7826L254.742 12.6294L254.481 13.0558L254.742 12.6293L254.742 12.6293L254.742 12.6291L254.741 12.6285L254.736 12.6259L254.72 12.6157L254.656 12.5769L254.425 12.4354C254.23 12.3165 253.964 12.1539 253.676 11.9787C253.107 11.6322 252.45 11.2339 252.103 11.03C250.878 10.2378 250.256 8.82582 250.082 7.39537C249.996 6.68425 250.023 5.99071 250.133 5.40531C250.188 5.11437 250.26 4.8613 250.343 4.65066C251.141 5.43666 252.107 6.143 253.088 6.85985C253.298 7.01334 253.509 7.1673 253.718 7.32264C255.09 8.33827 256.473 9.44171 257.606 10.9224C257.503 12.0702 257.344 14.3462 257.207 16.3772C257.135 17.4552 257.068 18.4669 257.02 19.209C256.996 19.5801 256.977 19.8838 256.963 20.0948L256.947 20.3385L256.943 20.4023L256.942 20.4186L256.942 20.4227L256.942 20.4237L256.942 20.424L257.441 20.4558L256.942 20.4241L256.898 21.1226L257.573 20.9381L262.887 19.4854L262.067 24.9819L261.968 25.6441L262.631 25.5509Z" stroke="#73AFD7" stroke-miterlimit="10"/>
<path d="M281.817 28.2497C282.278 28.6619 282.712 29.0334 283.073 29.3093C282.168 29.9463 280.931 29.9305 279.59 29.4321C278.027 28.8514 276.485 27.6609 275.56 26.4348L275.56 26.4348L275.557 26.4309C275.422 26.2551 275.28 26.0733 275.135 25.8874C274.842 25.5116 274.535 25.1187 274.243 24.7235C273.954 24.3323 273.691 23.9558 273.484 23.6142C274.365 23.2986 275.423 22.8814 275.994 22.6285C276.142 22.7743 276.34 22.9714 276.577 23.2072C277.257 23.8837 278.259 24.8798 279.318 25.9051C280.172 26.7317 281.057 27.5695 281.817 28.2497Z" stroke="#73AFD7" stroke-miterlimit="10"/>
<path d="M258.233 7.42015C256.893 6.01712 254.663 4.2111 253.311 3.14334L253.311 3.1432C251.946 2.06692 251.566 1.19888 251.615 0.469211C251.658 -0.176068 252.039 -0.850685 252.715 -1.60745C253.053 -1.12626 253.503 -0.615054 253.958 -0.13505C254.524 0.461613 255.136 1.04708 255.623 1.51416C255.704 1.59159 255.781 1.66576 255.854 1.7362L255.856 1.73728C257.61 3.4133 258.281 4.77031 258.442 5.77986C258.55 6.45485 258.435 7.00107 258.233 7.42015Z" stroke="#73AFD7" stroke-miterlimit="10"/>
<path d="M271.082 9.38875C271.997 8.9876 272.884 8.60456 273.548 8.3192L270.934 15.1982L270.695 15.8266L271.365 15.8745C273.149 16.0019 275.766 15.4965 278.086 14.1714C278.984 13.6741 280.003 13.822 280.63 14.5111C282.247 16.3119 284.461 18.3418 286.551 20.2586C286.761 20.4516 286.97 20.6436 287.178 20.834C289.23 22.7196 291.062 24.4363 292.07 25.7099C290.559 26.5635 289.202 26.8693 287.955 26.8083C286.575 26.7407 285.281 26.2219 284.016 25.41C282.748 24.5959 281.531 23.5015 280.308 22.3085C279.874 21.8845 279.435 21.4449 278.994 21.0025C278.21 20.2158 277.416 19.4203 276.619 18.6877L276.37 18.4581L276.064 18.6053C273.956 19.6202 271.211 20.3803 268.97 20.8882C267.855 21.1411 266.872 21.3296 266.17 21.4548C266.028 21.48 265.898 21.5027 265.78 21.5228L267.208 15.4909L267.406 14.6508L266.579 14.8964L261.064 16.5332L261.58 8.08933C261.79 5.22167 260.654 2.39523 258.504 0.491356C258.354 0.341929 258.215 0.203082 258.033 0.064889C255.283 -2.25913 254.768 -4.02395 254.989 -5.29889C255.189 -6.45307 256.009 -7.37711 256.826 -8.11321C257.608 -7.21965 258.992 -5.80863 260.485 -4.33363C262.232 -2.60621 264.154 -0.764309 265.496 0.498081C266.418 1.38562 266.835 2.65413 266.591 3.87772L266.59 3.88189C266.327 5.2585 266.134 6.67704 266.038 7.92728C265.942 9.16584 265.937 10.2779 266.069 11.0227L266.197 11.7526L266.826 11.3598C267.033 11.2306 267.613 10.9478 268.412 10.5807C269.196 10.2207 270.153 9.7958 271.082 9.38875Z" stroke="#73AFD7" stroke-miterlimit="10"/>
<mask id="path-69-inside-11_18_2" fill="white">
<path d="M9.176 163.896C9.736 168.016 10.056 170.736 9.896 174.696C13.936 172.656 19.176 170.776 24.216 170.176C18.136 151.136 7.256 107.936 4.816 104.176C0.135998 103.496 -6.744 104.936 -8.144 105.976C-9.824 119.856 -15.304 168.496 -25.384 200.936C-22.904 201.216 -10.384 200.936 -10.384 200.936C-9.264 189.256 -4.304 166.896 -4.304 166.896L10.696 163.576L14.616 154.896L7.616 150.456C6.536 153.176 -3.464 157.736 -3.464 157.736L0.375996 131.616C0.375996 131.616 4.016 140.176 6.816 151.616"/>
</mask>
<path d="M9.896 174.696L8.89682 174.655L8.82813 176.355L10.3467 175.588L9.896 174.696ZM24.216 170.176L24.3342 171.169L25.5371 171.026L25.1686 169.872L24.216 170.176ZM4.816 104.176L5.65485 103.631L5.40819 103.251L4.95979 103.186L4.816 104.176ZM-8.144 105.976L-8.74033 105.173L-9.08514 105.429L-9.13675 105.856L-8.144 105.976ZM-25.384 200.936L-26.339 200.639L-26.6978 201.794L-25.4962 201.93L-25.384 200.936ZM-10.384 200.936L-10.3616 201.936L-9.47338 201.916L-9.38857 201.031L-10.384 200.936ZM-4.304 166.896L-4.52011 165.919L-5.14227 166.057L-5.28027 166.679L-4.304 166.896ZM10.696 163.576L10.9121 164.552L11.4012 164.444L11.6074 163.987L10.696 163.576ZM14.616 154.896L15.5274 155.307L15.8846 154.516L15.1516 154.051L14.616 154.896ZM7.616 150.456L8.15162 149.611L7.13211 148.965L6.68658 150.087L7.616 150.456ZM-3.464 157.736L-4.45337 157.59L-4.72057 159.408L-3.0491 158.646L-3.464 157.736ZM0.375996 131.616L1.29625 131.225L-0.0959167 127.951L-0.613369 131.47L0.375996 131.616ZM8.18511 164.031C8.74342 168.138 9.05313 170.787 8.89682 174.655L10.8952 174.736C11.0589 170.685 10.7286 167.894 10.1669 163.761L8.18511 164.031ZM10.3467 175.588C14.3124 173.586 19.4392 171.752 24.3342 171.169L24.0978 169.183C18.9128 169.8 13.5596 171.726 9.44526 173.803L10.3467 175.588ZM25.1686 169.872C22.1362 160.376 17.9036 144.843 14.1146 131.179C12.2224 124.354 10.4411 117.998 8.97971 113.111C8.24925 110.668 7.59583 108.582 7.04638 106.985C6.51365 105.436 6.03956 104.224 5.65485 103.631L3.97715 104.72C4.20244 105.067 4.6021 106.028 5.15514 107.636C5.69148 109.195 6.33587 111.25 7.06354 113.684C8.5184 118.549 10.2946 124.887 12.1874 131.713C15.9684 145.349 20.2158 160.936 23.2634 170.48L25.1686 169.872ZM4.95979 103.186C2.47909 102.826 -0.523146 103.03 -3.05517 103.444C-4.32854 103.652 -5.50784 103.917 -6.47012 104.201C-7.38972 104.473 -8.23531 104.798 -8.74033 105.173L-7.54768 106.779C-7.3527 106.634 -6.81328 106.388 -5.90288 106.119C-5.03516 105.863 -3.93947 105.615 -2.73283 105.418C-0.304857 105.021 2.47291 104.846 4.67221 105.165L4.95979 103.186ZM-9.13675 105.856C-10.8208 119.769 -16.2919 168.305 -26.339 200.639L-24.429 201.233C-14.3161 168.687 -8.82724 119.943 -7.15125 106.096L-9.13675 105.856ZM-25.4962 201.93C-24.1787 202.078 -20.3483 202.075 -16.9438 202.041C-15.2204 202.023 -13.5751 201.997 -12.361 201.975C-11.7538 201.964 -11.2542 201.954 -10.9063 201.947C-10.7324 201.944 -10.5964 201.941 -10.5037 201.939C-10.4574 201.938 -10.422 201.937 -10.3981 201.936C-10.3861 201.936 -10.377 201.936 -10.3709 201.936C-10.3679 201.936 -10.3656 201.936 -10.364 201.936C-10.3633 201.936 -10.3627 201.936 -10.3623 201.936C-10.3621 201.936 -10.3619 201.936 -10.3618 201.936C-10.3617 201.936 -10.3616 201.936 -10.384 200.936C-10.4064 199.936 -10.4064 199.936 -10.4065 199.936C-10.4066 199.936 -10.4067 199.936 -10.4069 199.936C-10.4072 199.936 -10.4078 199.936 -10.4085 199.936C-10.41 199.936 -10.4123 199.936 -10.4152 199.936C-10.4212 199.936 -10.4301 199.937 -10.4419 199.937C-10.4655 199.937 -10.5007 199.938 -10.5467 199.939C-10.6387 199.941 -10.774 199.944 -10.9473 199.948C-11.2938 199.955 -11.7917 199.964 -12.397 199.975C-13.6079 199.997 -15.2476 200.023 -16.9642 200.041C-20.4397 200.076 -24.1093 200.073 -25.2718 199.942L-25.4962 201.93ZM-9.38857 201.031C-8.83375 195.245 -7.32274 186.779 -5.94263 179.728C-5.25385 176.209 -4.59992 173.054 -4.11819 170.779C-3.87735 169.642 -3.6796 168.724 -3.54212 168.092C-3.47338 167.775 -3.41971 167.53 -3.38326 167.364C-3.36504 167.281 -3.35112 167.218 -3.34178 167.176C-3.3371 167.155 -3.33358 167.139 -3.33122 167.128C-3.33005 167.123 -3.32917 167.119 -3.32858 167.116C-3.32829 167.115 -3.32807 167.114 -3.32793 167.113C-3.32786 167.113 -3.32781 167.113 -3.32778 167.113C-3.32774 167.112 -3.32773 167.112 -4.304 166.896C-5.28027 166.679 -5.2803 166.679 -5.28034 166.68C-5.28038 166.68 -5.28044 166.68 -5.28052 166.68C-5.28068 166.681 -5.28092 166.682 -5.28123 166.684C-5.28185 166.686 -5.28276 166.691 -5.28398 166.696C-5.2864 166.707 -5.29 166.723 -5.29475 166.745C-5.30424 166.788 -5.31831 166.852 -5.33669 166.935C-5.37345 167.103 -5.42743 167.349 -5.49651 167.667C-5.63466 168.303 -5.83316 169.224 -6.07481 170.365C-6.55808 172.647 -7.21416 175.812 -7.90538 179.344C-9.28526 186.393 -10.8143 194.946 -11.3794 200.84L-9.38857 201.031ZM-4.0879 167.872L10.9121 164.552L10.4799 162.599L-4.52011 165.919L-4.0879 167.872ZM11.6074 163.987L15.5274 155.307L13.7046 154.484L9.78463 163.164L11.6074 163.987ZM15.1516 154.051L8.15162 149.611L7.08037 151.3L14.0804 155.74L15.1516 154.051ZM6.68658 150.087C6.62292 150.247 6.45394 150.504 6.11515 150.85C5.78758 151.185 5.35273 151.551 4.83244 151.938C3.79224 152.712 2.4827 153.513 1.18129 154.244C-0.115591 154.972 -1.38229 155.619 -2.32643 156.084C-2.79794 156.316 -3.18769 156.502 -3.45889 156.63C-3.59447 156.694 -3.70033 156.743 -3.77188 156.777C-3.80766 156.793 -3.83485 156.806 -3.85288 156.814C-3.86189 156.818 -3.86862 156.821 -3.87298 156.823C-3.87516 156.824 -3.87675 156.825 -3.87774 156.825C-3.87824 156.826 -3.87858 156.826 -3.87878 156.826C-3.87887 156.826 -3.8789 156.826 -3.87895 156.826C-3.87895 156.826 -3.8789 156.826 -3.464 157.736C-3.0491 158.646 -3.04898 158.646 -3.04883 158.646C-3.04872 158.646 -3.04853 158.645 -3.04832 158.645C-3.0479 158.645 -3.04734 158.645 -3.04662 158.645C-3.04519 158.644 -3.04315 158.643 -3.04052 158.642C-3.03526 158.639 -3.02763 158.636 -3.01769 158.631C-2.99781 158.622 -2.96872 158.609 -2.93099 158.591C-2.85553 158.556 -2.7455 158.505 -2.60552 158.439C-2.32563 158.307 -1.92569 158.116 -1.44283 157.878C-0.478214 157.403 0.822582 156.739 2.16071 155.988C3.4943 155.239 4.88726 154.39 6.0258 153.543C6.59489 153.12 7.11848 152.684 7.54451 152.249C7.9593 151.825 8.33908 151.345 8.54541 150.825L6.68658 150.087ZM-2.47464 157.881L1.36536 131.761L-0.613369 131.47L-4.45337 157.59L-2.47464 157.881ZM0.375996 131.616C-0.544258 132.007 -0.544283 132.007 -0.544294 132.007C-0.544279 132.007 -0.544277 132.007 -0.544249 132.007C-0.544189 132.007 -0.544075 132.008 -0.543907 132.008C-0.543568 132.009 -0.543011 132.01 -0.542236 132.012C-0.540686 132.016 -0.538263 132.021 -0.53499 132.029C-0.52844 132.045 -0.518476 132.068 -0.505234 132.1C-0.478748 132.163 -0.439154 132.259 -0.387541 132.385C-0.284313 132.637 -0.133026 133.012 0.0575867 133.497C0.438839 134.469 0.977247 135.886 1.60301 137.659C2.85493 141.206 4.45438 146.173 5.84467 151.854L7.78733 151.378C6.37761 145.618 4.75707 140.586 3.48899 136.993C2.85475 135.196 2.30815 133.758 1.9194 132.767C1.72502 132.271 1.57006 131.888 1.46328 131.627C1.40989 131.497 1.36855 131.397 1.34035 131.329C1.32625 131.296 1.31543 131.27 1.30803 131.252C1.30434 131.244 1.30149 131.237 1.29952 131.232C1.29854 131.23 1.29777 131.228 1.29723 131.227C1.29695 131.226 1.29673 131.226 1.29657 131.225C1.29649 131.225 1.29641 131.225 1.29637 131.225C1.2963 131.225 1.29625 131.225 0.375996 131.616Z" fill="#73AFD7" mask="url(#path-69-inside-11_18_2)"/>
<mask id="path-71-inside-12_18_2" fill="white">
<path d="M14.136 134.696C22.256 135.336 31.216 144.016 31.216 158.256C31.216 172.496 20.496 185.056 2.29602 185.056C-1.26398 185.056 -4.70398 184.896 -7.86398 184.456"/>
</mask>
<path d="M14.0574 135.693C21.541 136.283 30.216 144.412 30.216 158.256H32.216C32.216 143.619 22.971 134.389 14.2146 133.699L14.0574 135.693ZM30.216 158.256C30.216 171.937 19.9504 184.056 2.29602 184.056V186.056C21.0416 186.056 32.216 173.055 32.216 158.256H30.216ZM2.29602 184.056C-1.23741 184.056 -4.62774 183.897 -7.72607 183.465L-8.00189 185.446C-4.78023 185.895 -1.29055 186.056 2.29602 186.056V184.056Z" fill="#73AFD7" mask="url(#path-71-inside-12_18_2)"/>
<path d="M181.361 164.136C181.847 164.256 181.847 164.255 181.847 164.255L181.847 164.255L181.847 164.253L181.849 164.247L181.855 164.222L181.879 164.122L181.972 163.745L182.306 162.393C182.584 161.27 182.956 159.763 183.336 158.231C184.002 155.546 184.686 152.799 184.927 151.874C188.316 151.07 194.817 149.121 199.882 146.938C198.279 151.863 193.519 154.317 188.739 155.736L188.466 155.817L188.396 156.093L184.628 171.013L176.943 167.208L176.368 166.923L176.232 167.55L174.562 175.269L159.484 168.559L159.216 168.44L158.981 168.616L159.281 169.016L158.981 168.616L158.981 168.616L158.981 168.616L158.979 168.617L158.973 168.622L158.948 168.64L158.855 168.71L158.516 168.966C158.23 169.18 157.84 169.474 157.42 169.792C156.586 170.422 155.627 171.151 155.139 171.537C153.204 172.933 150.7 173.019 148.478 172.437C147.371 172.147 146.357 171.696 145.551 171.182C144.99 170.825 144.551 170.449 144.249 170.093C145.967 169.38 147.669 168.311 149.426 167.207C149.773 166.988 150.123 166.769 150.475 166.551C152.79 165.115 155.264 163.697 158.154 162.869C159.714 163.626 162.977 165.19 165.895 166.587C167.41 167.312 168.833 167.992 169.877 168.491L171.123 169.086L171.465 169.25L171.555 169.292L171.578 169.303L171.584 169.306L171.585 169.307L171.586 169.307C171.586 169.307 171.586 169.307 171.801 168.856L171.586 169.307L172.212 169.606L172.297 168.917L173.397 160.05L181.108 164.567L181.686 164.906L181.847 164.256L181.361 164.136Z" stroke="#73AFD7" stroke-miterlimit="10"/>
<path d="M191.055 145.738C189.291 146.278 187.013 146.957 185.365 147.207C185.427 145.637 185.48 143.563 185.44 142.528C185.744 142.391 186.217 142.183 186.812 141.922C188.197 141.313 190.243 140.414 192.354 139.451C194.053 138.675 195.784 137.861 197.213 137.138C198.249 136.613 199.158 136.12 199.779 135.715C200.405 137.625 199.582 139.662 197.93 141.485C196.125 143.478 193.438 145.079 191.068 145.734L191.068 145.734L191.055 145.738Z" stroke="#73AFD7" stroke-miterlimit="10"/>
<path d="M144.552 165.182L144.552 165.182L144.549 165.184C142.149 166.589 140.558 166.69 139.407 166.14C138.34 165.63 137.507 164.499 136.76 162.885C137.698 162.687 138.825 162.288 139.923 161.844C141.312 161.284 142.713 160.629 143.733 160.149C147.215 158.536 149.628 158.316 151.258 158.679C152.568 158.971 153.412 159.648 153.93 160.356C151.131 161.429 146.997 163.775 144.552 165.182Z" stroke="#73AFD7" stroke-miterlimit="10"/>
<path d="M178.711 156.698C178.624 157.11 178.546 157.461 178.483 157.737L170.29 151.928L169.588 151.43L169.504 152.287L168.573 161.701L156.261 155.887C156.26 155.886 156.259 155.886 156.258 155.885C152.277 153.938 147.592 153.979 143.652 156.011L143.642 156.016L143.633 156.022C143.348 156.185 143.093 156.33 142.844 156.436L142.825 156.445L142.806 156.455C137.775 159.138 134.793 158.914 132.953 157.78C131.229 156.717 130.339 154.765 129.755 153.059C131.48 152.483 134.483 151.213 137.668 149.803C141.198 148.241 144.991 146.489 147.612 145.269L147.614 145.268C149.498 144.382 151.676 144.529 153.411 145.637C155.224 146.805 157.14 147.904 158.873 148.768C160.595 149.627 162.173 150.272 163.299 150.505L164.032 150.657L163.892 149.922C163.821 149.546 163.751 148.529 163.691 147.16C163.631 145.811 163.581 144.167 163.541 142.573C163.501 140.98 163.471 139.439 163.451 138.296C163.446 138.003 163.441 137.737 163.438 137.502L172.381 145.822L172.876 146.283L173.171 145.673C174.377 143.179 175.148 139.161 174.617 135.032C174.404 133.362 175.292 131.798 176.812 131.246L176.816 131.244C180.368 129.914 184.59 127.854 188.593 125.901C189.016 125.694 189.437 125.489 189.855 125.285C193.955 123.289 197.681 121.523 200.154 120.836C200.572 123.732 200.214 126.049 199.328 127.967C198.387 130.005 196.829 131.635 194.879 133.035C192.927 134.437 190.602 135.594 188.15 136.697C187.287 137.085 186.404 137.467 185.519 137.852C183.906 138.551 182.282 139.256 180.742 140.006L180.442 140.152L180.462 140.485C180.679 144.188 180.146 148.673 179.553 152.254C179.257 154.04 178.947 155.592 178.711 156.698Z" stroke="#73AFD7" stroke-miterlimit="10"/>
<path d="M62.8816 129.989L63.8446 129.832L63.8145 129.802C74.0299 128.386 81.3108 131.473 86.3708 136.733C91.614 142.182 94.5163 150.011 95.7474 157.735L95.7476 157.736C96.9763 165.303 94.0206 171.859 89.0188 176.826C84.0092 181.801 76.967 185.158 70.1201 186.282C56.5105 188.518 42.4108 179.74 39.7749 163.217C37.1352 146.67 46.7323 132.622 62.8816 129.989Z" stroke="#73AFD7" stroke-miterlimit="10"/>
<path d="M59.2767 135.262C59.4543 136.415 59.7782 138.618 60.1981 141.474C60.8458 145.88 61.7219 151.839 62.6418 157.896C64.1894 168.085 65.8659 178.587 66.7773 182.32C62.6157 182.824 57.7096 181.298 53.5424 178.152C49.202 174.874 45.7122 169.874 44.735 163.698L44.7349 163.697C43.8087 157.883 44.5013 151.385 46.9704 146.02C49.3666 140.813 53.4197 136.7 59.2767 135.262Z" stroke="#73AFD7" stroke-miterlimit="10"/>
<path d="M85.5928 173.516C82.3251 177.544 78.154 180.212 75.1396 180.904L68.2033 133.682C73.1701 133.094 78.1126 135.711 82.1323 140.103C86.2755 144.63 89.3628 150.97 90.3875 157.335C91.3988 163.617 89.0306 169.278 85.5928 173.516Z" stroke="#73AFD7" stroke-miterlimit="10"/>
<path d="M48.8329 157.955C48.6712 157.597 48.5371 157.269 48.4326 156.979C48.7162 157.094 49.055 157.232 49.436 157.389C50.6066 157.868 52.1756 158.517 53.7703 159.196C55.366 159.875 56.9831 160.582 58.2516 161.178C58.8866 161.477 59.4282 161.744 59.8339 161.965C60.0255 162.069 60.1815 162.16 60.3003 162.236C60.1839 162.494 59.9756 162.752 59.6658 163.005C59.2451 163.348 58.6678 163.654 57.9829 163.907C56.6536 164.398 54.9984 164.659 53.5102 164.639C53.087 164.356 52.5724 163.843 52.018 163.161C51.4244 162.43 50.8148 161.542 50.2585 160.626C49.7023 159.711 49.2047 158.776 48.8329 157.955Z" stroke="#73AFD7" stroke-miterlimit="10"/>
<path d="M84.5417 151.067C84.5291 151.376 84.5014 151.727 84.458 152.113C84.3567 153.015 84.1752 154.062 83.9339 155.108C83.6925 156.155 83.3935 157.191 83.0598 158.073C82.7475 158.898 82.4192 159.549 82.1032 159.951C80.7037 160.444 79.0638 160.723 77.6559 160.681C76.9309 160.66 76.2893 160.554 75.7817 160.363C75.4097 160.224 75.1288 160.047 74.933 159.84C75.0233 159.728 75.1444 159.591 75.2949 159.43C75.6129 159.089 76.0444 158.661 76.5545 158.174C77.5734 157.201 78.8868 156.014 80.1879 154.86C81.4881 153.707 82.7725 152.591 83.7321 151.763C84.0385 151.499 84.3117 151.264 84.5417 151.067Z" stroke="#73AFD7" stroke-miterlimit="10"/>
<mask id="path-82-inside-13_18_2" fill="white">
<path d="M329.176 163.896C329.736 168.016 330.056 170.736 329.896 174.696C333.936 172.656 339.176 170.776 344.216 170.176C338.136 151.136 327.256 107.936 324.816 104.176C320.136 103.496 313.256 104.936 311.856 105.976C310.176 119.856 304.696 168.496 294.616 200.936C297.096 201.216 309.616 200.936 309.616 200.936C310.736 189.256 315.696 166.896 315.696 166.896L330.696 163.576L334.616 154.896L327.616 150.456C326.536 153.176 316.536 157.736 316.536 157.736L320.376 131.616C320.376 131.616 324.016 140.176 326.816 151.616"/>
</mask>
<path d="M329.896 174.696L328.897 174.655L328.828 176.355L330.347 175.588L329.896 174.696ZM344.216 170.176L344.334 171.169L345.537 171.026L345.169 169.872L344.216 170.176ZM324.816 104.176L325.655 103.631L325.408 103.251L324.96 103.186L324.816 104.176ZM311.856 105.976L311.26 105.173L310.915 105.429L310.863 105.856L311.856 105.976ZM294.616 200.936L293.661 200.639L293.302 201.794L294.504 201.93L294.616 200.936ZM309.616 200.936L309.638 201.936L310.527 201.916L310.611 201.031L309.616 200.936ZM315.696 166.896L315.48 165.919L314.858 166.057L314.72 166.679L315.696 166.896ZM330.696 163.576L330.912 164.552L331.401 164.444L331.607 163.987L330.696 163.576ZM334.616 154.896L335.527 155.307L335.885 154.516L335.152 154.051L334.616 154.896ZM327.616 150.456L328.152 149.611L327.132 148.965L326.687 150.087L327.616 150.456ZM316.536 157.736L315.547 157.59L315.279 159.408L316.951 158.646L316.536 157.736ZM320.376 131.616L321.296 131.225L319.904 127.951L319.387 131.47L320.376 131.616ZM328.185 164.031C328.743 168.138 329.053 170.787 328.897 174.655L330.895 174.736C331.059 170.685 330.729 167.894 330.167 163.761L328.185 164.031ZM330.347 175.588C334.312 173.586 339.439 171.752 344.334 171.169L344.098 169.183C338.913 169.8 333.56 171.726 329.445 173.803L330.347 175.588ZM345.169 169.872C342.136 160.376 337.904 144.843 334.115 131.179C332.222 124.354 330.441 117.998 328.98 113.111C328.249 110.668 327.596 108.582 327.046 106.985C326.514 105.436 326.04 104.224 325.655 103.631L323.977 104.72C324.202 105.067 324.602 106.028 325.155 107.636C325.692 109.195 326.336 111.25 327.064 113.684C328.518 118.549 330.295 124.887 332.187 131.713C335.968 145.349 340.216 160.936 343.263 170.48L345.169 169.872ZM324.96 103.186C322.479 102.826 319.477 103.03 316.945 103.444C315.671 103.652 314.492 103.917 313.53 104.201C312.61 104.473 311.765 104.798 311.26 105.173L312.452 106.779C312.647 106.634 313.187 106.388 314.097 106.119C314.965 105.863 316.061 105.615 317.267 105.418C319.695 105.021 322.473 104.846 324.672 105.165L324.96 103.186ZM310.863 105.856C309.179 119.769 303.708 168.305 293.661 200.639L295.571 201.233C305.684 168.687 311.173 119.943 312.849 106.096L310.863 105.856ZM294.504 201.93C295.821 202.078 299.652 202.075 303.056 202.041C304.78 202.023 306.425 201.997 307.639 201.975C308.246 201.964 308.746 201.954 309.094 201.947C309.268 201.944 309.404 201.941 309.496 201.939C309.543 201.938 309.578 201.937 309.602 201.936C309.614 201.936 309.623 201.936 309.629 201.936C309.632 201.936 309.634 201.936 309.636 201.936C309.637 201.936 309.637 201.936 309.638 201.936C309.638 201.936 309.638 201.936 309.638 201.936C309.638 201.936 309.638 201.936 309.616 200.936C309.594 199.936 309.594 199.936 309.594 199.936C309.593 199.936 309.593 199.936 309.593 199.936C309.593 199.936 309.592 199.936 309.591 199.936C309.59 199.936 309.588 199.936 309.585 199.936C309.579 199.936 309.57 199.937 309.558 199.937C309.534 199.937 309.499 199.938 309.453 199.939C309.361 199.941 309.226 199.944 309.053 199.948C308.706 199.955 308.208 199.964 307.603 199.975C306.392 199.997 304.752 200.023 303.036 200.041C299.56 200.076 295.891 200.073 294.728 199.942L294.504 201.93ZM310.611 201.031C311.166 195.245 312.677 186.779 314.057 179.728C314.746 176.209 315.4 173.054 315.882 170.779C316.123 169.642 316.32 168.724 316.458 168.092C316.527 167.775 316.58 167.53 316.617 167.364C316.635 167.281 316.649 167.218 316.658 167.176C316.663 167.155 316.666 167.139 316.669 167.128C316.67 167.123 316.671 167.119 316.671 167.116C316.672 167.115 316.672 167.114 316.672 167.113C316.672 167.113 316.672 167.113 316.672 167.113C316.672 167.112 316.672 167.112 315.696 166.896C314.72 166.679 314.72 166.679 314.72 166.68C314.72 166.68 314.72 166.68 314.719 166.68C314.719 166.681 314.719 166.682 314.719 166.684C314.718 166.686 314.717 166.691 314.716 166.696C314.714 166.707 314.71 166.723 314.705 166.745C314.696 166.788 314.682 166.852 314.663 166.935C314.627 167.103 314.573 167.349 314.504 167.667C314.365 168.303 314.167 169.224 313.925 170.365C313.442 172.647 312.786 175.812 312.095 179.344C310.715 186.393 309.186 194.946 308.621 200.84L310.611 201.031ZM315.912 167.872L330.912 164.552L330.48 162.599L315.48 165.919L315.912 167.872ZM331.607 163.987L335.527 155.307L333.705 154.484L329.785 163.164L331.607 163.987ZM335.152 154.051L328.152 149.611L327.08 151.3L334.08 155.74L335.152 154.051ZM326.687 150.087C326.623 150.247 326.454 150.504 326.115 150.85C325.788 151.185 325.353 151.551 324.832 151.938C323.792 152.712 322.483 153.513 321.181 154.244C319.884 154.972 318.618 155.619 317.674 156.084C317.202 156.316 316.812 156.502 316.541 156.63C316.406 156.694 316.3 156.743 316.228 156.777C316.192 156.793 316.165 156.806 316.147 156.814C316.138 156.818 316.131 156.821 316.127 156.823C316.125 156.824 316.123 156.825 316.122 156.825C316.122 156.826 316.121 156.826 316.121 156.826C316.121 156.826 316.121 156.826 316.121 156.826C316.121 156.826 316.121 156.826 316.536 157.736C316.951 158.646 316.951 158.646 316.951 158.646C316.951 158.646 316.952 158.645 316.952 158.645C316.952 158.645 316.953 158.645 316.953 158.645C316.955 158.644 316.957 158.643 316.96 158.642C316.965 158.639 316.972 158.636 316.982 158.631C317.002 158.622 317.031 158.609 317.069 158.591C317.145 158.556 317.255 158.505 317.395 158.439C317.674 158.307 318.074 158.116 318.557 157.878C319.522 157.403 320.823 156.739 322.161 155.988C323.494 155.239 324.887 154.39 326.026 153.543C326.595 153.12 327.119 152.684 327.545 152.249C327.959 151.825 328.339 151.345 328.545 150.825L326.687 150.087ZM317.525 157.881L321.365 131.761L319.387 131.47L315.547 157.59L317.525 157.881ZM320.376 131.616C319.456 132.007 319.456 132.007 319.456 132.007C319.456 132.007 319.456 132.007 319.456 132.007C319.456 132.007 319.456 132.008 319.456 132.008C319.456 132.009 319.457 132.01 319.458 132.012C319.459 132.016 319.462 132.021 319.465 132.029C319.472 132.045 319.482 132.068 319.495 132.1C319.521 132.163 319.561 132.259 319.613 132.385C319.716 132.637 319.867 133.012 320.058 133.497C320.439 134.469 320.977 135.886 321.603 137.659C322.855 141.206 324.454 146.173 325.845 151.854L327.787 151.378C326.378 145.618 324.757 140.586 323.489 136.993C322.855 135.196 322.308 133.758 321.919 132.767C321.725 132.271 321.57 131.888 321.463 131.627C321.41 131.497 321.369 131.397 321.34 131.329C321.326 131.296 321.315 131.27 321.308 131.252C321.304 131.244 321.302 131.237 321.3 131.232C321.299 131.23 321.298 131.228 321.297 131.227C321.297 131.226 321.297 131.226 321.297 131.225C321.297 131.225 321.296 131.225 321.296 131.225C321.296 131.225 321.296 131.225 320.376 131.616Z" fill="#73AFD7" mask="url(#path-82-inside-13_18_2)"/>
<mask id="path-84-inside-14_18_2" fill="white">
<path d="M299.976 180.576C293.776 176.776 289.976 170.056 289.976 158.376C289.976 139.136 308.656 131.256 308.656 131.256"/>
</mask>
<path d="M300.499 179.723C294.675 176.154 290.976 169.813 290.976 158.376H288.976C288.976 170.298 292.877 177.398 299.453 181.428L300.499 179.723ZM290.976 158.376C290.976 149.115 295.462 142.582 300 138.331C302.27 136.204 304.543 134.66 306.248 133.648C307.099 133.142 307.806 132.771 308.297 132.528C308.543 132.407 308.734 132.317 308.861 132.259C308.925 132.23 308.973 132.208 309.004 132.195C309.019 132.188 309.031 132.183 309.038 132.18C309.041 132.179 309.043 132.178 309.044 132.177C309.045 132.177 309.045 132.177 309.045 132.177C309.045 132.177 309.045 132.177 309.045 132.177C309.045 132.177 309.045 132.177 308.656 131.256C308.267 130.334 308.267 130.335 308.266 130.335C308.266 130.335 308.265 130.335 308.265 130.335C308.264 130.336 308.262 130.337 308.261 130.337C308.257 130.339 308.253 130.341 308.247 130.343C308.236 130.348 308.221 130.354 308.201 130.363C308.161 130.381 308.104 130.406 308.031 130.439C307.885 130.506 307.675 130.604 307.409 130.736C306.879 130.999 306.127 131.394 305.227 131.928C303.429 132.995 301.032 134.623 298.632 136.871C293.83 141.37 288.976 148.396 288.976 158.376H290.976Z" fill="#73AFD7" mask="url(#path-84-inside-14_18_2)"/>
<mask id="path-86-inside-15_18_2" fill="white">
<path d="M334.136 134.696C342.256 135.336 351.216 144.016 351.216 158.256C351.216 172.496 340.496 185.056 322.296 185.056C318.736 185.056 315.296 184.896 312.136 184.456"/>
</mask>
<path d="M334.057 135.693C341.541 136.283 350.216 144.412 350.216 158.256H352.216C352.216 143.619 342.971 134.389 334.215 133.699L334.057 135.693ZM350.216 158.256C350.216 171.937 339.95 184.056 322.296 184.056V186.056C341.042 186.056 352.216 173.055 352.216 158.256H350.216ZM322.296 184.056C318.763 184.056 315.372 183.897 312.274 183.465L311.998 185.446C315.22 185.895 318.709 186.056 322.296 186.056V184.056Z" fill="#73AFD7" mask="url(#path-86-inside-15_18_2)"/>
<path d="M218.602 137.236H218.77L218.904 137.134L223.555 133.594L225.624 153.827L225.711 154.673L226.408 154.186L231.158 150.864C232.071 154.227 232.697 160.12 232.922 166.119C233.121 171.44 233.001 176.77 232.506 180.413L226.759 161.907L226.556 161.255L225.996 161.645L222.2 164.289L219.818 144.277L219.716 143.421L219.024 143.934L214.613 147.2C214.773 140.182 213.87 131.703 212.907 124.876C212.597 122.684 212.282 120.66 211.992 118.905L218.088 136.896L218.203 137.236H218.562H218.602Z" stroke="#73AFD7" stroke-miterlimit="10"/>
<mask id="path-89-inside-16_18_2" fill="white">
<path d="M224.161 134.736C231.801 133.136 241.441 138.696 244.401 144.736C247.081 150.256 248.682 161.216 233.482 170.096"/>
</mask>
<path d="M244.401 144.736L245.301 144.299L245.299 144.296L244.401 144.736ZM224.366 135.715C227.891 134.976 231.972 135.882 235.575 137.758C239.181 139.636 242.144 142.401 243.504 145.176L245.299 144.296C243.699 141.03 240.362 137.996 236.498 135.984C232.631 133.97 228.072 132.895 223.957 133.757L224.366 135.715ZM243.502 145.173C244.77 147.784 245.768 151.658 244.678 155.907C243.594 160.132 240.402 164.895 232.977 169.232L233.986 170.959C241.761 166.417 245.369 161.259 246.615 156.404C247.855 151.574 246.713 147.207 245.301 144.299L243.502 145.173Z" fill="#73AFD7" mask="url(#path-89-inside-16_18_2)"/>
<mask id="path-91-inside-17_18_2" fill="white">
<path d="M229.281 171.576C219.881 173.816 208.082 172.256 204.522 162.656C200.962 153.056 208.682 143.496 213.962 139.856"/>
</mask>
<path d="M229.05 170.603C224.474 171.693 219.354 171.846 214.987 170.594C210.643 169.349 207.103 166.74 205.459 162.308L203.584 163.003C205.5 168.172 209.64 171.142 214.436 172.517C219.209 173.885 224.689 173.698 229.513 172.549L229.05 170.603ZM205.459 162.308C203.809 157.859 204.75 153.373 206.81 149.489C208.874 145.596 212.012 142.415 214.529 140.679L213.394 139.032C210.631 140.937 207.269 144.355 205.043 148.552C202.813 152.758 201.674 157.853 203.584 163.003L205.459 162.308Z" fill="#73AFD7" mask="url(#path-91-inside-17_18_2)"/>
</g>
<defs>
<clipPath id="clip0_18_2">
<rect width="320" height="160" fill="white"/>
</clipPath>
</defs>
</svg>
