<svg width="52" height="32" viewBox="0 0 52 32" fill="none" xmlns="http://www.w3.org/2000/svg">
<path d="M34.9653 20.84C34.9653 21.0747 34.9653 21.28 34.9947 21.5147C34.3787 20.488 33 19.96 31.0933 19.5493C28.6293 19.0507 28.2773 18.816 28.336 18.288C28.3947 17.76 29.216 17.2907 30.448 17.2907C31.416 17.2907 32.3547 17.5253 33.2347 17.9067V15.4133C32.2667 15.12 31.2693 14.944 30.272 14.944C27.1627 14.944 25.08 16.44 24.904 18.4933V18.5227C24.1413 16.4987 22.3813 14.9733 19.36 14.9733C15.7227 14.9733 13.2293 17.6427 13.2293 20.8693C13.2293 20.9573 13.2293 21.0453 13.2293 21.104C12.5547 19.608 10.7653 18.9333 8.33067 18.4053C5.48533 17.7893 5.07467 17.5253 5.07467 16.8507C5.07467 16.2347 5.808 15.7067 6.92267 15.7067C7.48 15.7067 8.03733 15.824 8.56533 16.0293L9.064 16.2347C22.528 3.768 39.6587 7.288 44 9.37067C44 9.37067 38.1627 5 30.5067 5C21.6773 5 14.696 9.752 10.824 13.536C9.56267 13.096 8.24267 12.8613 6.92267 12.8613C3.54933 12.8613 1.17333 14.5627 1.17333 17.1147C1.17333 19.08 2.2 19.96 3.98933 20.576H4.01867C2.69867 21.6027 1.056 23.3627 0 24.5067C0.410667 24.8293 0.88 25.152 1.34933 25.416C3.22667 26.4427 5.28 26.9413 7.42133 26.9413H7.45067C11.0587 26.9413 13.3467 25.3867 13.464 22.8347C14.2267 25.152 16.368 26.6773 19.272 26.6773C20.1813 26.6773 21.0613 26.56 21.9413 26.3253V23.8613C20.7093 24.2133 20.1813 24.2427 19.4773 24.2133C18.04 24.1253 16.8667 23.3333 16.544 21.896H25.2267C25.256 21.6027 25.2853 21.4267 25.2853 21.104V21.0747C25.2853 20.7813 25.256 20.4587 25.2267 20.1653C25.9013 21.0747 27.3387 21.456 29.3333 21.8373C31.768 22.336 31.8853 22.688 31.8853 23.2747C31.8853 23.7733 31.24 24.36 29.8027 24.3013C28.336 24.2427 26.6053 23.8027 25.2853 23.0693V25.944C26.7227 26.5893 28.4533 27 29.832 27C33.1173 27 35.3467 25.0933 35.3467 23.0107C35.3467 22.952 35.3467 22.9227 35.3467 22.864C35.9333 24.2133 37.0773 25.24 38.368 25.8853C39.6587 26.5013 41.0373 26.7067 42.1813 26.7067C42.7973 26.7067 43.384 26.6773 43.9707 26.56V24.1253C43.6773 24.184 43.384 24.184 43.0907 24.184C40.656 24.184 38.6907 22.6587 38.6907 20.7813C38.6907 18.904 40.6853 17.408 43.0907 17.408C43.384 17.408 43.6773 17.4373 43.9707 17.4667V15.0907C43.4133 15.0027 42.856 14.9733 42.2987 14.9733C38.104 14.9733 34.9653 17.4667 34.9653 20.84ZM7.50933 23.9787C6.04267 23.9787 4.664 23.5387 3.256 22.6293C3.784 21.896 4.312 21.2213 4.69333 20.7813C5.25067 20.928 5.896 21.0747 6.57067 21.2213C9.35733 21.808 9.592 22.336 9.592 22.8933C9.592 23.568 8.82933 23.9787 7.50933 23.9787ZM16.5733 19.9893C16.8667 18.552 17.864 17.6133 19.3893 17.6133C20.944 17.6133 21.912 18.5813 22.1173 19.9893H16.5733Z" fill="white"/>
</svg>
