<svg width="52" height="32" viewBox="0 0 52 32" fill="none" xmlns="http://www.w3.org/2000/svg">
<path d="M21.6626 16.8485C21.6351 17.4508 21.5766 17.9545 21.4907 18.3523C21.4013 18.75 21.2844 19.0871 21.1332 19.3598C20.9991 19.5909 20.8032 19.7576 20.5523 19.8523C20.3013 19.9507 19.8442 19.9962 19.1807 19.9962H17.4586V16.3674H17.847C18.2973 16.3674 18.6033 16.4924 18.7614 16.7348C18.9195 16.9773 19.0089 17.5076 19.0295 18.3258H20.2326V13.0076H19.0295V13.1098C19.0295 13.7576 18.9401 14.2083 18.7614 14.4583C18.5826 14.7121 18.2733 14.8409 17.8333 14.8409H17.4586V11.6402H19.002C19.5864 11.6402 20.0126 11.6856 20.2738 11.7803C20.5385 11.8712 20.7585 12.0303 20.9441 12.2538C21.1023 12.447 21.2397 12.7008 21.3497 13.0189C21.4597 13.3371 21.5663 13.7803 21.666 14.3447H23.1956V10H13.0346V11.6364H13.5056C13.8527 11.6364 14.0659 11.6894 14.1587 11.7954C14.2549 11.9015 14.303 12.1818 14.303 12.6364V19.0795C14.303 19.5076 14.2515 19.7689 14.1518 19.8598C14.0521 19.9508 13.8424 19.9924 13.5228 19.9924H13.0381V21.6477H23.2541V16.8485H21.6626Z" fill="white"/>
<path d="M5.4208 22C6.85764 22 7.95418 21.678 8.70353 21.0303C9.44945 20.3826 9.82069 19.4394 9.82069 18.1932V12.5795C9.82069 12.1591 9.86882 11.8977 9.96163 11.7955C10.0579 11.6894 10.2744 11.6402 10.6147 11.6402H11.0582V10.0038H6.5689V11.6402H7.06045C7.40075 11.6402 7.61731 11.6932 7.71012 11.7917C7.80637 11.8939 7.85105 12.1705 7.85105 12.6326V17.9091C7.85105 18.7197 7.71012 19.303 7.42481 19.6591C7.13951 20.0152 6.66858 20.1932 6.01204 20.1932C5.45861 20.1932 5.06675 20.0151 4.83644 19.6553C4.60613 19.2917 4.48926 18.6629 4.48926 17.7652V12.6326C4.48926 12.1932 4.53739 11.9167 4.63364 11.8068C4.72988 11.6932 4.95332 11.6402 5.30049 11.6402H5.83673V10.0038H0V11.6402H0.49155C0.835292 11.6402 1.05185 11.697 1.15497 11.8068C1.25122 11.9129 1.30278 12.1894 1.30278 12.6326V18.3409C1.30278 19.5038 1.66027 20.4091 2.37869 21.0492C3.09711 21.6856 4.11115 22 5.4208 22Z" fill="white"/>
<path d="M37.375 18.3598H36.3919C36.3919 18.4053 36.3953 18.4735 36.3987 18.5682C36.4022 18.6553 36.4056 18.7235 36.4056 18.7614C36.4056 19.1629 36.3712 19.4659 36.3094 19.6629C36.2475 19.8636 36.1513 19.9583 36.0206 19.9583C35.8831 19.9583 35.7869 19.8788 35.7285 19.7159C35.67 19.5568 35.6425 19.2651 35.6425 18.8485C35.6425 17.4621 35.5256 16.5758 35.2919 16.1894C35.0582 15.8068 34.6147 15.5606 33.9547 15.4659C34.6113 15.3068 35.1132 15 35.4706 14.5492C35.8281 14.1061 36.0069 13.553 36.0069 12.9015C36.0069 11.928 35.7181 11.2008 35.1372 10.7197C34.5563 10.2386 33.6798 10 32.5007 10H25.839V11.6515H26.3237C26.6674 11.6515 26.884 11.7045 26.9802 11.8106C27.0765 11.9167 27.1212 12.1932 27.1212 12.6402V18.9886C27.1212 19.4432 27.073 19.7273 26.9768 19.8333C26.8805 19.9432 26.6606 19.9962 26.3237 19.9962H25.839V21.6515H31.6586V19.9962H31.112C30.7786 19.9962 30.5655 19.9394 30.4658 19.8333C30.3695 19.7273 30.3214 19.447 30.3214 18.9886V16.3864H31.1842C31.7273 16.3864 32.0848 16.4924 32.2532 16.7045C32.4285 16.9129 32.511 17.4091 32.511 18.1818V19.1591C32.511 20.125 32.7104 20.8257 33.1126 21.2689C33.5113 21.7083 34.1541 21.9318 35.0272 21.9318C35.8522 21.9318 36.4503 21.6856 36.8215 21.1932C37.1928 20.7008 37.3784 19.9091 37.3784 18.822C37.3784 18.7727 37.375 18.697 37.3715 18.5909C37.3784 18.4848 37.375 18.4091 37.375 18.3598ZM32.3942 14.4583C32.1535 14.6856 31.7342 14.803 31.1429 14.803H30.2973V11.7273H31.2461C31.8064 11.7273 32.1982 11.8447 32.4182 12.0795C32.6417 12.3182 32.7551 12.7273 32.7551 13.3144C32.7551 13.8523 32.6348 14.2311 32.3942 14.4583Z" fill="white"/>
<path d="M44.6898 21.7273C45.1951 21.5454 45.6144 21.2651 45.9547 20.8901C46.2504 20.5682 46.46 20.178 46.5872 19.7197C46.7144 19.2614 46.7763 18.6061 46.7763 17.7462V12.5455C46.7763 12.1212 46.8278 11.8598 46.9241 11.7689C47.0203 11.678 47.23 11.6364 47.5497 11.6364H48V10H42.2251V11.6364H42.7648C43.1086 11.6364 43.3251 11.6894 43.4179 11.7917C43.5142 11.8977 43.5589 12.1742 43.5589 12.6326V17.5758C43.5589 18.6212 43.4557 19.3182 43.2495 19.6704C43.0433 20.0151 42.6754 20.1856 42.1461 20.1856C41.8848 20.1856 41.658 20.1174 41.4655 19.9773C41.273 19.8371 41.1183 19.6212 41.0014 19.3409C41.0771 19.3598 41.1458 19.3712 41.2111 19.3788C41.2799 19.3864 41.3417 19.3901 41.4036 19.3901C41.7714 19.3901 42.0636 19.25 42.2905 18.9659C42.5173 18.6818 42.6273 18.3068 42.6273 17.8447C42.6273 17.3561 42.5036 16.9621 42.2526 16.6742C42.0052 16.3826 41.6683 16.2386 41.2386 16.2386C40.668 16.2386 40.2005 16.4659 39.8465 16.9205C39.489 17.375 39.3102 17.9697 39.3102 18.7008C39.3102 19.6704 39.6437 20.4583 40.3105 21.0757C40.9808 21.6932 41.847 21.9962 42.9161 21.9962C43.5898 22 44.1845 21.9129 44.6898 21.7273Z" fill="white"/>
</svg>
